%TF.GenerationSoftware,KiCad,Pcbnew,7.0.2*%
%TF.CreationDate,2023-05-22T14:03:59+07:00*%
%TF.ProjectId,ph_portable_refrigerator_v2_hw,70685f70-6f72-4746-9162-6c655f726566,rev?*%
%TF.SameCoordinates,Original*%
%TF.FileFunction,Paste,Top*%
%TF.FilePolarity,Positive*%
%FSLAX46Y46*%
G04 Gerber Fmt 4.6, Leading zero omitted, Abs format (unit mm)*
G04 Created by KiCad (PCBNEW 7.0.2) date 2023-05-22 14:03:59*
%MOMM*%
%LPD*%
G01*
G04 APERTURE LIST*
G04 Aperture macros list*
%AMRoundRect*
0 Rectangle with rounded corners*
0 $1 Rounding radius*
0 $2 $3 $4 $5 $6 $7 $8 $9 X,Y pos of 4 corners*
0 Add a 4 corners polygon primitive as box body*
4,1,4,$2,$3,$4,$5,$6,$7,$8,$9,$2,$3,0*
0 Add four circle primitives for the rounded corners*
1,1,$1+$1,$2,$3*
1,1,$1+$1,$4,$5*
1,1,$1+$1,$6,$7*
1,1,$1+$1,$8,$9*
0 Add four rect primitives between the rounded corners*
20,1,$1+$1,$2,$3,$4,$5,0*
20,1,$1+$1,$4,$5,$6,$7,0*
20,1,$1+$1,$6,$7,$8,$9,0*
20,1,$1+$1,$8,$9,$2,$3,0*%
G04 Aperture macros list end*
%ADD10C,0.010000*%
%ADD11RoundRect,0.250000X-0.250000X-0.475000X0.250000X-0.475000X0.250000X0.475000X-0.250000X0.475000X0*%
%ADD12RoundRect,0.062400X0.422600X-0.067600X0.422600X0.067600X-0.422600X0.067600X-0.422600X-0.067600X0*%
%ADD13RoundRect,0.062400X0.067600X0.422600X-0.067600X0.422600X-0.067600X-0.422600X0.067600X-0.422600X0*%
%ADD14RoundRect,0.250000X0.450000X-0.262500X0.450000X0.262500X-0.450000X0.262500X-0.450000X-0.262500X0*%
%ADD15RoundRect,0.243750X0.456250X-0.243750X0.456250X0.243750X-0.456250X0.243750X-0.456250X-0.243750X0*%
%ADD16RoundRect,0.243750X-0.456250X0.243750X-0.456250X-0.243750X0.456250X-0.243750X0.456250X0.243750X0*%
%ADD17RoundRect,0.250000X-0.450000X0.262500X-0.450000X-0.262500X0.450000X-0.262500X0.450000X0.262500X0*%
%ADD18RoundRect,0.250000X-2.050000X-0.300000X2.050000X-0.300000X2.050000X0.300000X-2.050000X0.300000X0*%
%ADD19RoundRect,0.250000X-2.025000X-2.375000X2.025000X-2.375000X2.025000X2.375000X-2.025000X2.375000X0*%
%ADD20RoundRect,0.250000X0.262500X0.450000X-0.262500X0.450000X-0.262500X-0.450000X0.262500X-0.450000X0*%
%ADD21R,1.050000X1.000000*%
%ADD22R,2.200000X1.050000*%
%ADD23RoundRect,0.150000X0.587500X0.150000X-0.587500X0.150000X-0.587500X-0.150000X0.587500X-0.150000X0*%
%ADD24RoundRect,0.250000X-0.787500X-0.925000X0.787500X-0.925000X0.787500X0.925000X-0.787500X0.925000X0*%
%ADD25R,0.650000X1.700000*%
%ADD26RoundRect,0.250000X-0.650000X1.000000X-0.650000X-1.000000X0.650000X-1.000000X0.650000X1.000000X0*%
%ADD27RoundRect,0.200000X0.200000X0.275000X-0.200000X0.275000X-0.200000X-0.275000X0.200000X-0.275000X0*%
%ADD28RoundRect,0.250000X-1.075000X0.362500X-1.075000X-0.362500X1.075000X-0.362500X1.075000X0.362500X0*%
%ADD29RoundRect,0.250000X0.475000X-0.250000X0.475000X0.250000X-0.475000X0.250000X-0.475000X-0.250000X0*%
%ADD30RoundRect,0.150000X-0.150000X0.587500X-0.150000X-0.587500X0.150000X-0.587500X0.150000X0.587500X0*%
%ADD31RoundRect,0.250000X-0.475000X0.250000X-0.475000X-0.250000X0.475000X-0.250000X0.475000X0.250000X0*%
%ADD32RoundRect,0.250000X-0.262500X-0.450000X0.262500X-0.450000X0.262500X0.450000X-0.262500X0.450000X0*%
%ADD33R,1.000000X1.050000*%
%ADD34R,1.050000X2.200000*%
%ADD35RoundRect,0.150000X0.150000X-0.587500X0.150000X0.587500X-0.150000X0.587500X-0.150000X-0.587500X0*%
%ADD36RoundRect,0.250000X-1.450000X0.312500X-1.450000X-0.312500X1.450000X-0.312500X1.450000X0.312500X0*%
%ADD37RoundRect,0.250000X-0.300000X-0.300000X0.300000X-0.300000X0.300000X0.300000X-0.300000X0.300000X0*%
%ADD38R,0.620000X1.400000*%
%ADD39R,1.100000X2.400000*%
%ADD40RoundRect,0.225000X0.225000X0.375000X-0.225000X0.375000X-0.225000X-0.375000X0.225000X-0.375000X0*%
%ADD41R,0.800000X0.300000*%
%ADD42R,0.300000X0.800000*%
%ADD43R,2.750000X2.750000*%
%ADD44RoundRect,0.150000X-0.825000X-0.150000X0.825000X-0.150000X0.825000X0.150000X-0.825000X0.150000X0*%
%ADD45R,0.700000X1.400000*%
%ADD46R,1.400000X0.700000*%
%ADD47R,2.100000X2.100000*%
%ADD48RoundRect,0.150000X0.150000X-0.512500X0.150000X0.512500X-0.150000X0.512500X-0.150000X-0.512500X0*%
%ADD49RoundRect,0.225000X-0.225000X-0.375000X0.225000X-0.375000X0.225000X0.375000X-0.225000X0.375000X0*%
%ADD50RoundRect,0.218750X-0.381250X0.218750X-0.381250X-0.218750X0.381250X-0.218750X0.381250X0.218750X0*%
%ADD51RoundRect,0.150000X0.725000X0.150000X-0.725000X0.150000X-0.725000X-0.150000X0.725000X-0.150000X0*%
%ADD52RoundRect,0.200000X0.275000X-0.200000X0.275000X0.200000X-0.275000X0.200000X-0.275000X-0.200000X0*%
%ADD53RoundRect,0.250000X1.000000X0.650000X-1.000000X0.650000X-1.000000X-0.650000X1.000000X-0.650000X0*%
%ADD54RoundRect,0.250000X-0.425000X-0.425000X0.425000X-0.425000X0.425000X0.425000X-0.425000X0.425000X0*%
%ADD55RoundRect,0.075000X-0.325000X-0.075000X0.325000X-0.075000X0.325000X0.075000X-0.325000X0.075000X0*%
%ADD56RoundRect,0.075000X-0.075000X-0.325000X0.075000X-0.325000X0.075000X0.325000X-0.075000X0.325000X0*%
%ADD57RoundRect,0.250000X-0.925000X0.787500X-0.925000X-0.787500X0.925000X-0.787500X0.925000X0.787500X0*%
%ADD58R,1.500000X2.000000*%
%ADD59R,3.800000X2.000000*%
%ADD60R,1.000000X2.750000*%
%ADD61R,5.400000X2.900000*%
%ADD62RoundRect,0.250000X0.650000X-1.000000X0.650000X1.000000X-0.650000X1.000000X-0.650000X-1.000000X0*%
%ADD63RoundRect,0.243750X-0.243750X-0.456250X0.243750X-0.456250X0.243750X0.456250X-0.243750X0.456250X0*%
%ADD64R,0.900000X2.000000*%
%ADD65R,2.000000X0.900000*%
%ADD66R,1.330000X1.330000*%
%ADD67RoundRect,0.250000X0.250000X0.475000X-0.250000X0.475000X-0.250000X-0.475000X0.250000X-0.475000X0*%
%ADD68R,1.150000X0.600000*%
%ADD69R,1.150000X0.300000*%
G04 APERTURE END LIST*
%TO.C,U11*%
D10*
X63625792Y-130784000D02*
X61646000Y-130784000D01*
X61646000Y-128804208D01*
X63625792Y-128804208D01*
X63625792Y-130784000D01*
G36*
X63625792Y-130784000D02*
G01*
X61646000Y-130784000D01*
X61646000Y-128804208D01*
X63625792Y-128804208D01*
X63625792Y-130784000D01*
G37*
%TO.C,U7*%
X50750000Y-102075000D02*
X50650000Y-102075000D01*
X50650000Y-102975000D01*
X50050000Y-102975000D01*
X50050000Y-102075000D01*
X49950000Y-102075000D01*
X49950000Y-100875000D01*
X50750000Y-100875000D01*
X50750000Y-102075000D01*
G36*
X50750000Y-102075000D02*
G01*
X50650000Y-102075000D01*
X50650000Y-102975000D01*
X50050000Y-102975000D01*
X50050000Y-102075000D01*
X49950000Y-102075000D01*
X49950000Y-100875000D01*
X50750000Y-100875000D01*
X50750000Y-102075000D01*
G37*
X49650000Y-102075000D02*
X49550000Y-102075000D01*
X49550000Y-102975000D01*
X48950000Y-102975000D01*
X48950000Y-102075000D01*
X48850000Y-102075000D01*
X48850000Y-100875000D01*
X49650000Y-100875000D01*
X49650000Y-102075000D01*
G36*
X49650000Y-102075000D02*
G01*
X49550000Y-102075000D01*
X49550000Y-102975000D01*
X48950000Y-102975000D01*
X48950000Y-102075000D01*
X48850000Y-102075000D01*
X48850000Y-100875000D01*
X49650000Y-100875000D01*
X49650000Y-102075000D01*
G37*
X48550000Y-102075000D02*
X48450000Y-102075000D01*
X48450000Y-102975000D01*
X47850000Y-102975000D01*
X47850000Y-102075000D01*
X47750000Y-102075000D01*
X47750000Y-100875000D01*
X48550000Y-100875000D01*
X48550000Y-102075000D01*
G36*
X48550000Y-102075000D02*
G01*
X48450000Y-102075000D01*
X48450000Y-102975000D01*
X47850000Y-102975000D01*
X47850000Y-102075000D01*
X47750000Y-102075000D01*
X47750000Y-100875000D01*
X48550000Y-100875000D01*
X48550000Y-102075000D01*
G37*
X47450000Y-102075000D02*
X47350000Y-102075000D01*
X47350000Y-102975000D01*
X46750000Y-102975000D01*
X46750000Y-102075000D01*
X46650000Y-102075000D01*
X46650000Y-100875000D01*
X47450000Y-100875000D01*
X47450000Y-102075000D01*
G36*
X47450000Y-102075000D02*
G01*
X47350000Y-102075000D01*
X47350000Y-102975000D01*
X46750000Y-102975000D01*
X46750000Y-102075000D01*
X46650000Y-102075000D01*
X46650000Y-100875000D01*
X47450000Y-100875000D01*
X47450000Y-102075000D01*
G37*
X46350000Y-102075000D02*
X46250000Y-102075000D01*
X46250000Y-102975000D01*
X45650000Y-102975000D01*
X45650000Y-102075000D01*
X45550000Y-102075000D01*
X45550000Y-100875000D01*
X46350000Y-100875000D01*
X46350000Y-102075000D01*
G36*
X46350000Y-102075000D02*
G01*
X46250000Y-102075000D01*
X46250000Y-102975000D01*
X45650000Y-102975000D01*
X45650000Y-102075000D01*
X45550000Y-102075000D01*
X45550000Y-100875000D01*
X46350000Y-100875000D01*
X46350000Y-102075000D01*
G37*
X45250000Y-102075000D02*
X45150000Y-102075000D01*
X45150000Y-102975000D01*
X44550000Y-102975000D01*
X44550000Y-102075000D01*
X44450000Y-102075000D01*
X44450000Y-100875000D01*
X45250000Y-100875000D01*
X45250000Y-102075000D01*
G36*
X45250000Y-102075000D02*
G01*
X45150000Y-102075000D01*
X45150000Y-102975000D01*
X44550000Y-102975000D01*
X44550000Y-102075000D01*
X44450000Y-102075000D01*
X44450000Y-100875000D01*
X45250000Y-100875000D01*
X45250000Y-102075000D01*
G37*
X44150000Y-102075000D02*
X44050000Y-102075000D01*
X44050000Y-102975000D01*
X43450000Y-102975000D01*
X43450000Y-102075000D01*
X43350000Y-102075000D01*
X43350000Y-100875000D01*
X44150000Y-100875000D01*
X44150000Y-102075000D01*
G36*
X44150000Y-102075000D02*
G01*
X44050000Y-102075000D01*
X44050000Y-102975000D01*
X43450000Y-102975000D01*
X43450000Y-102075000D01*
X43350000Y-102075000D01*
X43350000Y-100875000D01*
X44150000Y-100875000D01*
X44150000Y-102075000D01*
G37*
X41150000Y-102075000D02*
X41050000Y-102075000D01*
X41050000Y-102975000D01*
X40450000Y-102975000D01*
X40450000Y-102075000D01*
X40350000Y-102075000D01*
X40350000Y-100875000D01*
X41150000Y-100875000D01*
X41150000Y-102075000D01*
G36*
X41150000Y-102075000D02*
G01*
X41050000Y-102075000D01*
X41050000Y-102975000D01*
X40450000Y-102975000D01*
X40450000Y-102075000D01*
X40350000Y-102075000D01*
X40350000Y-100875000D01*
X41150000Y-100875000D01*
X41150000Y-102075000D01*
G37*
X40050000Y-102075000D02*
X39950000Y-102075000D01*
X39950000Y-102975000D01*
X39350000Y-102975000D01*
X39350000Y-102075000D01*
X39250000Y-102075000D01*
X39250000Y-100875000D01*
X40050000Y-100875000D01*
X40050000Y-102075000D01*
G36*
X40050000Y-102075000D02*
G01*
X39950000Y-102075000D01*
X39950000Y-102975000D01*
X39350000Y-102975000D01*
X39350000Y-102075000D01*
X39250000Y-102075000D01*
X39250000Y-100875000D01*
X40050000Y-100875000D01*
X40050000Y-102075000D01*
G37*
X38950000Y-102075000D02*
X38850000Y-102075000D01*
X38850000Y-102975000D01*
X38250000Y-102975000D01*
X38250000Y-102075000D01*
X38150000Y-102075000D01*
X38150000Y-100875000D01*
X38950000Y-100875000D01*
X38950000Y-102075000D01*
G36*
X38950000Y-102075000D02*
G01*
X38850000Y-102075000D01*
X38850000Y-102975000D01*
X38250000Y-102975000D01*
X38250000Y-102075000D01*
X38150000Y-102075000D01*
X38150000Y-100875000D01*
X38950000Y-100875000D01*
X38950000Y-102075000D01*
G37*
X37850000Y-102075000D02*
X37750000Y-102075000D01*
X37750000Y-102975000D01*
X37150000Y-102975000D01*
X37150000Y-102075000D01*
X37050000Y-102075000D01*
X37050000Y-100875000D01*
X37850000Y-100875000D01*
X37850000Y-102075000D01*
G36*
X37850000Y-102075000D02*
G01*
X37750000Y-102075000D01*
X37750000Y-102975000D01*
X37150000Y-102975000D01*
X37150000Y-102075000D01*
X37050000Y-102075000D01*
X37050000Y-100875000D01*
X37850000Y-100875000D01*
X37850000Y-102075000D01*
G37*
X36750000Y-102075000D02*
X36650000Y-102075000D01*
X36650000Y-102975000D01*
X36050000Y-102975000D01*
X36050000Y-102075000D01*
X35950000Y-102075000D01*
X35950000Y-100875000D01*
X36750000Y-100875000D01*
X36750000Y-102075000D01*
G36*
X36750000Y-102075000D02*
G01*
X36650000Y-102075000D01*
X36650000Y-102975000D01*
X36050000Y-102975000D01*
X36050000Y-102075000D01*
X35950000Y-102075000D01*
X35950000Y-100875000D01*
X36750000Y-100875000D01*
X36750000Y-102075000D01*
G37*
X50650000Y-114275000D02*
X50750000Y-114275000D01*
X50750000Y-115475000D01*
X49950000Y-115475000D01*
X49950000Y-114275000D01*
X50050000Y-114275000D01*
X50050000Y-113375000D01*
X50650000Y-113375000D01*
X50650000Y-114275000D01*
G36*
X50650000Y-114275000D02*
G01*
X50750000Y-114275000D01*
X50750000Y-115475000D01*
X49950000Y-115475000D01*
X49950000Y-114275000D01*
X50050000Y-114275000D01*
X50050000Y-113375000D01*
X50650000Y-113375000D01*
X50650000Y-114275000D01*
G37*
X49550000Y-114275000D02*
X49650000Y-114275000D01*
X49650000Y-115475000D01*
X48850000Y-115475000D01*
X48850000Y-114275000D01*
X48950000Y-114275000D01*
X48950000Y-113375000D01*
X49550000Y-113375000D01*
X49550000Y-114275000D01*
G36*
X49550000Y-114275000D02*
G01*
X49650000Y-114275000D01*
X49650000Y-115475000D01*
X48850000Y-115475000D01*
X48850000Y-114275000D01*
X48950000Y-114275000D01*
X48950000Y-113375000D01*
X49550000Y-113375000D01*
X49550000Y-114275000D01*
G37*
X48450000Y-114275000D02*
X48550000Y-114275000D01*
X48550000Y-115475000D01*
X47750000Y-115475000D01*
X47750000Y-114275000D01*
X47850000Y-114275000D01*
X47850000Y-113375000D01*
X48450000Y-113375000D01*
X48450000Y-114275000D01*
G36*
X48450000Y-114275000D02*
G01*
X48550000Y-114275000D01*
X48550000Y-115475000D01*
X47750000Y-115475000D01*
X47750000Y-114275000D01*
X47850000Y-114275000D01*
X47850000Y-113375000D01*
X48450000Y-113375000D01*
X48450000Y-114275000D01*
G37*
X47350000Y-114275000D02*
X47450000Y-114275000D01*
X47450000Y-115475000D01*
X46650000Y-115475000D01*
X46650000Y-114275000D01*
X46750000Y-114275000D01*
X46750000Y-113375000D01*
X47350000Y-113375000D01*
X47350000Y-114275000D01*
G36*
X47350000Y-114275000D02*
G01*
X47450000Y-114275000D01*
X47450000Y-115475000D01*
X46650000Y-115475000D01*
X46650000Y-114275000D01*
X46750000Y-114275000D01*
X46750000Y-113375000D01*
X47350000Y-113375000D01*
X47350000Y-114275000D01*
G37*
X46250000Y-114275000D02*
X46350000Y-114275000D01*
X46350000Y-115475000D01*
X45550000Y-115475000D01*
X45550000Y-114275000D01*
X45650000Y-114275000D01*
X45650000Y-113375000D01*
X46250000Y-113375000D01*
X46250000Y-114275000D01*
G36*
X46250000Y-114275000D02*
G01*
X46350000Y-114275000D01*
X46350000Y-115475000D01*
X45550000Y-115475000D01*
X45550000Y-114275000D01*
X45650000Y-114275000D01*
X45650000Y-113375000D01*
X46250000Y-113375000D01*
X46250000Y-114275000D01*
G37*
X45150000Y-114275000D02*
X45250000Y-114275000D01*
X45250000Y-115475000D01*
X44450000Y-115475000D01*
X44450000Y-114275000D01*
X44550000Y-114275000D01*
X44550000Y-113375000D01*
X45150000Y-113375000D01*
X45150000Y-114275000D01*
G36*
X45150000Y-114275000D02*
G01*
X45250000Y-114275000D01*
X45250000Y-115475000D01*
X44450000Y-115475000D01*
X44450000Y-114275000D01*
X44550000Y-114275000D01*
X44550000Y-113375000D01*
X45150000Y-113375000D01*
X45150000Y-114275000D01*
G37*
X44050000Y-114275000D02*
X44150000Y-114275000D01*
X44150000Y-115475000D01*
X43350000Y-115475000D01*
X43350000Y-114275000D01*
X43450000Y-114275000D01*
X43450000Y-113375000D01*
X44050000Y-113375000D01*
X44050000Y-114275000D01*
G36*
X44050000Y-114275000D02*
G01*
X44150000Y-114275000D01*
X44150000Y-115475000D01*
X43350000Y-115475000D01*
X43350000Y-114275000D01*
X43450000Y-114275000D01*
X43450000Y-113375000D01*
X44050000Y-113375000D01*
X44050000Y-114275000D01*
G37*
X41050000Y-114275000D02*
X41150000Y-114275000D01*
X41150000Y-115475000D01*
X40350000Y-115475000D01*
X40350000Y-114275000D01*
X40450000Y-114275000D01*
X40450000Y-113375000D01*
X41050000Y-113375000D01*
X41050000Y-114275000D01*
G36*
X41050000Y-114275000D02*
G01*
X41150000Y-114275000D01*
X41150000Y-115475000D01*
X40350000Y-115475000D01*
X40350000Y-114275000D01*
X40450000Y-114275000D01*
X40450000Y-113375000D01*
X41050000Y-113375000D01*
X41050000Y-114275000D01*
G37*
X39950000Y-114275000D02*
X40050000Y-114275000D01*
X40050000Y-115475000D01*
X39250000Y-115475000D01*
X39250000Y-114275000D01*
X39350000Y-114275000D01*
X39350000Y-113375000D01*
X39950000Y-113375000D01*
X39950000Y-114275000D01*
G36*
X39950000Y-114275000D02*
G01*
X40050000Y-114275000D01*
X40050000Y-115475000D01*
X39250000Y-115475000D01*
X39250000Y-114275000D01*
X39350000Y-114275000D01*
X39350000Y-113375000D01*
X39950000Y-113375000D01*
X39950000Y-114275000D01*
G37*
X38850000Y-114275000D02*
X38950000Y-114275000D01*
X38950000Y-115475000D01*
X38150000Y-115475000D01*
X38150000Y-114275000D01*
X38250000Y-114275000D01*
X38250000Y-113375000D01*
X38850000Y-113375000D01*
X38850000Y-114275000D01*
G36*
X38850000Y-114275000D02*
G01*
X38950000Y-114275000D01*
X38950000Y-115475000D01*
X38150000Y-115475000D01*
X38150000Y-114275000D01*
X38250000Y-114275000D01*
X38250000Y-113375000D01*
X38850000Y-113375000D01*
X38850000Y-114275000D01*
G37*
X37750000Y-114275000D02*
X37850000Y-114275000D01*
X37850000Y-115475000D01*
X37050000Y-115475000D01*
X37050000Y-114275000D01*
X37150000Y-114275000D01*
X37150000Y-113375000D01*
X37750000Y-113375000D01*
X37750000Y-114275000D01*
G36*
X37750000Y-114275000D02*
G01*
X37850000Y-114275000D01*
X37850000Y-115475000D01*
X37050000Y-115475000D01*
X37050000Y-114275000D01*
X37150000Y-114275000D01*
X37150000Y-113375000D01*
X37750000Y-113375000D01*
X37750000Y-114275000D01*
G37*
X36650000Y-114275000D02*
X36750000Y-114275000D01*
X36750000Y-115475000D01*
X35950000Y-115475000D01*
X35950000Y-114275000D01*
X36050000Y-114275000D01*
X36050000Y-113375000D01*
X36650000Y-113375000D01*
X36650000Y-114275000D01*
G36*
X36650000Y-114275000D02*
G01*
X36750000Y-114275000D01*
X36750000Y-115475000D01*
X35950000Y-115475000D01*
X35950000Y-114275000D01*
X36050000Y-114275000D01*
X36050000Y-113375000D01*
X36650000Y-113375000D01*
X36650000Y-114275000D01*
G37*
%TD*%
D11*
%TO.C,C22*%
X56145000Y-138900000D03*
X58045000Y-138900000D03*
%TD*%
D12*
%TO.C,U11*%
X65005000Y-131295000D03*
X65005000Y-130795000D03*
X65005000Y-130295000D03*
X65005000Y-129795000D03*
X65005000Y-129295000D03*
X65005000Y-128795000D03*
X65005000Y-128295000D03*
D13*
X64135000Y-127425000D03*
X63635000Y-127425000D03*
X63135000Y-127425000D03*
X62635000Y-127425000D03*
X62135000Y-127425000D03*
X61635000Y-127425000D03*
X61135000Y-127425000D03*
D12*
X60265000Y-128295000D03*
X60265000Y-128795000D03*
X60265000Y-129295000D03*
X60265000Y-129795000D03*
X60265000Y-130295000D03*
X60265000Y-130795000D03*
X60265000Y-131295000D03*
D13*
X61135000Y-132165000D03*
X61635000Y-132165000D03*
X62135000Y-132165000D03*
X62635000Y-132165000D03*
X63135000Y-132165000D03*
X63635000Y-132165000D03*
X64135000Y-132165000D03*
%TD*%
D14*
%TO.C,C21*%
X57845000Y-142525000D03*
X57845000Y-140700000D03*
%TD*%
D15*
%TO.C,D5*%
X77000000Y-162050000D03*
X77000000Y-160175000D03*
%TD*%
D16*
%TO.C,D13*%
X36550000Y-85487500D03*
X36550000Y-87362500D03*
%TD*%
D17*
%TO.C,R69*%
X38500000Y-85475000D03*
X38500000Y-87300000D03*
%TD*%
D18*
%TO.C,U5*%
X58475000Y-71250000D03*
X58475000Y-72950000D03*
X58475000Y-74650000D03*
D19*
X65200000Y-71875000D03*
X65200000Y-77425000D03*
X70050000Y-71875000D03*
X70050000Y-77425000D03*
D18*
X58475000Y-76350000D03*
X58475000Y-78050000D03*
%TD*%
D20*
%TO.C,R3*%
X53075000Y-164900000D03*
X51250000Y-164900000D03*
%TD*%
%TO.C,C32*%
X40150000Y-52000000D03*
X38325000Y-52000000D03*
%TD*%
%TO.C,C33*%
X40150000Y-55800000D03*
X38325000Y-55800000D03*
%TD*%
D21*
%TO.C,AT2*%
X72625000Y-51325000D03*
D22*
X74150000Y-52800000D03*
X74150000Y-49850000D03*
%TD*%
D14*
%TO.C,R61*%
X67600000Y-136837500D03*
X67600000Y-135012500D03*
%TD*%
D23*
%TO.C,Q2*%
X71100000Y-40350000D03*
X71100000Y-38450000D03*
X69225000Y-39400000D03*
%TD*%
D20*
%TO.C,R51*%
X60125000Y-153475000D03*
X58300000Y-153475000D03*
%TD*%
D24*
%TO.C,C47*%
X66337500Y-66525000D03*
X71262500Y-66525000D03*
%TD*%
D14*
%TO.C,C25*%
X39250000Y-123125000D03*
X39250000Y-121300000D03*
%TD*%
%TO.C,C24*%
X37325000Y-123125000D03*
X37325000Y-121300000D03*
%TD*%
D17*
%TO.C,C11*%
X48150000Y-168037500D03*
X48150000Y-169862500D03*
%TD*%
D20*
%TO.C,C34*%
X40150000Y-61500000D03*
X38325000Y-61500000D03*
%TD*%
D25*
%TO.C,U4*%
X53935000Y-136725000D03*
X55205000Y-136725000D03*
X56475000Y-136725000D03*
X57745000Y-136725000D03*
X57745000Y-129425000D03*
X56475000Y-129425000D03*
X55205000Y-129425000D03*
X53935000Y-129425000D03*
%TD*%
D14*
%TO.C,R11*%
X45100000Y-90462500D03*
X45100000Y-88637500D03*
%TD*%
%TO.C,R66*%
X71425000Y-47062500D03*
X71425000Y-45237500D03*
%TD*%
D20*
%TO.C,R41*%
X40150000Y-57700000D03*
X38325000Y-57700000D03*
%TD*%
D17*
%TO.C,R16*%
X50441666Y-177687500D03*
X50441666Y-179512500D03*
%TD*%
D26*
%TO.C,D11*%
X44800000Y-146050000D03*
X44800000Y-150050000D03*
%TD*%
D27*
%TO.C,L3*%
X39100000Y-97862500D03*
X37450000Y-97862500D03*
%TD*%
D28*
%TO.C,C2*%
X64200000Y-182662500D03*
X64200000Y-187287500D03*
%TD*%
D20*
%TO.C,R48*%
X60137500Y-157300000D03*
X58312500Y-157300000D03*
%TD*%
D29*
%TO.C,C43*%
X62810000Y-125875000D03*
X62810000Y-123975000D03*
%TD*%
D14*
%TO.C,R8*%
X45575000Y-187350000D03*
X45575000Y-185525000D03*
%TD*%
D11*
%TO.C,C42*%
X67180000Y-130295000D03*
X69080000Y-130295000D03*
%TD*%
D17*
%TO.C,R20*%
X48625000Y-132162500D03*
X48625000Y-133987500D03*
%TD*%
D30*
%TO.C,Q5*%
X50625000Y-181587500D03*
X48725000Y-181587500D03*
X49675000Y-183462500D03*
%TD*%
D29*
%TO.C,C18*%
X44300000Y-97875000D03*
X44300000Y-95975000D03*
%TD*%
D14*
%TO.C,R26*%
X46700000Y-133987500D03*
X46700000Y-132162500D03*
%TD*%
D17*
%TO.C,R59*%
X72900000Y-135012500D03*
X72900000Y-136837500D03*
%TD*%
D29*
%TO.C,C5*%
X69125000Y-34125000D03*
X69125000Y-32225000D03*
%TD*%
D17*
%TO.C,C30*%
X52575000Y-75050000D03*
X52575000Y-76875000D03*
%TD*%
%TO.C,R45*%
X73075000Y-144117500D03*
X73075000Y-145942500D03*
%TD*%
D28*
%TO.C,C7*%
X67450000Y-182662500D03*
X67450000Y-187287500D03*
%TD*%
D20*
%TO.C,R42*%
X40150000Y-59600000D03*
X38325000Y-59600000D03*
%TD*%
D17*
%TO.C,R32*%
X47500000Y-185525000D03*
X47500000Y-187350000D03*
%TD*%
D20*
%TO.C,R50*%
X60125000Y-151550000D03*
X58300000Y-151550000D03*
%TD*%
D14*
%TO.C,C17*%
X52370000Y-142525000D03*
X52370000Y-140700000D03*
%TD*%
D29*
%TO.C,C6*%
X71600000Y-95550000D03*
X71600000Y-93650000D03*
%TD*%
D14*
%TO.C,R33*%
X40500000Y-45012500D03*
X40500000Y-43187500D03*
%TD*%
D31*
%TO.C,R25*%
X42325000Y-95975000D03*
X42325000Y-97875000D03*
%TD*%
D14*
%TO.C,C36*%
X73075000Y-149342500D03*
X73075000Y-147517500D03*
%TD*%
D32*
%TO.C,R64*%
X76437500Y-62525000D03*
X78262500Y-62525000D03*
%TD*%
D17*
%TO.C,C38*%
X71175000Y-140725000D03*
X71175000Y-142550000D03*
%TD*%
%TO.C,R39*%
X69525000Y-45225000D03*
X69525000Y-47050000D03*
%TD*%
D14*
%TO.C,R19*%
X66325000Y-120862500D03*
X66325000Y-119037500D03*
%TD*%
D17*
%TO.C,C23*%
X42850000Y-121275000D03*
X42850000Y-123100000D03*
%TD*%
D11*
%TO.C,C48*%
X69175000Y-53125000D03*
X71075000Y-53125000D03*
%TD*%
D17*
%TO.C,R46*%
X71125000Y-149137500D03*
X71125000Y-150962500D03*
%TD*%
%TO.C,C37*%
X73075000Y-140717500D03*
X73075000Y-142542500D03*
%TD*%
D14*
%TO.C,R13*%
X70250000Y-120887500D03*
X70250000Y-119062500D03*
%TD*%
D23*
%TO.C,Q12*%
X78525000Y-60825000D03*
X78525000Y-58925000D03*
X76650000Y-59875000D03*
%TD*%
D33*
%TO.C,AT1*%
X37450000Y-96262500D03*
D34*
X38925000Y-94737500D03*
X35975000Y-94737500D03*
%TD*%
D14*
%TO.C,C28*%
X54575000Y-72762500D03*
X54575000Y-70937500D03*
%TD*%
D35*
%TO.C,Q6*%
X40525000Y-175775000D03*
X42425000Y-175775000D03*
X41475000Y-173900000D03*
%TD*%
D31*
%TO.C,C15*%
X56375000Y-119000000D03*
X56375000Y-120900000D03*
%TD*%
D15*
%TO.C,D7*%
X78700000Y-47075000D03*
X78700000Y-45200000D03*
%TD*%
D20*
%TO.C,R68*%
X42112500Y-89575000D03*
X40287500Y-89575000D03*
%TD*%
D36*
%TO.C,F1*%
X41000000Y-153537500D03*
X41000000Y-157812500D03*
%TD*%
D17*
%TO.C,C39*%
X69275000Y-140725000D03*
X69275000Y-142550000D03*
%TD*%
D37*
%TO.C,D12*%
X66730000Y-124245000D03*
X69530000Y-124245000D03*
%TD*%
D38*
%TO.C,J1*%
X55770000Y-34127500D03*
X56870000Y-34127500D03*
X57970000Y-34127500D03*
X59070000Y-34127500D03*
X60170000Y-34127500D03*
X61270000Y-34127500D03*
X62370000Y-34127500D03*
X63470000Y-34127500D03*
X64570000Y-34127500D03*
D39*
X65950000Y-23127500D03*
X65950000Y-32127500D03*
X49800000Y-32127500D03*
X49800000Y-23127500D03*
%TD*%
D17*
%TO.C,R47*%
X63575000Y-140737500D03*
X63575000Y-142562500D03*
%TD*%
D11*
%TO.C,C46*%
X69175000Y-55100000D03*
X71075000Y-55100000D03*
%TD*%
D32*
%TO.C,R57*%
X67192500Y-126370000D03*
X69017500Y-126370000D03*
%TD*%
D40*
%TO.C,D4*%
X64250000Y-66525000D03*
X60950000Y-66525000D03*
%TD*%
D31*
%TO.C,C19*%
X49400000Y-116925000D03*
X49400000Y-118825000D03*
%TD*%
D20*
%TO.C,R43*%
X40150000Y-63400000D03*
X38325000Y-63400000D03*
%TD*%
D41*
%TO.C,IC1*%
X68850000Y-148875000D03*
X68850000Y-148375000D03*
X68850000Y-147875000D03*
X68850000Y-147375000D03*
X68850000Y-146875000D03*
X68850000Y-146375000D03*
D42*
X68100000Y-145625000D03*
X67600000Y-145625000D03*
X67100000Y-145625000D03*
X66600000Y-145625000D03*
X66100000Y-145625000D03*
X65600000Y-145625000D03*
D41*
X64850000Y-146375000D03*
X64850000Y-146875000D03*
X64850000Y-147375000D03*
X64850000Y-147875000D03*
X64850000Y-148375000D03*
X64850000Y-148875000D03*
D42*
X65600000Y-149625000D03*
X66100000Y-149625000D03*
X66600000Y-149625000D03*
X67100000Y-149625000D03*
X67600000Y-149625000D03*
X68100000Y-149625000D03*
D43*
X66850000Y-147625000D03*
%TD*%
D17*
%TO.C,C8*%
X65650000Y-174600000D03*
X65650000Y-176425000D03*
%TD*%
%TO.C,C12*%
X46250000Y-168037500D03*
X46250000Y-169862500D03*
%TD*%
%TO.C,C14*%
X57350000Y-171037500D03*
X57350000Y-172862500D03*
%TD*%
D29*
%TO.C,R4*%
X69625000Y-95550000D03*
X69625000Y-93650000D03*
%TD*%
D14*
%TO.C,R67*%
X76775000Y-47075000D03*
X76775000Y-45250000D03*
%TD*%
D44*
%TO.C,U2*%
X58250000Y-176422500D03*
X58250000Y-177692500D03*
X58250000Y-178962500D03*
X58250000Y-180232500D03*
X63200000Y-180232500D03*
X63200000Y-178962500D03*
X63200000Y-177692500D03*
X63200000Y-176422500D03*
%TD*%
D29*
%TO.C,C1*%
X73600000Y-95550000D03*
X73600000Y-93650000D03*
%TD*%
D14*
%TO.C,R29*%
X38575000Y-44987500D03*
X38575000Y-43162500D03*
%TD*%
%TO.C,R22*%
X52600000Y-72762500D03*
X52600000Y-70937500D03*
%TD*%
D17*
%TO.C,R30*%
X51350000Y-185525000D03*
X51350000Y-187350000D03*
%TD*%
D14*
%TO.C,R28*%
X47450000Y-118787500D03*
X47450000Y-116962500D03*
%TD*%
%TO.C,R53*%
X47575000Y-155875000D03*
X47575000Y-154050000D03*
%TD*%
D45*
%TO.C,U8*%
X62575000Y-39425000D03*
X61575000Y-39425000D03*
X60575000Y-39425000D03*
X59575000Y-39425000D03*
X58575000Y-39425000D03*
X57575000Y-39425000D03*
X56575000Y-39425000D03*
X55575000Y-39425000D03*
X54575000Y-39425000D03*
X53575000Y-39425000D03*
X52575000Y-39425000D03*
X51575000Y-39425000D03*
X50575000Y-39425000D03*
X49575000Y-39425000D03*
X48575000Y-39425000D03*
X47575000Y-39425000D03*
X46575000Y-39425000D03*
D46*
X42675000Y-43325000D03*
X42675000Y-44325000D03*
X42675000Y-45325000D03*
X42675000Y-46325000D03*
X42675000Y-47325000D03*
X42675000Y-48325000D03*
X42675000Y-49325000D03*
X42675000Y-50325000D03*
X42675000Y-51325000D03*
X42675000Y-52325000D03*
X42675000Y-53325000D03*
X42675000Y-54325000D03*
X42675000Y-55325000D03*
X42675000Y-56325000D03*
X42675000Y-57325000D03*
X42675000Y-58325000D03*
X42675000Y-59325000D03*
D45*
X46575000Y-63225000D03*
X47575000Y-63225000D03*
X48575000Y-63225000D03*
X49575000Y-63225000D03*
X50575000Y-63225000D03*
X51575000Y-63225000D03*
X52575000Y-63225000D03*
X53575000Y-63225000D03*
X54575000Y-63225000D03*
X55575000Y-63225000D03*
X56575000Y-63225000D03*
X57575000Y-63225000D03*
X58575000Y-63225000D03*
X59575000Y-63225000D03*
X60575000Y-63225000D03*
X61575000Y-63225000D03*
X62575000Y-63225000D03*
D46*
X66275000Y-59325000D03*
X66375000Y-58325000D03*
X66375000Y-57325000D03*
X66375000Y-56325000D03*
X66375000Y-55325000D03*
X66375000Y-54325000D03*
X66375000Y-53325000D03*
X66375000Y-52325000D03*
X66375000Y-51325000D03*
X66375000Y-50325000D03*
X66375000Y-49325000D03*
X66375000Y-48325000D03*
X66375000Y-47325000D03*
X66375000Y-46325000D03*
X66375000Y-45325000D03*
X66375000Y-44325000D03*
X66375000Y-43325000D03*
D47*
X62175000Y-43725000D03*
X58375000Y-43725000D03*
X54575000Y-43725000D03*
X50775000Y-43725000D03*
X46975000Y-43725000D03*
X46975000Y-47525000D03*
X46975000Y-51325000D03*
X46975000Y-55125000D03*
X46975000Y-58925000D03*
X50775000Y-58925000D03*
X54575000Y-58925000D03*
X58375000Y-58925000D03*
X62175000Y-58925000D03*
X62175000Y-55125000D03*
X62175000Y-51325000D03*
X62175000Y-47525000D03*
X54575000Y-47525000D03*
X50775000Y-51325000D03*
X54575000Y-55125000D03*
X58375000Y-51325000D03*
%TD*%
D48*
%TO.C,Q4*%
X51212500Y-161137500D03*
X53112500Y-161137500D03*
X52162500Y-158862500D03*
%TD*%
D49*
%TO.C,D9*%
X43350000Y-70550000D03*
X46650000Y-70550000D03*
%TD*%
D50*
%TO.C,L1*%
X41050000Y-121200000D03*
X41050000Y-123325000D03*
%TD*%
D51*
%TO.C,U10*%
X55425000Y-154705000D03*
X55425000Y-153435000D03*
X55425000Y-152165000D03*
X55425000Y-150895000D03*
X50275000Y-150895000D03*
X50275000Y-152165000D03*
X50275000Y-153435000D03*
X50275000Y-154705000D03*
%TD*%
D28*
%TO.C,C9*%
X61850000Y-168212500D03*
X61850000Y-172837500D03*
%TD*%
D17*
%TO.C,R24*%
X54550000Y-78487500D03*
X54550000Y-80312500D03*
%TD*%
%TO.C,R17*%
X48650000Y-128775000D03*
X48650000Y-130600000D03*
%TD*%
D30*
%TO.C,Q11*%
X71200000Y-135227500D03*
X69300000Y-135227500D03*
X70250000Y-137102500D03*
%TD*%
D11*
%TO.C,C29*%
X69175000Y-59050000D03*
X71075000Y-59050000D03*
%TD*%
D26*
%TO.C,D10*%
X44800000Y-153100000D03*
X44800000Y-157100000D03*
%TD*%
D17*
%TO.C,R1*%
X53825000Y-177687500D03*
X53825000Y-179512500D03*
%TD*%
D11*
%TO.C,C26*%
X40950000Y-135575000D03*
X42850000Y-135575000D03*
%TD*%
D52*
%TO.C,R34*%
X40575000Y-97987500D03*
X40575000Y-96337500D03*
%TD*%
D17*
%TO.C,R58*%
X63800000Y-135012500D03*
X63800000Y-136837500D03*
%TD*%
D35*
%TO.C,Q14*%
X40300000Y-87537500D03*
X42200000Y-87537500D03*
X41250000Y-85662500D03*
%TD*%
D14*
%TO.C,R54*%
X47575000Y-152475000D03*
X47575000Y-150650000D03*
%TD*%
D17*
%TO.C,R14*%
X56000000Y-179825000D03*
X56000000Y-181650000D03*
%TD*%
D53*
%TO.C,D8*%
X41475000Y-168562500D03*
X37475000Y-168562500D03*
%TD*%
D14*
%TO.C,R44*%
X48050000Y-97737500D03*
X48050000Y-95912500D03*
%TD*%
D54*
%TO.C,U6*%
X39860000Y-126822500D03*
X39860000Y-128502500D03*
X41540000Y-126822500D03*
X41540000Y-128502500D03*
D55*
X38250000Y-126362500D03*
X38250000Y-127012500D03*
X38250000Y-127662500D03*
X38250000Y-128312500D03*
X38250000Y-128962500D03*
D56*
X39400000Y-130112500D03*
X40050000Y-130112500D03*
X40700000Y-130112500D03*
X41350000Y-130112500D03*
X42000000Y-130112500D03*
D55*
X43150000Y-128962500D03*
X43150000Y-128312500D03*
X43150000Y-127662500D03*
X43150000Y-127012500D03*
X43150000Y-126362500D03*
D56*
X42000000Y-125212500D03*
X41350000Y-125212500D03*
X40700000Y-125212500D03*
X40050000Y-125212500D03*
X39400000Y-125212500D03*
%TD*%
D20*
%TO.C,R12*%
X53075000Y-163000000D03*
X51250000Y-163000000D03*
%TD*%
D57*
%TO.C,C31*%
X49675000Y-71425000D03*
X49675000Y-76350000D03*
%TD*%
D17*
%TO.C,C4*%
X46700000Y-128762500D03*
X46700000Y-130587500D03*
%TD*%
%TO.C,R18*%
X47025000Y-177687500D03*
X47025000Y-179512500D03*
%TD*%
D58*
%TO.C,U3*%
X50425000Y-174387500D03*
X52725000Y-174387500D03*
D59*
X52725000Y-168087500D03*
D58*
X55025000Y-174387500D03*
%TD*%
D20*
%TO.C,R49*%
X60125000Y-155400000D03*
X58300000Y-155400000D03*
%TD*%
D60*
%TO.C,J7*%
X64000000Y-90625000D03*
X64000000Y-84375000D03*
X62000000Y-90625000D03*
X62000000Y-84375000D03*
X60000000Y-90625000D03*
X60000000Y-84375000D03*
X58000000Y-90625000D03*
X58000000Y-84375000D03*
X56000000Y-90625000D03*
X56000000Y-84375000D03*
X54000000Y-90625000D03*
X54000000Y-84375000D03*
X52000000Y-90625000D03*
X52000000Y-84375000D03*
X50000000Y-90625000D03*
X50000000Y-84375000D03*
%TD*%
D11*
%TO.C,C41*%
X67180000Y-128320000D03*
X69080000Y-128320000D03*
%TD*%
D14*
%TO.C,R10*%
X47025000Y-90462500D03*
X47025000Y-88637500D03*
%TD*%
D26*
%TO.C,D1*%
X72375000Y-179400000D03*
X72375000Y-183400000D03*
%TD*%
D20*
%TO.C,R40*%
X40150000Y-53900000D03*
X38325000Y-53900000D03*
%TD*%
D36*
%TO.C,F2*%
X37050200Y-153536200D03*
X37050200Y-157811200D03*
%TD*%
D35*
%TO.C,Q7*%
X44900000Y-86875000D03*
X46800000Y-86875000D03*
X45850000Y-85000000D03*
%TD*%
D61*
%TO.C,L2*%
X73300000Y-175175000D03*
X73300000Y-165475000D03*
%TD*%
D17*
%TO.C,R23*%
X54537500Y-75050000D03*
X54537500Y-76875000D03*
%TD*%
D11*
%TO.C,C45*%
X69175000Y-57075000D03*
X71075000Y-57075000D03*
%TD*%
D62*
%TO.C,D2*%
X48575000Y-163612500D03*
X48575000Y-159612500D03*
%TD*%
D17*
%TO.C,R7*%
X38800000Y-174150000D03*
X38800000Y-175975000D03*
%TD*%
D30*
%TO.C,Q1*%
X54025000Y-181587500D03*
X52125000Y-181587500D03*
X53075000Y-183462500D03*
%TD*%
D29*
%TO.C,C3*%
X75575000Y-95550000D03*
X75575000Y-93650000D03*
%TD*%
D32*
%TO.C,R65*%
X76437500Y-64425000D03*
X78262500Y-64425000D03*
%TD*%
D17*
%TO.C,R9*%
X56000000Y-176450000D03*
X56000000Y-178275000D03*
%TD*%
D14*
%TO.C,R60*%
X65700000Y-136837500D03*
X65700000Y-135012500D03*
%TD*%
%TO.C,R63*%
X65475000Y-142562500D03*
X65475000Y-140737500D03*
%TD*%
D63*
%TO.C,D6*%
X76450000Y-55250000D03*
X78325000Y-55250000D03*
%TD*%
D14*
%TO.C,R62*%
X67375000Y-142550000D03*
X67375000Y-140725000D03*
%TD*%
%TO.C,R55*%
X47575000Y-149062500D03*
X47575000Y-147237500D03*
%TD*%
D30*
%TO.C,Q13*%
X75025000Y-44975000D03*
X73125000Y-44975000D03*
X74075000Y-46850000D03*
%TD*%
D23*
%TO.C,Q9*%
X60387500Y-149825000D03*
X60387500Y-147925000D03*
X58512500Y-148875000D03*
%TD*%
D17*
%TO.C,R2*%
X43633332Y-177675000D03*
X43633332Y-179500000D03*
%TD*%
D64*
%TO.C,U1*%
X72715000Y-98915000D03*
X71445000Y-98915000D03*
X70175000Y-98915000D03*
X68905000Y-98915000D03*
X67635000Y-98915000D03*
X66365000Y-98915000D03*
X65095000Y-98915000D03*
X63825000Y-98915000D03*
X62555000Y-98915000D03*
X61285000Y-98915000D03*
X60015000Y-98915000D03*
X58745000Y-98915000D03*
X57475000Y-98915000D03*
X56205000Y-98915000D03*
D65*
X55205000Y-101700000D03*
X55205000Y-102970000D03*
X55205000Y-104240000D03*
X55205000Y-105510000D03*
X55205000Y-106780000D03*
X55205000Y-108050000D03*
X55205000Y-109320000D03*
X55205000Y-110590000D03*
X55205000Y-111860000D03*
X55205000Y-113130000D03*
D64*
X56205000Y-115915000D03*
X57475000Y-115915000D03*
X58745000Y-115915000D03*
X60015000Y-115915000D03*
X61285000Y-115915000D03*
X62555000Y-115915000D03*
X63825000Y-115915000D03*
X65095000Y-115915000D03*
X66365000Y-115915000D03*
X67635000Y-115915000D03*
X68905000Y-115915000D03*
X70175000Y-115915000D03*
X71445000Y-115915000D03*
X72715000Y-115915000D03*
D66*
X67050000Y-104580000D03*
X67050000Y-106415000D03*
X67050000Y-108250000D03*
X65215000Y-104580000D03*
X65215000Y-106415000D03*
X65215000Y-108250000D03*
X63380000Y-104580000D03*
X63380000Y-106415000D03*
X63380000Y-108250000D03*
%TD*%
D17*
%TO.C,R36*%
X36100000Y-126437500D03*
X36100000Y-128262500D03*
%TD*%
%TO.C,R38*%
X75025000Y-160212500D03*
X75025000Y-162037500D03*
%TD*%
D31*
%TO.C,C16*%
X51840000Y-129075000D03*
X51840000Y-130975000D03*
%TD*%
D35*
%TO.C,Q10*%
X60200000Y-137102500D03*
X62100000Y-137102500D03*
X61150000Y-135227500D03*
%TD*%
D30*
%TO.C,Q3*%
X43825000Y-181587500D03*
X41925000Y-181587500D03*
X42875000Y-183462500D03*
%TD*%
D32*
%TO.C,R37*%
X76450000Y-57200000D03*
X78275000Y-57200000D03*
%TD*%
D29*
%TO.C,R27*%
X45500000Y-118825000D03*
X45500000Y-116925000D03*
%TD*%
D67*
%TO.C,C40*%
X51950000Y-156575000D03*
X50050000Y-156575000D03*
%TD*%
D52*
%TO.C,C27*%
X40575000Y-95012500D03*
X40575000Y-93362500D03*
%TD*%
D20*
%TO.C,R52*%
X60150000Y-146200000D03*
X58325000Y-146200000D03*
%TD*%
D26*
%TO.C,D3*%
X60775000Y-182675000D03*
X60775000Y-186675000D03*
%TD*%
D28*
%TO.C,C10*%
X65000000Y-168212500D03*
X65000000Y-172837500D03*
%TD*%
D29*
%TO.C,C44*%
X64785000Y-125875000D03*
X64785000Y-123975000D03*
%TD*%
D17*
%TO.C,C13*%
X59250000Y-171037500D03*
X59250000Y-172862500D03*
%TD*%
D14*
%TO.C,R21*%
X73050000Y-40312500D03*
X73050000Y-38487500D03*
%TD*%
D20*
%TO.C,R15*%
X71312500Y-42050000D03*
X69487500Y-42050000D03*
%TD*%
D32*
%TO.C,R56*%
X67217500Y-132245000D03*
X69042500Y-132245000D03*
%TD*%
D68*
%TO.C,J15*%
X72150000Y-131525000D03*
X72150000Y-130725000D03*
D69*
X72150000Y-129575000D03*
X72150000Y-128575000D03*
X72150000Y-128075000D03*
X72150000Y-127075000D03*
D68*
X72150000Y-125925000D03*
X72150000Y-125125000D03*
X72150000Y-125125000D03*
X72150000Y-125925000D03*
D69*
X72150000Y-126575000D03*
X72150000Y-127575000D03*
X72150000Y-129075000D03*
X72150000Y-130075000D03*
D68*
X72150000Y-130725000D03*
X72150000Y-131525000D03*
%TD*%
D14*
%TO.C,R5*%
X54450000Y-120842500D03*
X54450000Y-119017500D03*
%TD*%
D17*
%TO.C,R31*%
X49425000Y-185525000D03*
X49425000Y-187350000D03*
%TD*%
D24*
%TO.C,C20*%
X69437500Y-61900000D03*
X74362500Y-61900000D03*
%TD*%
D17*
%TO.C,R6*%
X36875000Y-174150000D03*
X36875000Y-175975000D03*
%TD*%
D30*
%TO.C,Q8*%
X47225000Y-181587500D03*
X45325000Y-181587500D03*
X46275000Y-183462500D03*
%TD*%
M02*
