M48
; DRILL file {KiCad 7.0.2} date Mon May 22 14:06:54 2023
; FORMAT={-:-/ absolute / inch / decimal}
; #@! TF.CreationDate,2023-05-22T14:06:54+07:00
; #@! TF.GenerationSoftware,Kicad,Pcbnew,7.0.2
; #@! TF.FileFunction,MixedPlating,1,2
FMAT,2
INCH
; #@! TA.AperFunction,Plated,PTH,ComponentDrill
T1C0.0079
; #@! TA.AperFunction,Plated,PTH,ViaDrill
T2C0.0118
; #@! TA.AperFunction,Plated,PTH,ViaDrill
T3C0.0197
; #@! TA.AperFunction,Plated,PTH,ComponentDrill
T4C0.0197
; #@! TA.AperFunction,Plated,PTH,ComponentDrill
T5C0.0236
; #@! TA.AperFunction,Plated,PTH,ComponentDrill
T6C0.0256
; #@! TA.AperFunction,Plated,PTH,ComponentDrill
T7C0.0315
; #@! TA.AperFunction,Plated,PTH,ComponentDrill
T8C0.0374
; #@! TA.AperFunction,Plated,PTH,ComponentDrill
T9C0.0394
; #@! TA.AperFunction,Plated,PTH,ComponentDrill
T10C0.0469
; #@! TA.AperFunction,Plated,PTH,ComponentDrill
T11C0.0472
; #@! TA.AperFunction,NonPlated,NPTH,ComponentDrill
T12C0.0256
; #@! TA.AperFunction,NonPlated,NPTH,ComponentDrill
T13C0.0374
; #@! TA.AperFunction,NonPlated,NPTH,ComponentDrill
T14C0.1181
; #@! TA.AperFunction,NonPlated,NPTH,ComponentDrill
T15C0.1575
%
G90
G05
T1
X2.4953Y-4.1534
X2.4953Y-4.2257
X2.5314Y-4.1173
X2.5314Y-4.1896
X2.5314Y-4.2618
X2.5675Y-4.1534
X2.5675Y-4.2257
X2.6036Y-4.1173
X2.6036Y-4.1896
X2.6036Y-4.2618
X2.6398Y-4.1534
X2.6398Y-4.2257
T2
X1.3986Y-1.1575
X1.4016Y-0.9754
X1.4035Y-0.8927
X1.4065Y-1.064
X1.4321Y-2.377
X1.4331Y-1.1821
X1.4409Y-3.3081
X1.4429Y-6.7854
X1.4557Y-5.1348
X1.4616Y-1.2795
X1.4902Y-2.5758
X1.4951Y-1.1211
X1.5167Y-1.8297
X1.5236Y-2.8553
X1.5512Y-2.5758
X1.5571Y-1.4006
X1.5719Y-1.4439
X1.5984Y-1.8278
X1.6378Y-2.5354
X1.6388Y-7.2018
X1.6407Y-6.9114
X1.6467Y-4.7224
X1.6535Y-3.7293
X1.6929Y-1.4065
X1.6969Y-2.6201
X1.6978Y-3.2982
X1.7077Y-4.375
X1.7096Y-3.3986
X1.7106Y-3.5108
X1.7146Y-4.6329
X1.7401Y-4.6624
X1.7411Y-7.377
X1.7451Y-2.1811
X1.7549Y-5.0768
X1.7579Y-4.9154
X1.7608Y-2.311
X1.7638Y-3.9193
X1.7648Y-3.6339
X1.7677Y-7.2018
X1.7756Y-4.2628
X1.7789Y-6.8937
X1.8031Y-6.5679
X1.8061Y-4.2854
X1.811Y-6.9134
X1.813Y-4.2254
X1.8238Y-3.8317
X1.8307Y-3.6978
X1.8356Y-3.9114
X1.8366Y-6.5679
X1.8455Y-4.8376
X1.8514Y-6.9439
X1.872Y-5.9006
X1.874Y-6.5679
X1.8819Y-6.8474
X1.8868Y-4.1723
X1.8878Y-1.2116
X1.8907Y-1.0896
X1.8907Y-1.1417
X1.8947Y-4.4134
X1.8976Y-4.3169
X1.9006Y-1.3307
X1.9016Y-1.2854
X1.9035Y-4.8917
X1.9035Y-6.8986
X1.9075Y-7.2008
X1.9134Y-6.5679
X1.9173Y-5.3386
X1.9222Y-6.8091
X1.9232Y-6.0246
X1.9537Y-5.7461
X1.9547Y-4.937
X1.9557Y-6.7648
X1.9902Y-2.5433
X1.9911Y-6.9429
X2.0217Y-3.8189
X2.0285Y-4.7559
X2.0354Y-2.874
X2.0433Y-5.0305
X2.0512Y-6.0915
X2.0522Y-7.2018
X2.0925Y-4.4035
X2.0955Y-4.2352
X2.1043Y-4.1152
X2.1093Y-2.8583
X2.1093Y-2.8907
X2.1112Y-6.94
X2.1289Y-6.4616
X2.1299Y-7.2313
X2.1417Y-3.7343
X2.1486Y-5.7303
X2.1496Y-2.7392
X2.1579Y-6.2424
X2.1683Y-6.1388
X2.1752Y-6.2933
X2.1762Y-6.3701
X2.1781Y-6.4518
X2.1841Y-6.5925
X2.186Y-2.8868
X2.1949Y-4.9311
X2.2026Y-6.2285
X2.2047Y-3.6841
X2.2195Y-4.8031
X2.2244Y-5.1644
X2.2392Y-1.4222
X2.2431Y-6.627
X2.2549Y-6.4301
X2.2569Y-6.8593
X2.2697Y-4.7894
X2.2726Y-3.8081
X2.2726Y-5.1654
X2.2815Y-1.4222
X2.2835Y-3.497
X2.2844Y-3.686
X2.2894Y-6.565
X2.2963Y-6.5167
X2.2992Y-4.1181
X2.3061Y-4.7156
X2.3169Y-3.1545
X2.3169Y-5.0551
X2.3199Y-4.6378
X2.3219Y-3.8228
X2.3258Y-3.1949
X2.3307Y-5.2953
X2.3376Y-2.6142
X2.3567Y-4.1756
X2.3612Y-2.5837
X2.3632Y-3.687
X2.3632Y-4.0335
X2.3681Y-5.3346
X2.3691Y-1.4203
X2.3691Y-4.876
X2.376Y-3.2037
X2.3898Y-7.126
X2.3906Y-4.8395
X2.4006Y-6.0463
X2.4045Y-6.1555
X2.4055Y-3.9764
X2.4055Y-5.7667
X2.4058Y-5.5814
X2.4094Y-5.2717
X2.4142Y-5.8254
X2.4164Y-5.9656
X2.4164Y-6.1201
X2.4173Y-4.815
X2.4232Y-4.9242
X2.4528Y-7.1919
X2.4547Y-1.4183
X2.4708Y-5.3041
X2.4724Y-5.8337
X2.4941Y-4.6388
X2.5118Y-3.9862
X2.5128Y-4.502
X2.5531Y-4.7963
X2.5531Y-7.4331
X2.563Y-3.8022
X2.5797Y-4.6417
X2.5846Y-5.4341
X2.5984Y-3.9961
X2.6042Y-5.1138
X2.6053Y-1.3563
X2.6053Y-5.0817
X2.6053Y-5.6732
X2.6073Y-4.4656
X2.6083Y-5.8317
X2.6102Y-5.7854
X2.6122Y-2.437
X2.625Y-3.7687
X2.6348Y-3.4488
X2.6368Y-6.5955
X2.6466Y-5.6999
X2.6516Y-5.7854
X2.6565Y-5.8278
X2.6575Y-3.7274
X2.658Y-5.4296
X2.6604Y-3.6467
X2.6634Y-2.3356
X2.6644Y-6.8061
X2.6673Y-4.7028
X2.6722Y-7.0472
X2.6801Y-1.9764
X2.687Y-1.9508
X2.688Y-6.6388
X2.69Y-1.9104
X2.69Y-3.999
X2.6978Y-5.9842
X2.7018Y-1.7175
X2.7057Y-6.1388
X2.7067Y-6.0472
X2.7106Y-4.7047
X2.7215Y-5.9587
X2.7274Y-1.9646
X2.7293Y-3.3524
X2.7303Y-3.9911
X2.7343Y-4.4272
X2.7441Y-6.5955
X2.7608Y-1.9213
X2.7628Y-4.6339
X2.7648Y-5.4478
X2.7657Y-4.0778
X2.7667Y-3.3858
X2.7672Y-6.6388
X2.7674Y-5.0806
X2.7844Y-1.9656
X2.7904Y-5.0423
X2.7982Y-2.2087
X2.81Y-4.6535
X2.81Y-6.2421
X2.8455Y-2.0846
X2.8465Y-6.6388
X2.8612Y-1.9026
X2.8612Y-2.1378
X2.8642Y-2.1772
X2.874Y-1.6683
X2.9035Y-5.4902
X2.9035Y-6.2402
X2.9075Y-2.1457
X2.9252Y-5.873
X2.9257Y-6.6388
X2.9272Y-2.2923
X2.9331Y-1.9055
X2.9705Y-5.7018
X3.0039Y-2.4026
X3.0049Y-1.997
X3.0049Y-6.6388
X3.0069Y-6.2323
X3.0197Y-6.4754
X3.0197Y-6.5591
X3.0246Y-1.9203
X3.0295Y-6.1417
X3.0305Y-1.9734
X3.0423Y-4.7008
X3.0522Y-5.9242
X3.0709Y-5.6988
X3.0758Y-2.0896
X3.1201Y-5.9862
X3.125Y-5.8583
T3
X1.4081Y-5.5768
X1.4163Y-2.5217
X1.4163Y-2.6096
X1.4163Y-2.6975
X1.4163Y-2.7854
X1.4203Y-2.8819
X1.4203Y-2.9698
X1.4203Y-3.0577
X1.4203Y-3.1457
X1.4262Y-4.7057
X1.4311Y-4.6201
X1.4321Y-4.1201
X1.4321Y-4.208
X1.4321Y-4.2959
X1.4321Y-4.3839
X1.4469Y-2.4183
X1.4514Y-7.0157
X1.4583Y-7.3022
X1.4675Y-2.1929
X1.4928Y-6.5453
X1.4961Y-5.5768
X1.4977Y-6.4449
X1.5125Y-6.1341
X1.5148Y-6.7569
X1.5167Y-1.3914
X1.5167Y-1.4793
X1.5256Y-3.0217
X1.5256Y-3.1096
X1.5256Y-3.1975
X1.5256Y-3.2854
X1.5394Y-7.0157
X1.5463Y-7.3022
X1.5561Y-1.9252
X1.5571Y-1.9843
X1.5581Y-1.3366
X1.5591Y-1.8583
X1.5607Y-5.8612
X1.5758Y-4.7087
X1.5804Y-5.5787
X1.5807Y-4.1191
X1.5807Y-4.207
X1.5807Y-4.2949
X1.5807Y-4.3829
X1.5807Y-4.623
X1.5807Y-6.5453
X1.5856Y-6.4449
X1.6004Y-6.1341
X1.624Y-0.9026
X1.6289Y-1.0354
X1.6342Y-7.3022
X1.6486Y-5.8612
X1.6634Y-2.6703
X1.6683Y-5.5787
X1.6811Y-1.5666
X1.6811Y-1.6545
X1.6988Y-4.9193
X1.7119Y-0.9026
X1.7169Y-1.0354
X1.7411Y-5.1339
X1.7441Y-2.4911
X1.75Y-2.4104
X1.7513Y-2.6703
X1.7674Y-5.5758
X1.7697Y-1.3593
X1.7717Y-1.31
X1.7841Y-4.1102
X1.7999Y-0.9026
X1.8048Y-1.0354
X1.8379Y-2.4104
X1.8386Y-5.3396
X1.8392Y-2.6703
X1.8514Y-5.4245
X1.8553Y-5.5758
X1.872Y-4.1102
X1.8799Y-1.3898
X1.8878Y-0.9026
X1.8927Y-1.0354
X1.9242Y-2.0197
X1.9242Y-2.1076
X1.9242Y-2.1955
X1.9242Y-2.2835
X1.9252Y-1.6417
X1.9252Y-1.7297
X1.9252Y-1.8176
X1.9252Y-1.9055
X1.9259Y-2.4104
X1.9272Y-2.6703
X1.9678Y-1.3898
X2.0138Y-2.4104
X2.0394Y-0.9508
X2.0394Y-1.0387
X2.0394Y-1.1266
X2.0394Y-1.2146
X2.0531Y-3.4281
X2.0558Y-1.3898
X2.0758Y-2.0207
X2.0758Y-2.1086
X2.0758Y-2.1965
X2.0758Y-2.2844
X2.0768Y-1.6407
X2.0768Y-1.7287
X2.0768Y-1.8166
X2.0768Y-1.9045
X2.1437Y-1.3898
X2.1486Y-2.4085
X2.1526Y-0.9478
X2.1526Y-1.0358
X2.1526Y-1.1237
X2.1526Y-1.2116
X2.2018Y-7.2428
X2.2018Y-7.3307
X2.2018Y-7.4186
X2.249Y-0.9793
X2.2904Y-7.1778
X2.2904Y-7.2657
X2.2904Y-7.3537
X2.3287Y-1.2766
X2.3369Y-0.9793
X2.373Y-2.1565
X2.373Y-2.2444
X2.373Y-2.3323
X2.373Y-2.4203
X2.374Y-1.812
X2.374Y-1.8999
X2.374Y-1.9879
X2.374Y-2.0758
X2.3829Y-1.6289
X2.4249Y-0.9793
X2.4478Y-6.7254
X2.4708Y-1.6289
X2.4977Y-6.5187
X2.5128Y-0.9793
X2.5135Y-7.2835
X2.5305Y-1.7687
X2.5305Y-1.8566
X2.5305Y-1.9446
X2.5305Y-2.0325
X2.5315Y-2.5138
X2.5325Y-2.1201
X2.5325Y-2.208
X2.5325Y-2.2959
X2.5325Y-2.3839
X2.5354Y-2.8022
X2.5354Y-2.8598
X2.5354Y-2.9175
X2.5354Y-2.9752
X2.5354Y-3.0329
X2.5354Y-3.0906
X2.5358Y-6.7254
X2.5413Y-1.4636
X2.5587Y-1.6289
X2.5663Y-7.001
X2.5856Y-6.5187
X2.5932Y-6.3878
X2.6014Y-7.2835
X2.6073Y-2.8051
X2.6073Y-2.8628
X2.6073Y-2.9205
X2.6073Y-2.9781
X2.6073Y-3.0358
X2.6073Y-3.0935
X2.6086Y-7.128
X2.6237Y-6.7254
X2.6293Y-1.4636
X2.6467Y-1.6289
X2.6542Y-7.001
X2.6555Y-0.9163
X2.6555Y-1.0043
X2.6555Y-1.0922
X2.6555Y-1.1801
X2.6722Y-2.8071
X2.6722Y-2.8648
X2.6722Y-2.9224
X2.6722Y-2.9801
X2.6722Y-3.0378
X2.6722Y-3.0955
X2.6736Y-6.5187
X2.6811Y-6.3878
X2.689Y-3.2146
X2.6893Y-7.2835
X2.6926Y-6.7943
X2.6965Y-7.128
X2.7116Y-6.7254
X2.7172Y-1.4636
X2.7195Y-1.3937
X2.7195Y-2.622
X2.7421Y-7.001
X2.751Y-2.8022
X2.751Y-2.8598
X2.751Y-2.9175
X2.751Y-2.9752
X2.751Y-3.0329
X2.751Y-3.0906
X2.7677Y-6.6949
X2.768Y-2.5335
X2.769Y-6.3878
X2.7785Y-0.94
X2.7785Y-1.0279
X2.7785Y-1.1158
X2.7785Y-1.2037
X2.7805Y-6.7943
X2.7844Y-7.128
X2.8051Y-1.4636
X2.8189Y-3.4833
X2.8189Y-3.5778
X2.8278Y-7.5955
X2.8386Y-4.752
X2.8556Y-6.6949
X2.856Y-2.5335
X2.8684Y-6.7943
X2.8701Y-3.9728
X2.8701Y-4.0607
X2.8701Y-4.1486
X2.8701Y-4.2205
X2.8701Y-4.3084
X2.8701Y-4.3963
X2.8701Y-4.4843
X2.8848Y-1.0049
X2.8848Y-1.0928
X2.8848Y-1.1808
X2.8848Y-1.2687
X2.9157Y-7.5955
X2.9163Y-2.8829
X2.9265Y-4.752
X2.9436Y-6.6949
X2.9439Y-2.5335
X2.9469Y-5.2707
X2.9469Y-5.3586
X2.9469Y-5.4465
X2.9469Y-5.5344
X2.9564Y-6.7943
X2.9724Y-1.5043
X2.9724Y-1.5922
X2.9724Y-1.6801
X2.9734Y-4.9629
X2.9734Y-5.0509
X2.9734Y-5.1388
X3.0036Y-7.5955
X3.0059Y-1.0738
X3.0059Y-1.1617
X3.0059Y-1.2497
X3.0059Y-1.3376
X3.0118Y-2.876
X3.0144Y-4.752
X3.0315Y-6.6949
X3.0561Y-1.5456
X3.0561Y-1.6335
X3.0561Y-1.7215
X3.0728Y-5.2707
X3.0728Y-5.3586
X3.0728Y-5.4465
X3.0728Y-5.5344
X3.0768Y-4.9193
X3.0768Y-5.0072
X3.0768Y-5.0951
X3.0768Y-5.1831
X3.0915Y-7.5955
X3.1122Y-7.2513
X3.1122Y-7.3392
X3.1122Y-7.4272
X3.1122Y-7.5151
X3.122Y-3.1998
X3.122Y-3.2877
X3.122Y-3.3757
X3.122Y-3.4636
X3.122Y-3.5581
X3.122Y-3.646
X3.122Y-3.7339
X3.122Y-3.8219
X3.125Y-2.9472
X3.125Y-3.0351
X3.125Y-3.123
X3.128Y-1.1457
X3.128Y-1.2336
X3.128Y-1.3215
X3.128Y-1.4094
X3.1289Y-6.8658
X3.1289Y-6.9537
X3.1289Y-7.0417
X3.1289Y-7.1296
T4
X1.6063Y-6.7825
X1.6555Y-6.7825
X2.1317Y-5.5404
X2.2065Y-5.5404
T6
X1.8209Y-1.123
X1.8209Y-1.173
X1.8209Y-1.223
X1.8209Y-1.273
X1.8209Y-1.323
X1.8209Y-1.373
T7
X2.8711Y-6.0925
X2.9498Y-6.0925
X3.0354Y-5.6102
X3.0354Y-5.8024
T8
X1.499Y-5.4805
X1.5256Y-6.3287
X1.5974Y-5.4805
X1.624Y-6.3287
X1.6959Y-5.4805
X1.7224Y-6.3287
X1.7943Y-5.4805
T9
X1.627Y-2.9291
X1.627Y-3.2283
X2.2549Y-6.3278
X2.3533Y-6.3278
X2.4547Y-7.563
X2.5531Y-7.563
X2.6171Y-6.0972
X2.6171Y-6.1972
X2.6171Y-6.2972
X2.6516Y-7.563
X2.75Y-7.563
X3.0335Y-2.9736
X3.0335Y-3.0736
X3.0335Y-3.1736
X3.0335Y-3.2736
T10
X1.7667Y-7.5453
X1.8667Y-7.5453
X1.9667Y-7.5453
X2.0667Y-7.5453
X2.1667Y-7.5453
X2.2667Y-7.5453
T11
X1.8661Y-4.9862
X2.1575Y-4.9862
T12
X2.8829Y-4.9384
X2.8829Y-5.1659
T13
X2.1634Y-0.894
X2.4311Y-0.894
T14
X1.5157Y-0.9843
X1.5157Y-7.1457
X3.0315Y-0.9843
X3.0315Y-7.1457
T15
X1.5551Y-2.7165
X1.5551Y-7.4606
X2.9724Y-2.7165
X2.9724Y-3.4843
X2.9724Y-7.4606
T5
G00X2.8415Y-4.8821
M15
G01X2.8848Y-4.8821
M16
G05
G00X2.8415Y-5.2222
M15
G01X2.8848Y-5.2222
M16
G05
G00X3.012Y-4.8821
M15
G01X3.0435Y-4.8821
M16
G05
G00X3.012Y-5.2222
M15
G01X3.0435Y-5.2222
M16
G05
T0
M30
