%TF.GenerationSoftware,KiCad,Pcbnew,7.0.2*%
%TF.CreationDate,2023-05-22T14:24:39+07:00*%
%TF.ProjectId,ph_portable_refrigerator_display_hw_v2,70685f70-6f72-4746-9162-6c655f726566,rev?*%
%TF.SameCoordinates,Original*%
%TF.FileFunction,Legend,Bot*%
%TF.FilePolarity,Positive*%
%FSLAX46Y46*%
G04 Gerber Fmt 4.6, Leading zero omitted, Abs format (unit mm)*
G04 Created by KiCad (PCBNEW 7.0.2) date 2023-05-22 14:24:39*
%MOMM*%
%LPD*%
G01*
G04 APERTURE LIST*
%ADD10C,0.150000*%
%ADD11C,0.100000*%
%ADD12C,0.120000*%
G04 APERTURE END LIST*
D10*
X67900904Y-92952380D02*
X67939000Y-92990476D01*
X67939000Y-92990476D02*
X67977095Y-93104761D01*
X67977095Y-93104761D02*
X67977095Y-93180952D01*
X67977095Y-93180952D02*
X67939000Y-93295238D01*
X67939000Y-93295238D02*
X67862809Y-93371428D01*
X67862809Y-93371428D02*
X67786619Y-93409523D01*
X67786619Y-93409523D02*
X67634238Y-93447619D01*
X67634238Y-93447619D02*
X67519952Y-93447619D01*
X67519952Y-93447619D02*
X67367571Y-93409523D01*
X67367571Y-93409523D02*
X67291380Y-93371428D01*
X67291380Y-93371428D02*
X67215190Y-93295238D01*
X67215190Y-93295238D02*
X67177095Y-93180952D01*
X67177095Y-93180952D02*
X67177095Y-93104761D01*
X67177095Y-93104761D02*
X67215190Y-92990476D01*
X67215190Y-92990476D02*
X67253285Y-92952380D01*
X67977095Y-92495238D02*
X67939000Y-92571428D01*
X67939000Y-92571428D02*
X67900904Y-92609523D01*
X67900904Y-92609523D02*
X67824714Y-92647619D01*
X67824714Y-92647619D02*
X67596142Y-92647619D01*
X67596142Y-92647619D02*
X67519952Y-92609523D01*
X67519952Y-92609523D02*
X67481857Y-92571428D01*
X67481857Y-92571428D02*
X67443761Y-92495238D01*
X67443761Y-92495238D02*
X67443761Y-92380952D01*
X67443761Y-92380952D02*
X67481857Y-92304761D01*
X67481857Y-92304761D02*
X67519952Y-92266666D01*
X67519952Y-92266666D02*
X67596142Y-92228571D01*
X67596142Y-92228571D02*
X67824714Y-92228571D01*
X67824714Y-92228571D02*
X67900904Y-92266666D01*
X67900904Y-92266666D02*
X67939000Y-92304761D01*
X67939000Y-92304761D02*
X67977095Y-92380952D01*
X67977095Y-92380952D02*
X67977095Y-92495238D01*
X67443761Y-91885713D02*
X67977095Y-91885713D01*
X67519952Y-91885713D02*
X67481857Y-91847618D01*
X67481857Y-91847618D02*
X67443761Y-91771428D01*
X67443761Y-91771428D02*
X67443761Y-91657142D01*
X67443761Y-91657142D02*
X67481857Y-91580951D01*
X67481857Y-91580951D02*
X67558047Y-91542856D01*
X67558047Y-91542856D02*
X67977095Y-91542856D01*
X67443761Y-91161903D02*
X67977095Y-91161903D01*
X67519952Y-91161903D02*
X67481857Y-91123808D01*
X67481857Y-91123808D02*
X67443761Y-91047618D01*
X67443761Y-91047618D02*
X67443761Y-90933332D01*
X67443761Y-90933332D02*
X67481857Y-90857141D01*
X67481857Y-90857141D02*
X67558047Y-90819046D01*
X67558047Y-90819046D02*
X67977095Y-90819046D01*
X67939000Y-90133331D02*
X67977095Y-90209522D01*
X67977095Y-90209522D02*
X67977095Y-90361903D01*
X67977095Y-90361903D02*
X67939000Y-90438093D01*
X67939000Y-90438093D02*
X67862809Y-90476189D01*
X67862809Y-90476189D02*
X67558047Y-90476189D01*
X67558047Y-90476189D02*
X67481857Y-90438093D01*
X67481857Y-90438093D02*
X67443761Y-90361903D01*
X67443761Y-90361903D02*
X67443761Y-90209522D01*
X67443761Y-90209522D02*
X67481857Y-90133331D01*
X67481857Y-90133331D02*
X67558047Y-90095236D01*
X67558047Y-90095236D02*
X67634238Y-90095236D01*
X67634238Y-90095236D02*
X67710428Y-90476189D01*
X67939000Y-89409522D02*
X67977095Y-89485713D01*
X67977095Y-89485713D02*
X67977095Y-89638094D01*
X67977095Y-89638094D02*
X67939000Y-89714284D01*
X67939000Y-89714284D02*
X67900904Y-89752379D01*
X67900904Y-89752379D02*
X67824714Y-89790475D01*
X67824714Y-89790475D02*
X67596142Y-89790475D01*
X67596142Y-89790475D02*
X67519952Y-89752379D01*
X67519952Y-89752379D02*
X67481857Y-89714284D01*
X67481857Y-89714284D02*
X67443761Y-89638094D01*
X67443761Y-89638094D02*
X67443761Y-89485713D01*
X67443761Y-89485713D02*
X67481857Y-89409522D01*
X67443761Y-89180951D02*
X67443761Y-88876189D01*
X67177095Y-89066665D02*
X67862809Y-89066665D01*
X67862809Y-89066665D02*
X67939000Y-89028570D01*
X67939000Y-89028570D02*
X67977095Y-88952380D01*
X67977095Y-88952380D02*
X67977095Y-88876189D01*
X67977095Y-87999998D02*
X67177095Y-87999998D01*
X67481857Y-87999998D02*
X67443761Y-87923808D01*
X67443761Y-87923808D02*
X67443761Y-87771427D01*
X67443761Y-87771427D02*
X67481857Y-87695236D01*
X67481857Y-87695236D02*
X67519952Y-87657141D01*
X67519952Y-87657141D02*
X67596142Y-87619046D01*
X67596142Y-87619046D02*
X67824714Y-87619046D01*
X67824714Y-87619046D02*
X67900904Y-87657141D01*
X67900904Y-87657141D02*
X67939000Y-87695236D01*
X67939000Y-87695236D02*
X67977095Y-87771427D01*
X67977095Y-87771427D02*
X67977095Y-87923808D01*
X67977095Y-87923808D02*
X67939000Y-87999998D01*
X67977095Y-87161903D02*
X67939000Y-87238093D01*
X67939000Y-87238093D02*
X67900904Y-87276188D01*
X67900904Y-87276188D02*
X67824714Y-87314284D01*
X67824714Y-87314284D02*
X67596142Y-87314284D01*
X67596142Y-87314284D02*
X67519952Y-87276188D01*
X67519952Y-87276188D02*
X67481857Y-87238093D01*
X67481857Y-87238093D02*
X67443761Y-87161903D01*
X67443761Y-87161903D02*
X67443761Y-87047617D01*
X67443761Y-87047617D02*
X67481857Y-86971426D01*
X67481857Y-86971426D02*
X67519952Y-86933331D01*
X67519952Y-86933331D02*
X67596142Y-86895236D01*
X67596142Y-86895236D02*
X67824714Y-86895236D01*
X67824714Y-86895236D02*
X67900904Y-86933331D01*
X67900904Y-86933331D02*
X67939000Y-86971426D01*
X67939000Y-86971426D02*
X67977095Y-87047617D01*
X67977095Y-87047617D02*
X67977095Y-87161903D01*
X67977095Y-86209521D02*
X67558047Y-86209521D01*
X67558047Y-86209521D02*
X67481857Y-86247616D01*
X67481857Y-86247616D02*
X67443761Y-86323807D01*
X67443761Y-86323807D02*
X67443761Y-86476188D01*
X67443761Y-86476188D02*
X67481857Y-86552378D01*
X67939000Y-86209521D02*
X67977095Y-86285712D01*
X67977095Y-86285712D02*
X67977095Y-86476188D01*
X67977095Y-86476188D02*
X67939000Y-86552378D01*
X67939000Y-86552378D02*
X67862809Y-86590474D01*
X67862809Y-86590474D02*
X67786619Y-86590474D01*
X67786619Y-86590474D02*
X67710428Y-86552378D01*
X67710428Y-86552378D02*
X67672333Y-86476188D01*
X67672333Y-86476188D02*
X67672333Y-86285712D01*
X67672333Y-86285712D02*
X67634238Y-86209521D01*
X67977095Y-85828568D02*
X67443761Y-85828568D01*
X67596142Y-85828568D02*
X67519952Y-85790473D01*
X67519952Y-85790473D02*
X67481857Y-85752378D01*
X67481857Y-85752378D02*
X67443761Y-85676187D01*
X67443761Y-85676187D02*
X67443761Y-85599997D01*
X67977095Y-84990473D02*
X67177095Y-84990473D01*
X67939000Y-84990473D02*
X67977095Y-85066664D01*
X67977095Y-85066664D02*
X67977095Y-85219045D01*
X67977095Y-85219045D02*
X67939000Y-85295235D01*
X67939000Y-85295235D02*
X67900904Y-85333330D01*
X67900904Y-85333330D02*
X67824714Y-85371426D01*
X67824714Y-85371426D02*
X67596142Y-85371426D01*
X67596142Y-85371426D02*
X67519952Y-85333330D01*
X67519952Y-85333330D02*
X67481857Y-85295235D01*
X67481857Y-85295235D02*
X67443761Y-85219045D01*
X67443761Y-85219045D02*
X67443761Y-85066664D01*
X67443761Y-85066664D02*
X67481857Y-84990473D01*
X67977095Y-83999996D02*
X67177095Y-83999996D01*
X67177095Y-83999996D02*
X67748523Y-83733330D01*
X67748523Y-83733330D02*
X67177095Y-83466663D01*
X67177095Y-83466663D02*
X67977095Y-83466663D01*
X67900904Y-82628567D02*
X67939000Y-82666663D01*
X67939000Y-82666663D02*
X67977095Y-82780948D01*
X67977095Y-82780948D02*
X67977095Y-82857139D01*
X67977095Y-82857139D02*
X67939000Y-82971425D01*
X67939000Y-82971425D02*
X67862809Y-83047615D01*
X67862809Y-83047615D02*
X67786619Y-83085710D01*
X67786619Y-83085710D02*
X67634238Y-83123806D01*
X67634238Y-83123806D02*
X67519952Y-83123806D01*
X67519952Y-83123806D02*
X67367571Y-83085710D01*
X67367571Y-83085710D02*
X67291380Y-83047615D01*
X67291380Y-83047615D02*
X67215190Y-82971425D01*
X67215190Y-82971425D02*
X67177095Y-82857139D01*
X67177095Y-82857139D02*
X67177095Y-82780948D01*
X67177095Y-82780948D02*
X67215190Y-82666663D01*
X67215190Y-82666663D02*
X67253285Y-82628567D01*
X67177095Y-82285710D02*
X67824714Y-82285710D01*
X67824714Y-82285710D02*
X67900904Y-82247615D01*
X67900904Y-82247615D02*
X67939000Y-82209520D01*
X67939000Y-82209520D02*
X67977095Y-82133329D01*
X67977095Y-82133329D02*
X67977095Y-81980948D01*
X67977095Y-81980948D02*
X67939000Y-81904758D01*
X67939000Y-81904758D02*
X67900904Y-81866663D01*
X67900904Y-81866663D02*
X67824714Y-81828567D01*
X67824714Y-81828567D02*
X67177095Y-81828567D01*
X61547666Y-81916666D02*
X61514333Y-81983333D01*
X61514333Y-81983333D02*
X61514333Y-82083333D01*
X61514333Y-82083333D02*
X61547666Y-82183333D01*
X61547666Y-82183333D02*
X61614333Y-82250000D01*
X61614333Y-82250000D02*
X61681000Y-82283333D01*
X61681000Y-82283333D02*
X61814333Y-82316666D01*
X61814333Y-82316666D02*
X61914333Y-82316666D01*
X61914333Y-82316666D02*
X62047666Y-82283333D01*
X62047666Y-82283333D02*
X62114333Y-82250000D01*
X62114333Y-82250000D02*
X62181000Y-82183333D01*
X62181000Y-82183333D02*
X62214333Y-82083333D01*
X62214333Y-82083333D02*
X62214333Y-82016666D01*
X62214333Y-82016666D02*
X62181000Y-81916666D01*
X62181000Y-81916666D02*
X62147666Y-81883333D01*
X62147666Y-81883333D02*
X61914333Y-81883333D01*
X61914333Y-81883333D02*
X61914333Y-82016666D01*
X62214333Y-81583333D02*
X61514333Y-81583333D01*
X61514333Y-81583333D02*
X62214333Y-81183333D01*
X62214333Y-81183333D02*
X61514333Y-81183333D01*
X62214333Y-80850000D02*
X61514333Y-80850000D01*
X61514333Y-80850000D02*
X61514333Y-80683333D01*
X61514333Y-80683333D02*
X61547666Y-80583333D01*
X61547666Y-80583333D02*
X61614333Y-80516667D01*
X61614333Y-80516667D02*
X61681000Y-80483333D01*
X61681000Y-80483333D02*
X61814333Y-80450000D01*
X61814333Y-80450000D02*
X61914333Y-80450000D01*
X61914333Y-80450000D02*
X62047666Y-80483333D01*
X62047666Y-80483333D02*
X62114333Y-80516667D01*
X62114333Y-80516667D02*
X62181000Y-80583333D01*
X62181000Y-80583333D02*
X62214333Y-80683333D01*
X62214333Y-80683333D02*
X62214333Y-80850000D01*
X56264333Y-82283333D02*
X55564333Y-82283333D01*
X56331000Y-81483333D02*
X56297666Y-81550000D01*
X56297666Y-81550000D02*
X56231000Y-81616667D01*
X56231000Y-81616667D02*
X56131000Y-81716667D01*
X56131000Y-81716667D02*
X56097666Y-81783333D01*
X56097666Y-81783333D02*
X56097666Y-81850000D01*
X56264333Y-81816667D02*
X56231000Y-81883333D01*
X56231000Y-81883333D02*
X56164333Y-81950000D01*
X56164333Y-81950000D02*
X56031000Y-81983333D01*
X56031000Y-81983333D02*
X55797666Y-81983333D01*
X55797666Y-81983333D02*
X55664333Y-81950000D01*
X55664333Y-81950000D02*
X55597666Y-81883333D01*
X55597666Y-81883333D02*
X55564333Y-81816667D01*
X55564333Y-81816667D02*
X55564333Y-81683333D01*
X55564333Y-81683333D02*
X55597666Y-81616667D01*
X55597666Y-81616667D02*
X55664333Y-81550000D01*
X55664333Y-81550000D02*
X55797666Y-81516667D01*
X55797666Y-81516667D02*
X56031000Y-81516667D01*
X56031000Y-81516667D02*
X56164333Y-81550000D01*
X56164333Y-81550000D02*
X56231000Y-81616667D01*
X56231000Y-81616667D02*
X56264333Y-81683333D01*
X56264333Y-81683333D02*
X56264333Y-81816667D01*
X56264333Y-80816667D02*
X55931000Y-81050000D01*
X56264333Y-81216667D02*
X55564333Y-81216667D01*
X55564333Y-81216667D02*
X55564333Y-80950000D01*
X55564333Y-80950000D02*
X55597666Y-80883334D01*
X55597666Y-80883334D02*
X55631000Y-80850000D01*
X55631000Y-80850000D02*
X55697666Y-80816667D01*
X55697666Y-80816667D02*
X55797666Y-80816667D01*
X55797666Y-80816667D02*
X55864333Y-80850000D01*
X55864333Y-80850000D02*
X55897666Y-80883334D01*
X55897666Y-80883334D02*
X55931000Y-80950000D01*
X55931000Y-80950000D02*
X55931000Y-81216667D01*
X58356000Y-82316666D02*
X58389333Y-82216666D01*
X58389333Y-82216666D02*
X58389333Y-82050000D01*
X58389333Y-82050000D02*
X58356000Y-81983333D01*
X58356000Y-81983333D02*
X58322666Y-81950000D01*
X58322666Y-81950000D02*
X58256000Y-81916666D01*
X58256000Y-81916666D02*
X58189333Y-81916666D01*
X58189333Y-81916666D02*
X58122666Y-81950000D01*
X58122666Y-81950000D02*
X58089333Y-81983333D01*
X58089333Y-81983333D02*
X58056000Y-82050000D01*
X58056000Y-82050000D02*
X58022666Y-82183333D01*
X58022666Y-82183333D02*
X57989333Y-82250000D01*
X57989333Y-82250000D02*
X57956000Y-82283333D01*
X57956000Y-82283333D02*
X57889333Y-82316666D01*
X57889333Y-82316666D02*
X57822666Y-82316666D01*
X57822666Y-82316666D02*
X57756000Y-82283333D01*
X57756000Y-82283333D02*
X57722666Y-82250000D01*
X57722666Y-82250000D02*
X57689333Y-82183333D01*
X57689333Y-82183333D02*
X57689333Y-82016666D01*
X57689333Y-82016666D02*
X57722666Y-81916666D01*
X58389333Y-81616666D02*
X57689333Y-81616666D01*
X57689333Y-81616666D02*
X57689333Y-81449999D01*
X57689333Y-81449999D02*
X57722666Y-81349999D01*
X57722666Y-81349999D02*
X57789333Y-81283333D01*
X57789333Y-81283333D02*
X57856000Y-81249999D01*
X57856000Y-81249999D02*
X57989333Y-81216666D01*
X57989333Y-81216666D02*
X58089333Y-81216666D01*
X58089333Y-81216666D02*
X58222666Y-81249999D01*
X58222666Y-81249999D02*
X58289333Y-81283333D01*
X58289333Y-81283333D02*
X58356000Y-81349999D01*
X58356000Y-81349999D02*
X58389333Y-81449999D01*
X58389333Y-81449999D02*
X58389333Y-81616666D01*
X58189333Y-80949999D02*
X58189333Y-80616666D01*
X58389333Y-81016666D02*
X57689333Y-80783333D01*
X57689333Y-80783333D02*
X58389333Y-80549999D01*
X63739333Y-82350000D02*
X63739333Y-81916666D01*
X63739333Y-81916666D02*
X64006000Y-82150000D01*
X64006000Y-82150000D02*
X64006000Y-82050000D01*
X64006000Y-82050000D02*
X64039333Y-81983333D01*
X64039333Y-81983333D02*
X64072666Y-81950000D01*
X64072666Y-81950000D02*
X64139333Y-81916666D01*
X64139333Y-81916666D02*
X64306000Y-81916666D01*
X64306000Y-81916666D02*
X64372666Y-81950000D01*
X64372666Y-81950000D02*
X64406000Y-81983333D01*
X64406000Y-81983333D02*
X64439333Y-82050000D01*
X64439333Y-82050000D02*
X64439333Y-82250000D01*
X64439333Y-82250000D02*
X64406000Y-82316666D01*
X64406000Y-82316666D02*
X64372666Y-82350000D01*
X63739333Y-81716666D02*
X64439333Y-81483333D01*
X64439333Y-81483333D02*
X63739333Y-81249999D01*
X63739333Y-81083333D02*
X63739333Y-80649999D01*
X63739333Y-80649999D02*
X64006000Y-80883333D01*
X64006000Y-80883333D02*
X64006000Y-80783333D01*
X64006000Y-80783333D02*
X64039333Y-80716666D01*
X64039333Y-80716666D02*
X64072666Y-80683333D01*
X64072666Y-80683333D02*
X64139333Y-80649999D01*
X64139333Y-80649999D02*
X64306000Y-80649999D01*
X64306000Y-80649999D02*
X64372666Y-80683333D01*
X64372666Y-80683333D02*
X64406000Y-80716666D01*
X64406000Y-80716666D02*
X64439333Y-80783333D01*
X64439333Y-80783333D02*
X64439333Y-80983333D01*
X64439333Y-80983333D02*
X64406000Y-81049999D01*
X64406000Y-81049999D02*
X64372666Y-81083333D01*
X60306000Y-82316666D02*
X60339333Y-82216666D01*
X60339333Y-82216666D02*
X60339333Y-82050000D01*
X60339333Y-82050000D02*
X60306000Y-81983333D01*
X60306000Y-81983333D02*
X60272666Y-81950000D01*
X60272666Y-81950000D02*
X60206000Y-81916666D01*
X60206000Y-81916666D02*
X60139333Y-81916666D01*
X60139333Y-81916666D02*
X60072666Y-81950000D01*
X60072666Y-81950000D02*
X60039333Y-81983333D01*
X60039333Y-81983333D02*
X60006000Y-82050000D01*
X60006000Y-82050000D02*
X59972666Y-82183333D01*
X59972666Y-82183333D02*
X59939333Y-82250000D01*
X59939333Y-82250000D02*
X59906000Y-82283333D01*
X59906000Y-82283333D02*
X59839333Y-82316666D01*
X59839333Y-82316666D02*
X59772666Y-82316666D01*
X59772666Y-82316666D02*
X59706000Y-82283333D01*
X59706000Y-82283333D02*
X59672666Y-82250000D01*
X59672666Y-82250000D02*
X59639333Y-82183333D01*
X59639333Y-82183333D02*
X59639333Y-82016666D01*
X59639333Y-82016666D02*
X59672666Y-81916666D01*
X60272666Y-81216666D02*
X60306000Y-81249999D01*
X60306000Y-81249999D02*
X60339333Y-81349999D01*
X60339333Y-81349999D02*
X60339333Y-81416666D01*
X60339333Y-81416666D02*
X60306000Y-81516666D01*
X60306000Y-81516666D02*
X60239333Y-81583333D01*
X60239333Y-81583333D02*
X60172666Y-81616666D01*
X60172666Y-81616666D02*
X60039333Y-81649999D01*
X60039333Y-81649999D02*
X59939333Y-81649999D01*
X59939333Y-81649999D02*
X59806000Y-81616666D01*
X59806000Y-81616666D02*
X59739333Y-81583333D01*
X59739333Y-81583333D02*
X59672666Y-81516666D01*
X59672666Y-81516666D02*
X59639333Y-81416666D01*
X59639333Y-81416666D02*
X59639333Y-81349999D01*
X59639333Y-81349999D02*
X59672666Y-81249999D01*
X59672666Y-81249999D02*
X59706000Y-81216666D01*
X60339333Y-80583333D02*
X60339333Y-80916666D01*
X60339333Y-80916666D02*
X59639333Y-80916666D01*
X54364333Y-95883333D02*
X54364333Y-96216666D01*
X54364333Y-96216666D02*
X53664333Y-96216666D01*
X54297666Y-95249999D02*
X54331000Y-95283332D01*
X54331000Y-95283332D02*
X54364333Y-95383332D01*
X54364333Y-95383332D02*
X54364333Y-95449999D01*
X54364333Y-95449999D02*
X54331000Y-95549999D01*
X54331000Y-95549999D02*
X54264333Y-95616666D01*
X54264333Y-95616666D02*
X54197666Y-95649999D01*
X54197666Y-95649999D02*
X54064333Y-95683332D01*
X54064333Y-95683332D02*
X53964333Y-95683332D01*
X53964333Y-95683332D02*
X53831000Y-95649999D01*
X53831000Y-95649999D02*
X53764333Y-95616666D01*
X53764333Y-95616666D02*
X53697666Y-95549999D01*
X53697666Y-95549999D02*
X53664333Y-95449999D01*
X53664333Y-95449999D02*
X53664333Y-95383332D01*
X53664333Y-95383332D02*
X53697666Y-95283332D01*
X53697666Y-95283332D02*
X53731000Y-95249999D01*
X54364333Y-94949999D02*
X53664333Y-94949999D01*
X53664333Y-94949999D02*
X53664333Y-94783332D01*
X53664333Y-94783332D02*
X53697666Y-94683332D01*
X53697666Y-94683332D02*
X53764333Y-94616666D01*
X53764333Y-94616666D02*
X53831000Y-94583332D01*
X53831000Y-94583332D02*
X53964333Y-94549999D01*
X53964333Y-94549999D02*
X54064333Y-94549999D01*
X54064333Y-94549999D02*
X54197666Y-94583332D01*
X54197666Y-94583332D02*
X54264333Y-94616666D01*
X54264333Y-94616666D02*
X54331000Y-94683332D01*
X54331000Y-94683332D02*
X54364333Y-94783332D01*
X54364333Y-94783332D02*
X54364333Y-94949999D01*
X54431000Y-94416666D02*
X54431000Y-93883332D01*
X54364333Y-93716666D02*
X53664333Y-93716666D01*
X53664333Y-93716666D02*
X53664333Y-93549999D01*
X53664333Y-93549999D02*
X53697666Y-93449999D01*
X53697666Y-93449999D02*
X53764333Y-93383333D01*
X53764333Y-93383333D02*
X53831000Y-93349999D01*
X53831000Y-93349999D02*
X53964333Y-93316666D01*
X53964333Y-93316666D02*
X54064333Y-93316666D01*
X54064333Y-93316666D02*
X54197666Y-93349999D01*
X54197666Y-93349999D02*
X54264333Y-93383333D01*
X54264333Y-93383333D02*
X54331000Y-93449999D01*
X54331000Y-93449999D02*
X54364333Y-93549999D01*
X54364333Y-93549999D02*
X54364333Y-93716666D01*
X54297666Y-92616666D02*
X54331000Y-92649999D01*
X54331000Y-92649999D02*
X54364333Y-92749999D01*
X54364333Y-92749999D02*
X54364333Y-92816666D01*
X54364333Y-92816666D02*
X54331000Y-92916666D01*
X54331000Y-92916666D02*
X54264333Y-92983333D01*
X54264333Y-92983333D02*
X54197666Y-93016666D01*
X54197666Y-93016666D02*
X54064333Y-93049999D01*
X54064333Y-93049999D02*
X53964333Y-93049999D01*
X53964333Y-93049999D02*
X53831000Y-93016666D01*
X53831000Y-93016666D02*
X53764333Y-92983333D01*
X53764333Y-92983333D02*
X53697666Y-92916666D01*
X53697666Y-92916666D02*
X53664333Y-92816666D01*
X53664333Y-92816666D02*
X53664333Y-92749999D01*
X53664333Y-92749999D02*
X53697666Y-92649999D01*
X53697666Y-92649999D02*
X53731000Y-92616666D01*
X56314333Y-95850000D02*
X56314333Y-96183333D01*
X56314333Y-96183333D02*
X55614333Y-96183333D01*
X56247666Y-95216666D02*
X56281000Y-95249999D01*
X56281000Y-95249999D02*
X56314333Y-95349999D01*
X56314333Y-95349999D02*
X56314333Y-95416666D01*
X56314333Y-95416666D02*
X56281000Y-95516666D01*
X56281000Y-95516666D02*
X56214333Y-95583333D01*
X56214333Y-95583333D02*
X56147666Y-95616666D01*
X56147666Y-95616666D02*
X56014333Y-95649999D01*
X56014333Y-95649999D02*
X55914333Y-95649999D01*
X55914333Y-95649999D02*
X55781000Y-95616666D01*
X55781000Y-95616666D02*
X55714333Y-95583333D01*
X55714333Y-95583333D02*
X55647666Y-95516666D01*
X55647666Y-95516666D02*
X55614333Y-95416666D01*
X55614333Y-95416666D02*
X55614333Y-95349999D01*
X55614333Y-95349999D02*
X55647666Y-95249999D01*
X55647666Y-95249999D02*
X55681000Y-95216666D01*
X56314333Y-94916666D02*
X55614333Y-94916666D01*
X55614333Y-94916666D02*
X55614333Y-94749999D01*
X55614333Y-94749999D02*
X55647666Y-94649999D01*
X55647666Y-94649999D02*
X55714333Y-94583333D01*
X55714333Y-94583333D02*
X55781000Y-94549999D01*
X55781000Y-94549999D02*
X55914333Y-94516666D01*
X55914333Y-94516666D02*
X56014333Y-94516666D01*
X56014333Y-94516666D02*
X56147666Y-94549999D01*
X56147666Y-94549999D02*
X56214333Y-94583333D01*
X56214333Y-94583333D02*
X56281000Y-94649999D01*
X56281000Y-94649999D02*
X56314333Y-94749999D01*
X56314333Y-94749999D02*
X56314333Y-94916666D01*
X56381000Y-94383333D02*
X56381000Y-93849999D01*
X56247666Y-93283333D02*
X56281000Y-93316666D01*
X56281000Y-93316666D02*
X56314333Y-93416666D01*
X56314333Y-93416666D02*
X56314333Y-93483333D01*
X56314333Y-93483333D02*
X56281000Y-93583333D01*
X56281000Y-93583333D02*
X56214333Y-93650000D01*
X56214333Y-93650000D02*
X56147666Y-93683333D01*
X56147666Y-93683333D02*
X56014333Y-93716666D01*
X56014333Y-93716666D02*
X55914333Y-93716666D01*
X55914333Y-93716666D02*
X55781000Y-93683333D01*
X55781000Y-93683333D02*
X55714333Y-93650000D01*
X55714333Y-93650000D02*
X55647666Y-93583333D01*
X55647666Y-93583333D02*
X55614333Y-93483333D01*
X55614333Y-93483333D02*
X55614333Y-93416666D01*
X55614333Y-93416666D02*
X55647666Y-93316666D01*
X55647666Y-93316666D02*
X55681000Y-93283333D01*
X56281000Y-93016666D02*
X56314333Y-92916666D01*
X56314333Y-92916666D02*
X56314333Y-92750000D01*
X56314333Y-92750000D02*
X56281000Y-92683333D01*
X56281000Y-92683333D02*
X56247666Y-92650000D01*
X56247666Y-92650000D02*
X56181000Y-92616666D01*
X56181000Y-92616666D02*
X56114333Y-92616666D01*
X56114333Y-92616666D02*
X56047666Y-92650000D01*
X56047666Y-92650000D02*
X56014333Y-92683333D01*
X56014333Y-92683333D02*
X55981000Y-92750000D01*
X55981000Y-92750000D02*
X55947666Y-92883333D01*
X55947666Y-92883333D02*
X55914333Y-92950000D01*
X55914333Y-92950000D02*
X55881000Y-92983333D01*
X55881000Y-92983333D02*
X55814333Y-93016666D01*
X55814333Y-93016666D02*
X55747666Y-93016666D01*
X55747666Y-93016666D02*
X55681000Y-92983333D01*
X55681000Y-92983333D02*
X55647666Y-92950000D01*
X55647666Y-92950000D02*
X55614333Y-92883333D01*
X55614333Y-92883333D02*
X55614333Y-92716666D01*
X55614333Y-92716666D02*
X55647666Y-92616666D01*
X50414333Y-95750000D02*
X50414333Y-96083333D01*
X50414333Y-96083333D02*
X49714333Y-96083333D01*
X50347666Y-95116666D02*
X50381000Y-95149999D01*
X50381000Y-95149999D02*
X50414333Y-95249999D01*
X50414333Y-95249999D02*
X50414333Y-95316666D01*
X50414333Y-95316666D02*
X50381000Y-95416666D01*
X50381000Y-95416666D02*
X50314333Y-95483333D01*
X50314333Y-95483333D02*
X50247666Y-95516666D01*
X50247666Y-95516666D02*
X50114333Y-95549999D01*
X50114333Y-95549999D02*
X50014333Y-95549999D01*
X50014333Y-95549999D02*
X49881000Y-95516666D01*
X49881000Y-95516666D02*
X49814333Y-95483333D01*
X49814333Y-95483333D02*
X49747666Y-95416666D01*
X49747666Y-95416666D02*
X49714333Y-95316666D01*
X49714333Y-95316666D02*
X49714333Y-95249999D01*
X49714333Y-95249999D02*
X49747666Y-95149999D01*
X49747666Y-95149999D02*
X49781000Y-95116666D01*
X50414333Y-94816666D02*
X49714333Y-94816666D01*
X49714333Y-94816666D02*
X49714333Y-94649999D01*
X49714333Y-94649999D02*
X49747666Y-94549999D01*
X49747666Y-94549999D02*
X49814333Y-94483333D01*
X49814333Y-94483333D02*
X49881000Y-94449999D01*
X49881000Y-94449999D02*
X50014333Y-94416666D01*
X50014333Y-94416666D02*
X50114333Y-94416666D01*
X50114333Y-94416666D02*
X50247666Y-94449999D01*
X50247666Y-94449999D02*
X50314333Y-94483333D01*
X50314333Y-94483333D02*
X50381000Y-94549999D01*
X50381000Y-94549999D02*
X50414333Y-94649999D01*
X50414333Y-94649999D02*
X50414333Y-94816666D01*
X50481000Y-94283333D02*
X50481000Y-93749999D01*
X50047666Y-93350000D02*
X50081000Y-93250000D01*
X50081000Y-93250000D02*
X50114333Y-93216666D01*
X50114333Y-93216666D02*
X50181000Y-93183333D01*
X50181000Y-93183333D02*
X50281000Y-93183333D01*
X50281000Y-93183333D02*
X50347666Y-93216666D01*
X50347666Y-93216666D02*
X50381000Y-93250000D01*
X50381000Y-93250000D02*
X50414333Y-93316666D01*
X50414333Y-93316666D02*
X50414333Y-93583333D01*
X50414333Y-93583333D02*
X49714333Y-93583333D01*
X49714333Y-93583333D02*
X49714333Y-93350000D01*
X49714333Y-93350000D02*
X49747666Y-93283333D01*
X49747666Y-93283333D02*
X49781000Y-93250000D01*
X49781000Y-93250000D02*
X49847666Y-93216666D01*
X49847666Y-93216666D02*
X49914333Y-93216666D01*
X49914333Y-93216666D02*
X49981000Y-93250000D01*
X49981000Y-93250000D02*
X50014333Y-93283333D01*
X50014333Y-93283333D02*
X50047666Y-93350000D01*
X50047666Y-93350000D02*
X50047666Y-93583333D01*
X50414333Y-92550000D02*
X50414333Y-92883333D01*
X50414333Y-92883333D02*
X49714333Y-92883333D01*
X52364333Y-96383333D02*
X52364333Y-96716666D01*
X52364333Y-96716666D02*
X51664333Y-96716666D01*
X52297666Y-95749999D02*
X52331000Y-95783332D01*
X52331000Y-95783332D02*
X52364333Y-95883332D01*
X52364333Y-95883332D02*
X52364333Y-95949999D01*
X52364333Y-95949999D02*
X52331000Y-96049999D01*
X52331000Y-96049999D02*
X52264333Y-96116666D01*
X52264333Y-96116666D02*
X52197666Y-96149999D01*
X52197666Y-96149999D02*
X52064333Y-96183332D01*
X52064333Y-96183332D02*
X51964333Y-96183332D01*
X51964333Y-96183332D02*
X51831000Y-96149999D01*
X51831000Y-96149999D02*
X51764333Y-96116666D01*
X51764333Y-96116666D02*
X51697666Y-96049999D01*
X51697666Y-96049999D02*
X51664333Y-95949999D01*
X51664333Y-95949999D02*
X51664333Y-95883332D01*
X51664333Y-95883332D02*
X51697666Y-95783332D01*
X51697666Y-95783332D02*
X51731000Y-95749999D01*
X52364333Y-95449999D02*
X51664333Y-95449999D01*
X51664333Y-95449999D02*
X51664333Y-95283332D01*
X51664333Y-95283332D02*
X51697666Y-95183332D01*
X51697666Y-95183332D02*
X51764333Y-95116666D01*
X51764333Y-95116666D02*
X51831000Y-95083332D01*
X51831000Y-95083332D02*
X51964333Y-95049999D01*
X51964333Y-95049999D02*
X52064333Y-95049999D01*
X52064333Y-95049999D02*
X52197666Y-95083332D01*
X52197666Y-95083332D02*
X52264333Y-95116666D01*
X52264333Y-95116666D02*
X52331000Y-95183332D01*
X52331000Y-95183332D02*
X52364333Y-95283332D01*
X52364333Y-95283332D02*
X52364333Y-95449999D01*
X52431000Y-94916666D02*
X52431000Y-94383332D01*
X52364333Y-93816666D02*
X52031000Y-94049999D01*
X52364333Y-94216666D02*
X51664333Y-94216666D01*
X51664333Y-94216666D02*
X51664333Y-93949999D01*
X51664333Y-93949999D02*
X51697666Y-93883333D01*
X51697666Y-93883333D02*
X51731000Y-93849999D01*
X51731000Y-93849999D02*
X51797666Y-93816666D01*
X51797666Y-93816666D02*
X51897666Y-93816666D01*
X51897666Y-93816666D02*
X51964333Y-93849999D01*
X51964333Y-93849999D02*
X51997666Y-93883333D01*
X51997666Y-93883333D02*
X52031000Y-93949999D01*
X52031000Y-93949999D02*
X52031000Y-94216666D01*
X52331000Y-93549999D02*
X52364333Y-93449999D01*
X52364333Y-93449999D02*
X52364333Y-93283333D01*
X52364333Y-93283333D02*
X52331000Y-93216666D01*
X52331000Y-93216666D02*
X52297666Y-93183333D01*
X52297666Y-93183333D02*
X52231000Y-93149999D01*
X52231000Y-93149999D02*
X52164333Y-93149999D01*
X52164333Y-93149999D02*
X52097666Y-93183333D01*
X52097666Y-93183333D02*
X52064333Y-93216666D01*
X52064333Y-93216666D02*
X52031000Y-93283333D01*
X52031000Y-93283333D02*
X51997666Y-93416666D01*
X51997666Y-93416666D02*
X51964333Y-93483333D01*
X51964333Y-93483333D02*
X51931000Y-93516666D01*
X51931000Y-93516666D02*
X51864333Y-93549999D01*
X51864333Y-93549999D02*
X51797666Y-93549999D01*
X51797666Y-93549999D02*
X51731000Y-93516666D01*
X51731000Y-93516666D02*
X51697666Y-93483333D01*
X51697666Y-93483333D02*
X51664333Y-93416666D01*
X51664333Y-93416666D02*
X51664333Y-93249999D01*
X51664333Y-93249999D02*
X51697666Y-93149999D01*
X51664333Y-92949999D02*
X51664333Y-92549999D01*
X52364333Y-92749999D02*
X51664333Y-92749999D01*
X61722666Y-94083332D02*
X61689333Y-94149999D01*
X61689333Y-94149999D02*
X61689333Y-94249999D01*
X61689333Y-94249999D02*
X61722666Y-94349999D01*
X61722666Y-94349999D02*
X61789333Y-94416666D01*
X61789333Y-94416666D02*
X61856000Y-94449999D01*
X61856000Y-94449999D02*
X61989333Y-94483332D01*
X61989333Y-94483332D02*
X62089333Y-94483332D01*
X62089333Y-94483332D02*
X62222666Y-94449999D01*
X62222666Y-94449999D02*
X62289333Y-94416666D01*
X62289333Y-94416666D02*
X62356000Y-94349999D01*
X62356000Y-94349999D02*
X62389333Y-94249999D01*
X62389333Y-94249999D02*
X62389333Y-94183332D01*
X62389333Y-94183332D02*
X62356000Y-94083332D01*
X62356000Y-94083332D02*
X62322666Y-94049999D01*
X62322666Y-94049999D02*
X62089333Y-94049999D01*
X62089333Y-94049999D02*
X62089333Y-94183332D01*
X62389333Y-93749999D02*
X61689333Y-93749999D01*
X61689333Y-93749999D02*
X62389333Y-93349999D01*
X62389333Y-93349999D02*
X61689333Y-93349999D01*
X62389333Y-93016666D02*
X61689333Y-93016666D01*
X61689333Y-93016666D02*
X61689333Y-92849999D01*
X61689333Y-92849999D02*
X61722666Y-92749999D01*
X61722666Y-92749999D02*
X61789333Y-92683333D01*
X61789333Y-92683333D02*
X61856000Y-92649999D01*
X61856000Y-92649999D02*
X61989333Y-92616666D01*
X61989333Y-92616666D02*
X62089333Y-92616666D01*
X62089333Y-92616666D02*
X62222666Y-92649999D01*
X62222666Y-92649999D02*
X62289333Y-92683333D01*
X62289333Y-92683333D02*
X62356000Y-92749999D01*
X62356000Y-92749999D02*
X62389333Y-92849999D01*
X62389333Y-92849999D02*
X62389333Y-93016666D01*
X63789333Y-94316667D02*
X63789333Y-93883333D01*
X63789333Y-93883333D02*
X64056000Y-94116667D01*
X64056000Y-94116667D02*
X64056000Y-94016667D01*
X64056000Y-94016667D02*
X64089333Y-93950000D01*
X64089333Y-93950000D02*
X64122666Y-93916667D01*
X64122666Y-93916667D02*
X64189333Y-93883333D01*
X64189333Y-93883333D02*
X64356000Y-93883333D01*
X64356000Y-93883333D02*
X64422666Y-93916667D01*
X64422666Y-93916667D02*
X64456000Y-93950000D01*
X64456000Y-93950000D02*
X64489333Y-94016667D01*
X64489333Y-94016667D02*
X64489333Y-94216667D01*
X64489333Y-94216667D02*
X64456000Y-94283333D01*
X64456000Y-94283333D02*
X64422666Y-94316667D01*
X63789333Y-93683333D02*
X64489333Y-93450000D01*
X64489333Y-93450000D02*
X63789333Y-93216666D01*
X63789333Y-93050000D02*
X63789333Y-92616666D01*
X63789333Y-92616666D02*
X64056000Y-92850000D01*
X64056000Y-92850000D02*
X64056000Y-92750000D01*
X64056000Y-92750000D02*
X64089333Y-92683333D01*
X64089333Y-92683333D02*
X64122666Y-92650000D01*
X64122666Y-92650000D02*
X64189333Y-92616666D01*
X64189333Y-92616666D02*
X64356000Y-92616666D01*
X64356000Y-92616666D02*
X64422666Y-92650000D01*
X64422666Y-92650000D02*
X64456000Y-92683333D01*
X64456000Y-92683333D02*
X64489333Y-92750000D01*
X64489333Y-92750000D02*
X64489333Y-92950000D01*
X64489333Y-92950000D02*
X64456000Y-93016666D01*
X64456000Y-93016666D02*
X64422666Y-93050000D01*
X60364333Y-94849999D02*
X59664333Y-94849999D01*
X59664333Y-94849999D02*
X60164333Y-94616666D01*
X60164333Y-94616666D02*
X59664333Y-94383332D01*
X59664333Y-94383332D02*
X60364333Y-94383332D01*
X59664333Y-93916666D02*
X59664333Y-93783332D01*
X59664333Y-93783332D02*
X59697666Y-93716666D01*
X59697666Y-93716666D02*
X59764333Y-93649999D01*
X59764333Y-93649999D02*
X59897666Y-93616666D01*
X59897666Y-93616666D02*
X60131000Y-93616666D01*
X60131000Y-93616666D02*
X60264333Y-93649999D01*
X60264333Y-93649999D02*
X60331000Y-93716666D01*
X60331000Y-93716666D02*
X60364333Y-93783332D01*
X60364333Y-93783332D02*
X60364333Y-93916666D01*
X60364333Y-93916666D02*
X60331000Y-93983332D01*
X60331000Y-93983332D02*
X60264333Y-94049999D01*
X60264333Y-94049999D02*
X60131000Y-94083332D01*
X60131000Y-94083332D02*
X59897666Y-94083332D01*
X59897666Y-94083332D02*
X59764333Y-94049999D01*
X59764333Y-94049999D02*
X59697666Y-93983332D01*
X59697666Y-93983332D02*
X59664333Y-93916666D01*
X60331000Y-93349999D02*
X60364333Y-93249999D01*
X60364333Y-93249999D02*
X60364333Y-93083333D01*
X60364333Y-93083333D02*
X60331000Y-93016666D01*
X60331000Y-93016666D02*
X60297666Y-92983333D01*
X60297666Y-92983333D02*
X60231000Y-92949999D01*
X60231000Y-92949999D02*
X60164333Y-92949999D01*
X60164333Y-92949999D02*
X60097666Y-92983333D01*
X60097666Y-92983333D02*
X60064333Y-93016666D01*
X60064333Y-93016666D02*
X60031000Y-93083333D01*
X60031000Y-93083333D02*
X59997666Y-93216666D01*
X59997666Y-93216666D02*
X59964333Y-93283333D01*
X59964333Y-93283333D02*
X59931000Y-93316666D01*
X59931000Y-93316666D02*
X59864333Y-93349999D01*
X59864333Y-93349999D02*
X59797666Y-93349999D01*
X59797666Y-93349999D02*
X59731000Y-93316666D01*
X59731000Y-93316666D02*
X59697666Y-93283333D01*
X59697666Y-93283333D02*
X59664333Y-93216666D01*
X59664333Y-93216666D02*
X59664333Y-93049999D01*
X59664333Y-93049999D02*
X59697666Y-92949999D01*
X60364333Y-92649999D02*
X59664333Y-92649999D01*
X58256000Y-96549999D02*
X58289333Y-96449999D01*
X58289333Y-96449999D02*
X58289333Y-96283333D01*
X58289333Y-96283333D02*
X58256000Y-96216666D01*
X58256000Y-96216666D02*
X58222666Y-96183333D01*
X58222666Y-96183333D02*
X58156000Y-96149999D01*
X58156000Y-96149999D02*
X58089333Y-96149999D01*
X58089333Y-96149999D02*
X58022666Y-96183333D01*
X58022666Y-96183333D02*
X57989333Y-96216666D01*
X57989333Y-96216666D02*
X57956000Y-96283333D01*
X57956000Y-96283333D02*
X57922666Y-96416666D01*
X57922666Y-96416666D02*
X57889333Y-96483333D01*
X57889333Y-96483333D02*
X57856000Y-96516666D01*
X57856000Y-96516666D02*
X57789333Y-96549999D01*
X57789333Y-96549999D02*
X57722666Y-96549999D01*
X57722666Y-96549999D02*
X57656000Y-96516666D01*
X57656000Y-96516666D02*
X57622666Y-96483333D01*
X57622666Y-96483333D02*
X57589333Y-96416666D01*
X57589333Y-96416666D02*
X57589333Y-96249999D01*
X57589333Y-96249999D02*
X57622666Y-96149999D01*
X58289333Y-95849999D02*
X57589333Y-95849999D01*
X57589333Y-95849999D02*
X57589333Y-95583332D01*
X57589333Y-95583332D02*
X57622666Y-95516666D01*
X57622666Y-95516666D02*
X57656000Y-95483332D01*
X57656000Y-95483332D02*
X57722666Y-95449999D01*
X57722666Y-95449999D02*
X57822666Y-95449999D01*
X57822666Y-95449999D02*
X57889333Y-95483332D01*
X57889333Y-95483332D02*
X57922666Y-95516666D01*
X57922666Y-95516666D02*
X57956000Y-95583332D01*
X57956000Y-95583332D02*
X57956000Y-95849999D01*
X58289333Y-95149999D02*
X57589333Y-95149999D01*
X58356000Y-94983333D02*
X58356000Y-94449999D01*
X58222666Y-93883333D02*
X58256000Y-93916666D01*
X58256000Y-93916666D02*
X58289333Y-94016666D01*
X58289333Y-94016666D02*
X58289333Y-94083333D01*
X58289333Y-94083333D02*
X58256000Y-94183333D01*
X58256000Y-94183333D02*
X58189333Y-94250000D01*
X58189333Y-94250000D02*
X58122666Y-94283333D01*
X58122666Y-94283333D02*
X57989333Y-94316666D01*
X57989333Y-94316666D02*
X57889333Y-94316666D01*
X57889333Y-94316666D02*
X57756000Y-94283333D01*
X57756000Y-94283333D02*
X57689333Y-94250000D01*
X57689333Y-94250000D02*
X57622666Y-94183333D01*
X57622666Y-94183333D02*
X57589333Y-94083333D01*
X57589333Y-94083333D02*
X57589333Y-94016666D01*
X57589333Y-94016666D02*
X57622666Y-93916666D01*
X57622666Y-93916666D02*
X57656000Y-93883333D01*
X58289333Y-93250000D02*
X58289333Y-93583333D01*
X58289333Y-93583333D02*
X57589333Y-93583333D01*
X58289333Y-93016666D02*
X57589333Y-93016666D01*
X58289333Y-92616666D02*
X57889333Y-92916666D01*
X57589333Y-92616666D02*
X57989333Y-93016666D01*
X47825000Y-51537500D02*
X47825000Y-49762500D01*
X47825000Y-40400000D02*
X47825000Y-38625000D01*
D11*
%TO.C,BZ1*%
X47286190Y-160080952D02*
X47238571Y-159938095D01*
X47238571Y-159938095D02*
X47190952Y-159890476D01*
X47190952Y-159890476D02*
X47095714Y-159842857D01*
X47095714Y-159842857D02*
X46952857Y-159842857D01*
X46952857Y-159842857D02*
X46857619Y-159890476D01*
X46857619Y-159890476D02*
X46810000Y-159938095D01*
X46810000Y-159938095D02*
X46762380Y-160033333D01*
X46762380Y-160033333D02*
X46762380Y-160414285D01*
X46762380Y-160414285D02*
X47762380Y-160414285D01*
X47762380Y-160414285D02*
X47762380Y-160080952D01*
X47762380Y-160080952D02*
X47714761Y-159985714D01*
X47714761Y-159985714D02*
X47667142Y-159938095D01*
X47667142Y-159938095D02*
X47571904Y-159890476D01*
X47571904Y-159890476D02*
X47476666Y-159890476D01*
X47476666Y-159890476D02*
X47381428Y-159938095D01*
X47381428Y-159938095D02*
X47333809Y-159985714D01*
X47333809Y-159985714D02*
X47286190Y-160080952D01*
X47286190Y-160080952D02*
X47286190Y-160414285D01*
X47762380Y-159509523D02*
X47762380Y-158842857D01*
X47762380Y-158842857D02*
X46762380Y-159509523D01*
X46762380Y-159509523D02*
X46762380Y-158842857D01*
X46762380Y-157938095D02*
X46762380Y-158509523D01*
X46762380Y-158223809D02*
X47762380Y-158223809D01*
X47762380Y-158223809D02*
X47619523Y-158319047D01*
X47619523Y-158319047D02*
X47524285Y-158414285D01*
X47524285Y-158414285D02*
X47476666Y-158509523D01*
D10*
%TO.C,R13*%
X73017857Y-112887619D02*
X73351190Y-112411428D01*
X73589285Y-112887619D02*
X73589285Y-111887619D01*
X73589285Y-111887619D02*
X73208333Y-111887619D01*
X73208333Y-111887619D02*
X73113095Y-111935238D01*
X73113095Y-111935238D02*
X73065476Y-111982857D01*
X73065476Y-111982857D02*
X73017857Y-112078095D01*
X73017857Y-112078095D02*
X73017857Y-112220952D01*
X73017857Y-112220952D02*
X73065476Y-112316190D01*
X73065476Y-112316190D02*
X73113095Y-112363809D01*
X73113095Y-112363809D02*
X73208333Y-112411428D01*
X73208333Y-112411428D02*
X73589285Y-112411428D01*
X72065476Y-112887619D02*
X72636904Y-112887619D01*
X72351190Y-112887619D02*
X72351190Y-111887619D01*
X72351190Y-111887619D02*
X72446428Y-112030476D01*
X72446428Y-112030476D02*
X72541666Y-112125714D01*
X72541666Y-112125714D02*
X72636904Y-112173333D01*
X71732142Y-111887619D02*
X71113095Y-111887619D01*
X71113095Y-111887619D02*
X71446428Y-112268571D01*
X71446428Y-112268571D02*
X71303571Y-112268571D01*
X71303571Y-112268571D02*
X71208333Y-112316190D01*
X71208333Y-112316190D02*
X71160714Y-112363809D01*
X71160714Y-112363809D02*
X71113095Y-112459047D01*
X71113095Y-112459047D02*
X71113095Y-112697142D01*
X71113095Y-112697142D02*
X71160714Y-112792380D01*
X71160714Y-112792380D02*
X71208333Y-112840000D01*
X71208333Y-112840000D02*
X71303571Y-112887619D01*
X71303571Y-112887619D02*
X71589285Y-112887619D01*
X71589285Y-112887619D02*
X71684523Y-112840000D01*
X71684523Y-112840000D02*
X71732142Y-112792380D01*
%TO.C,C2*%
X78691666Y-118592380D02*
X78739285Y-118640000D01*
X78739285Y-118640000D02*
X78882142Y-118687619D01*
X78882142Y-118687619D02*
X78977380Y-118687619D01*
X78977380Y-118687619D02*
X79120237Y-118640000D01*
X79120237Y-118640000D02*
X79215475Y-118544761D01*
X79215475Y-118544761D02*
X79263094Y-118449523D01*
X79263094Y-118449523D02*
X79310713Y-118259047D01*
X79310713Y-118259047D02*
X79310713Y-118116190D01*
X79310713Y-118116190D02*
X79263094Y-117925714D01*
X79263094Y-117925714D02*
X79215475Y-117830476D01*
X79215475Y-117830476D02*
X79120237Y-117735238D01*
X79120237Y-117735238D02*
X78977380Y-117687619D01*
X78977380Y-117687619D02*
X78882142Y-117687619D01*
X78882142Y-117687619D02*
X78739285Y-117735238D01*
X78739285Y-117735238D02*
X78691666Y-117782857D01*
X78310713Y-117782857D02*
X78263094Y-117735238D01*
X78263094Y-117735238D02*
X78167856Y-117687619D01*
X78167856Y-117687619D02*
X77929761Y-117687619D01*
X77929761Y-117687619D02*
X77834523Y-117735238D01*
X77834523Y-117735238D02*
X77786904Y-117782857D01*
X77786904Y-117782857D02*
X77739285Y-117878095D01*
X77739285Y-117878095D02*
X77739285Y-117973333D01*
X77739285Y-117973333D02*
X77786904Y-118116190D01*
X77786904Y-118116190D02*
X78358332Y-118687619D01*
X78358332Y-118687619D02*
X77739285Y-118687619D01*
%TO.C,U1*%
X78435123Y-125909695D02*
X78435123Y-126557314D01*
X78435123Y-126557314D02*
X78397028Y-126633504D01*
X78397028Y-126633504D02*
X78358933Y-126671600D01*
X78358933Y-126671600D02*
X78282742Y-126709695D01*
X78282742Y-126709695D02*
X78130361Y-126709695D01*
X78130361Y-126709695D02*
X78054171Y-126671600D01*
X78054171Y-126671600D02*
X78016076Y-126633504D01*
X78016076Y-126633504D02*
X77977980Y-126557314D01*
X77977980Y-126557314D02*
X77977980Y-125909695D01*
X77177981Y-126709695D02*
X77635124Y-126709695D01*
X77406552Y-126709695D02*
X77406552Y-125909695D01*
X77406552Y-125909695D02*
X77482743Y-126023980D01*
X77482743Y-126023980D02*
X77558933Y-126100171D01*
X77558933Y-126100171D02*
X77635124Y-126138266D01*
%TO.C,R7*%
X68766666Y-126262619D02*
X69099999Y-125786428D01*
X69338094Y-126262619D02*
X69338094Y-125262619D01*
X69338094Y-125262619D02*
X68957142Y-125262619D01*
X68957142Y-125262619D02*
X68861904Y-125310238D01*
X68861904Y-125310238D02*
X68814285Y-125357857D01*
X68814285Y-125357857D02*
X68766666Y-125453095D01*
X68766666Y-125453095D02*
X68766666Y-125595952D01*
X68766666Y-125595952D02*
X68814285Y-125691190D01*
X68814285Y-125691190D02*
X68861904Y-125738809D01*
X68861904Y-125738809D02*
X68957142Y-125786428D01*
X68957142Y-125786428D02*
X69338094Y-125786428D01*
X68433332Y-125262619D02*
X67766666Y-125262619D01*
X67766666Y-125262619D02*
X68195237Y-126262619D01*
%TO.C,C3*%
X78766666Y-114792380D02*
X78814285Y-114840000D01*
X78814285Y-114840000D02*
X78957142Y-114887619D01*
X78957142Y-114887619D02*
X79052380Y-114887619D01*
X79052380Y-114887619D02*
X79195237Y-114840000D01*
X79195237Y-114840000D02*
X79290475Y-114744761D01*
X79290475Y-114744761D02*
X79338094Y-114649523D01*
X79338094Y-114649523D02*
X79385713Y-114459047D01*
X79385713Y-114459047D02*
X79385713Y-114316190D01*
X79385713Y-114316190D02*
X79338094Y-114125714D01*
X79338094Y-114125714D02*
X79290475Y-114030476D01*
X79290475Y-114030476D02*
X79195237Y-113935238D01*
X79195237Y-113935238D02*
X79052380Y-113887619D01*
X79052380Y-113887619D02*
X78957142Y-113887619D01*
X78957142Y-113887619D02*
X78814285Y-113935238D01*
X78814285Y-113935238D02*
X78766666Y-113982857D01*
X78433332Y-113887619D02*
X77814285Y-113887619D01*
X77814285Y-113887619D02*
X78147618Y-114268571D01*
X78147618Y-114268571D02*
X78004761Y-114268571D01*
X78004761Y-114268571D02*
X77909523Y-114316190D01*
X77909523Y-114316190D02*
X77861904Y-114363809D01*
X77861904Y-114363809D02*
X77814285Y-114459047D01*
X77814285Y-114459047D02*
X77814285Y-114697142D01*
X77814285Y-114697142D02*
X77861904Y-114792380D01*
X77861904Y-114792380D02*
X77909523Y-114840000D01*
X77909523Y-114840000D02*
X78004761Y-114887619D01*
X78004761Y-114887619D02*
X78290475Y-114887619D01*
X78290475Y-114887619D02*
X78385713Y-114840000D01*
X78385713Y-114840000D02*
X78433332Y-114792380D01*
%TO.C,R8*%
X67112619Y-116983333D02*
X66636428Y-116650000D01*
X67112619Y-116411905D02*
X66112619Y-116411905D01*
X66112619Y-116411905D02*
X66112619Y-116792857D01*
X66112619Y-116792857D02*
X66160238Y-116888095D01*
X66160238Y-116888095D02*
X66207857Y-116935714D01*
X66207857Y-116935714D02*
X66303095Y-116983333D01*
X66303095Y-116983333D02*
X66445952Y-116983333D01*
X66445952Y-116983333D02*
X66541190Y-116935714D01*
X66541190Y-116935714D02*
X66588809Y-116888095D01*
X66588809Y-116888095D02*
X66636428Y-116792857D01*
X66636428Y-116792857D02*
X66636428Y-116411905D01*
X66541190Y-117554762D02*
X66493571Y-117459524D01*
X66493571Y-117459524D02*
X66445952Y-117411905D01*
X66445952Y-117411905D02*
X66350714Y-117364286D01*
X66350714Y-117364286D02*
X66303095Y-117364286D01*
X66303095Y-117364286D02*
X66207857Y-117411905D01*
X66207857Y-117411905D02*
X66160238Y-117459524D01*
X66160238Y-117459524D02*
X66112619Y-117554762D01*
X66112619Y-117554762D02*
X66112619Y-117745238D01*
X66112619Y-117745238D02*
X66160238Y-117840476D01*
X66160238Y-117840476D02*
X66207857Y-117888095D01*
X66207857Y-117888095D02*
X66303095Y-117935714D01*
X66303095Y-117935714D02*
X66350714Y-117935714D01*
X66350714Y-117935714D02*
X66445952Y-117888095D01*
X66445952Y-117888095D02*
X66493571Y-117840476D01*
X66493571Y-117840476D02*
X66541190Y-117745238D01*
X66541190Y-117745238D02*
X66541190Y-117554762D01*
X66541190Y-117554762D02*
X66588809Y-117459524D01*
X66588809Y-117459524D02*
X66636428Y-117411905D01*
X66636428Y-117411905D02*
X66731666Y-117364286D01*
X66731666Y-117364286D02*
X66922142Y-117364286D01*
X66922142Y-117364286D02*
X67017380Y-117411905D01*
X67017380Y-117411905D02*
X67065000Y-117459524D01*
X67065000Y-117459524D02*
X67112619Y-117554762D01*
X67112619Y-117554762D02*
X67112619Y-117745238D01*
X67112619Y-117745238D02*
X67065000Y-117840476D01*
X67065000Y-117840476D02*
X67017380Y-117888095D01*
X67017380Y-117888095D02*
X66922142Y-117935714D01*
X66922142Y-117935714D02*
X66731666Y-117935714D01*
X66731666Y-117935714D02*
X66636428Y-117888095D01*
X66636428Y-117888095D02*
X66588809Y-117840476D01*
X66588809Y-117840476D02*
X66541190Y-117745238D01*
%TO.C,R10*%
X78362619Y-128557142D02*
X77886428Y-128223809D01*
X78362619Y-127985714D02*
X77362619Y-127985714D01*
X77362619Y-127985714D02*
X77362619Y-128366666D01*
X77362619Y-128366666D02*
X77410238Y-128461904D01*
X77410238Y-128461904D02*
X77457857Y-128509523D01*
X77457857Y-128509523D02*
X77553095Y-128557142D01*
X77553095Y-128557142D02*
X77695952Y-128557142D01*
X77695952Y-128557142D02*
X77791190Y-128509523D01*
X77791190Y-128509523D02*
X77838809Y-128461904D01*
X77838809Y-128461904D02*
X77886428Y-128366666D01*
X77886428Y-128366666D02*
X77886428Y-127985714D01*
X78362619Y-129509523D02*
X78362619Y-128938095D01*
X78362619Y-129223809D02*
X77362619Y-129223809D01*
X77362619Y-129223809D02*
X77505476Y-129128571D01*
X77505476Y-129128571D02*
X77600714Y-129033333D01*
X77600714Y-129033333D02*
X77648333Y-128938095D01*
X77362619Y-130128571D02*
X77362619Y-130223809D01*
X77362619Y-130223809D02*
X77410238Y-130319047D01*
X77410238Y-130319047D02*
X77457857Y-130366666D01*
X77457857Y-130366666D02*
X77553095Y-130414285D01*
X77553095Y-130414285D02*
X77743571Y-130461904D01*
X77743571Y-130461904D02*
X77981666Y-130461904D01*
X77981666Y-130461904D02*
X78172142Y-130414285D01*
X78172142Y-130414285D02*
X78267380Y-130366666D01*
X78267380Y-130366666D02*
X78315000Y-130319047D01*
X78315000Y-130319047D02*
X78362619Y-130223809D01*
X78362619Y-130223809D02*
X78362619Y-130128571D01*
X78362619Y-130128571D02*
X78315000Y-130033333D01*
X78315000Y-130033333D02*
X78267380Y-129985714D01*
X78267380Y-129985714D02*
X78172142Y-129938095D01*
X78172142Y-129938095D02*
X77981666Y-129890476D01*
X77981666Y-129890476D02*
X77743571Y-129890476D01*
X77743571Y-129890476D02*
X77553095Y-129938095D01*
X77553095Y-129938095D02*
X77457857Y-129985714D01*
X77457857Y-129985714D02*
X77410238Y-130033333D01*
X77410238Y-130033333D02*
X77362619Y-130128571D01*
%TO.C,R2*%
X46066666Y-123662619D02*
X46399999Y-123186428D01*
X46638094Y-123662619D02*
X46638094Y-122662619D01*
X46638094Y-122662619D02*
X46257142Y-122662619D01*
X46257142Y-122662619D02*
X46161904Y-122710238D01*
X46161904Y-122710238D02*
X46114285Y-122757857D01*
X46114285Y-122757857D02*
X46066666Y-122853095D01*
X46066666Y-122853095D02*
X46066666Y-122995952D01*
X46066666Y-122995952D02*
X46114285Y-123091190D01*
X46114285Y-123091190D02*
X46161904Y-123138809D01*
X46161904Y-123138809D02*
X46257142Y-123186428D01*
X46257142Y-123186428D02*
X46638094Y-123186428D01*
X45685713Y-122757857D02*
X45638094Y-122710238D01*
X45638094Y-122710238D02*
X45542856Y-122662619D01*
X45542856Y-122662619D02*
X45304761Y-122662619D01*
X45304761Y-122662619D02*
X45209523Y-122710238D01*
X45209523Y-122710238D02*
X45161904Y-122757857D01*
X45161904Y-122757857D02*
X45114285Y-122853095D01*
X45114285Y-122853095D02*
X45114285Y-122948333D01*
X45114285Y-122948333D02*
X45161904Y-123091190D01*
X45161904Y-123091190D02*
X45733332Y-123662619D01*
X45733332Y-123662619D02*
X45114285Y-123662619D01*
%TO.C,Q1*%
X61532857Y-48679761D02*
X61485238Y-48584523D01*
X61485238Y-48584523D02*
X61390000Y-48489285D01*
X61390000Y-48489285D02*
X61247142Y-48346428D01*
X61247142Y-48346428D02*
X61199523Y-48251190D01*
X61199523Y-48251190D02*
X61199523Y-48155952D01*
X61437619Y-48203571D02*
X61390000Y-48108333D01*
X61390000Y-48108333D02*
X61294761Y-48013095D01*
X61294761Y-48013095D02*
X61104285Y-47965476D01*
X61104285Y-47965476D02*
X60770952Y-47965476D01*
X60770952Y-47965476D02*
X60580476Y-48013095D01*
X60580476Y-48013095D02*
X60485238Y-48108333D01*
X60485238Y-48108333D02*
X60437619Y-48203571D01*
X60437619Y-48203571D02*
X60437619Y-48394047D01*
X60437619Y-48394047D02*
X60485238Y-48489285D01*
X60485238Y-48489285D02*
X60580476Y-48584523D01*
X60580476Y-48584523D02*
X60770952Y-48632142D01*
X60770952Y-48632142D02*
X61104285Y-48632142D01*
X61104285Y-48632142D02*
X61294761Y-48584523D01*
X61294761Y-48584523D02*
X61390000Y-48489285D01*
X61390000Y-48489285D02*
X61437619Y-48394047D01*
X61437619Y-48394047D02*
X61437619Y-48203571D01*
X61437619Y-49584523D02*
X61437619Y-49013095D01*
X61437619Y-49298809D02*
X60437619Y-49298809D01*
X60437619Y-49298809D02*
X60580476Y-49203571D01*
X60580476Y-49203571D02*
X60675714Y-49108333D01*
X60675714Y-49108333D02*
X60723333Y-49013095D01*
%TO.C,R12*%
X61612619Y-51932142D02*
X61136428Y-51598809D01*
X61612619Y-51360714D02*
X60612619Y-51360714D01*
X60612619Y-51360714D02*
X60612619Y-51741666D01*
X60612619Y-51741666D02*
X60660238Y-51836904D01*
X60660238Y-51836904D02*
X60707857Y-51884523D01*
X60707857Y-51884523D02*
X60803095Y-51932142D01*
X60803095Y-51932142D02*
X60945952Y-51932142D01*
X60945952Y-51932142D02*
X61041190Y-51884523D01*
X61041190Y-51884523D02*
X61088809Y-51836904D01*
X61088809Y-51836904D02*
X61136428Y-51741666D01*
X61136428Y-51741666D02*
X61136428Y-51360714D01*
X61612619Y-52884523D02*
X61612619Y-52313095D01*
X61612619Y-52598809D02*
X60612619Y-52598809D01*
X60612619Y-52598809D02*
X60755476Y-52503571D01*
X60755476Y-52503571D02*
X60850714Y-52408333D01*
X60850714Y-52408333D02*
X60898333Y-52313095D01*
X60707857Y-53265476D02*
X60660238Y-53313095D01*
X60660238Y-53313095D02*
X60612619Y-53408333D01*
X60612619Y-53408333D02*
X60612619Y-53646428D01*
X60612619Y-53646428D02*
X60660238Y-53741666D01*
X60660238Y-53741666D02*
X60707857Y-53789285D01*
X60707857Y-53789285D02*
X60803095Y-53836904D01*
X60803095Y-53836904D02*
X60898333Y-53836904D01*
X60898333Y-53836904D02*
X61041190Y-53789285D01*
X61041190Y-53789285D02*
X61612619Y-53217857D01*
X61612619Y-53217857D02*
X61612619Y-53836904D01*
%TO.C,D6*%
X42665094Y-147007619D02*
X42665094Y-146007619D01*
X42665094Y-146007619D02*
X42426999Y-146007619D01*
X42426999Y-146007619D02*
X42284142Y-146055238D01*
X42284142Y-146055238D02*
X42188904Y-146150476D01*
X42188904Y-146150476D02*
X42141285Y-146245714D01*
X42141285Y-146245714D02*
X42093666Y-146436190D01*
X42093666Y-146436190D02*
X42093666Y-146579047D01*
X42093666Y-146579047D02*
X42141285Y-146769523D01*
X42141285Y-146769523D02*
X42188904Y-146864761D01*
X42188904Y-146864761D02*
X42284142Y-146960000D01*
X42284142Y-146960000D02*
X42426999Y-147007619D01*
X42426999Y-147007619D02*
X42665094Y-147007619D01*
X41236523Y-146007619D02*
X41426999Y-146007619D01*
X41426999Y-146007619D02*
X41522237Y-146055238D01*
X41522237Y-146055238D02*
X41569856Y-146102857D01*
X41569856Y-146102857D02*
X41665094Y-146245714D01*
X41665094Y-146245714D02*
X41712713Y-146436190D01*
X41712713Y-146436190D02*
X41712713Y-146817142D01*
X41712713Y-146817142D02*
X41665094Y-146912380D01*
X41665094Y-146912380D02*
X41617475Y-146960000D01*
X41617475Y-146960000D02*
X41522237Y-147007619D01*
X41522237Y-147007619D02*
X41331761Y-147007619D01*
X41331761Y-147007619D02*
X41236523Y-146960000D01*
X41236523Y-146960000D02*
X41188904Y-146912380D01*
X41188904Y-146912380D02*
X41141285Y-146817142D01*
X41141285Y-146817142D02*
X41141285Y-146579047D01*
X41141285Y-146579047D02*
X41188904Y-146483809D01*
X41188904Y-146483809D02*
X41236523Y-146436190D01*
X41236523Y-146436190D02*
X41331761Y-146388571D01*
X41331761Y-146388571D02*
X41522237Y-146388571D01*
X41522237Y-146388571D02*
X41617475Y-146436190D01*
X41617475Y-146436190D02*
X41665094Y-146483809D01*
X41665094Y-146483809D02*
X41712713Y-146579047D01*
%TO.C,R3*%
X46066666Y-104612619D02*
X46399999Y-104136428D01*
X46638094Y-104612619D02*
X46638094Y-103612619D01*
X46638094Y-103612619D02*
X46257142Y-103612619D01*
X46257142Y-103612619D02*
X46161904Y-103660238D01*
X46161904Y-103660238D02*
X46114285Y-103707857D01*
X46114285Y-103707857D02*
X46066666Y-103803095D01*
X46066666Y-103803095D02*
X46066666Y-103945952D01*
X46066666Y-103945952D02*
X46114285Y-104041190D01*
X46114285Y-104041190D02*
X46161904Y-104088809D01*
X46161904Y-104088809D02*
X46257142Y-104136428D01*
X46257142Y-104136428D02*
X46638094Y-104136428D01*
X45733332Y-103612619D02*
X45114285Y-103612619D01*
X45114285Y-103612619D02*
X45447618Y-103993571D01*
X45447618Y-103993571D02*
X45304761Y-103993571D01*
X45304761Y-103993571D02*
X45209523Y-104041190D01*
X45209523Y-104041190D02*
X45161904Y-104088809D01*
X45161904Y-104088809D02*
X45114285Y-104184047D01*
X45114285Y-104184047D02*
X45114285Y-104422142D01*
X45114285Y-104422142D02*
X45161904Y-104517380D01*
X45161904Y-104517380D02*
X45209523Y-104565000D01*
X45209523Y-104565000D02*
X45304761Y-104612619D01*
X45304761Y-104612619D02*
X45590475Y-104612619D01*
X45590475Y-104612619D02*
X45685713Y-104565000D01*
X45685713Y-104565000D02*
X45733332Y-104517380D01*
%TO.C,R4*%
X40754166Y-81062619D02*
X41087499Y-80586428D01*
X41325594Y-81062619D02*
X41325594Y-80062619D01*
X41325594Y-80062619D02*
X40944642Y-80062619D01*
X40944642Y-80062619D02*
X40849404Y-80110238D01*
X40849404Y-80110238D02*
X40801785Y-80157857D01*
X40801785Y-80157857D02*
X40754166Y-80253095D01*
X40754166Y-80253095D02*
X40754166Y-80395952D01*
X40754166Y-80395952D02*
X40801785Y-80491190D01*
X40801785Y-80491190D02*
X40849404Y-80538809D01*
X40849404Y-80538809D02*
X40944642Y-80586428D01*
X40944642Y-80586428D02*
X41325594Y-80586428D01*
X39897023Y-80395952D02*
X39897023Y-81062619D01*
X40135118Y-80015000D02*
X40373213Y-80729285D01*
X40373213Y-80729285D02*
X39754166Y-80729285D01*
%TO.C,C5*%
X72991666Y-110767380D02*
X73039285Y-110815000D01*
X73039285Y-110815000D02*
X73182142Y-110862619D01*
X73182142Y-110862619D02*
X73277380Y-110862619D01*
X73277380Y-110862619D02*
X73420237Y-110815000D01*
X73420237Y-110815000D02*
X73515475Y-110719761D01*
X73515475Y-110719761D02*
X73563094Y-110624523D01*
X73563094Y-110624523D02*
X73610713Y-110434047D01*
X73610713Y-110434047D02*
X73610713Y-110291190D01*
X73610713Y-110291190D02*
X73563094Y-110100714D01*
X73563094Y-110100714D02*
X73515475Y-110005476D01*
X73515475Y-110005476D02*
X73420237Y-109910238D01*
X73420237Y-109910238D02*
X73277380Y-109862619D01*
X73277380Y-109862619D02*
X73182142Y-109862619D01*
X73182142Y-109862619D02*
X73039285Y-109910238D01*
X73039285Y-109910238D02*
X72991666Y-109957857D01*
X72086904Y-109862619D02*
X72563094Y-109862619D01*
X72563094Y-109862619D02*
X72610713Y-110338809D01*
X72610713Y-110338809D02*
X72563094Y-110291190D01*
X72563094Y-110291190D02*
X72467856Y-110243571D01*
X72467856Y-110243571D02*
X72229761Y-110243571D01*
X72229761Y-110243571D02*
X72134523Y-110291190D01*
X72134523Y-110291190D02*
X72086904Y-110338809D01*
X72086904Y-110338809D02*
X72039285Y-110434047D01*
X72039285Y-110434047D02*
X72039285Y-110672142D01*
X72039285Y-110672142D02*
X72086904Y-110767380D01*
X72086904Y-110767380D02*
X72134523Y-110815000D01*
X72134523Y-110815000D02*
X72229761Y-110862619D01*
X72229761Y-110862619D02*
X72467856Y-110862619D01*
X72467856Y-110862619D02*
X72563094Y-110815000D01*
X72563094Y-110815000D02*
X72610713Y-110767380D01*
%TO.C,C1*%
X78641666Y-116767380D02*
X78689285Y-116815000D01*
X78689285Y-116815000D02*
X78832142Y-116862619D01*
X78832142Y-116862619D02*
X78927380Y-116862619D01*
X78927380Y-116862619D02*
X79070237Y-116815000D01*
X79070237Y-116815000D02*
X79165475Y-116719761D01*
X79165475Y-116719761D02*
X79213094Y-116624523D01*
X79213094Y-116624523D02*
X79260713Y-116434047D01*
X79260713Y-116434047D02*
X79260713Y-116291190D01*
X79260713Y-116291190D02*
X79213094Y-116100714D01*
X79213094Y-116100714D02*
X79165475Y-116005476D01*
X79165475Y-116005476D02*
X79070237Y-115910238D01*
X79070237Y-115910238D02*
X78927380Y-115862619D01*
X78927380Y-115862619D02*
X78832142Y-115862619D01*
X78832142Y-115862619D02*
X78689285Y-115910238D01*
X78689285Y-115910238D02*
X78641666Y-115957857D01*
X77689285Y-116862619D02*
X78260713Y-116862619D01*
X77974999Y-116862619D02*
X77974999Y-115862619D01*
X77974999Y-115862619D02*
X78070237Y-116005476D01*
X78070237Y-116005476D02*
X78165475Y-116100714D01*
X78165475Y-116100714D02*
X78260713Y-116148333D01*
%TO.C,R6*%
X74212619Y-129083333D02*
X73736428Y-128750000D01*
X74212619Y-128511905D02*
X73212619Y-128511905D01*
X73212619Y-128511905D02*
X73212619Y-128892857D01*
X73212619Y-128892857D02*
X73260238Y-128988095D01*
X73260238Y-128988095D02*
X73307857Y-129035714D01*
X73307857Y-129035714D02*
X73403095Y-129083333D01*
X73403095Y-129083333D02*
X73545952Y-129083333D01*
X73545952Y-129083333D02*
X73641190Y-129035714D01*
X73641190Y-129035714D02*
X73688809Y-128988095D01*
X73688809Y-128988095D02*
X73736428Y-128892857D01*
X73736428Y-128892857D02*
X73736428Y-128511905D01*
X73212619Y-129940476D02*
X73212619Y-129750000D01*
X73212619Y-129750000D02*
X73260238Y-129654762D01*
X73260238Y-129654762D02*
X73307857Y-129607143D01*
X73307857Y-129607143D02*
X73450714Y-129511905D01*
X73450714Y-129511905D02*
X73641190Y-129464286D01*
X73641190Y-129464286D02*
X74022142Y-129464286D01*
X74022142Y-129464286D02*
X74117380Y-129511905D01*
X74117380Y-129511905D02*
X74165000Y-129559524D01*
X74165000Y-129559524D02*
X74212619Y-129654762D01*
X74212619Y-129654762D02*
X74212619Y-129845238D01*
X74212619Y-129845238D02*
X74165000Y-129940476D01*
X74165000Y-129940476D02*
X74117380Y-129988095D01*
X74117380Y-129988095D02*
X74022142Y-130035714D01*
X74022142Y-130035714D02*
X73784047Y-130035714D01*
X73784047Y-130035714D02*
X73688809Y-129988095D01*
X73688809Y-129988095D02*
X73641190Y-129940476D01*
X73641190Y-129940476D02*
X73593571Y-129845238D01*
X73593571Y-129845238D02*
X73593571Y-129654762D01*
X73593571Y-129654762D02*
X73641190Y-129559524D01*
X73641190Y-129559524D02*
X73688809Y-129511905D01*
X73688809Y-129511905D02*
X73784047Y-129464286D01*
%TO.C,R1*%
X46066666Y-146812619D02*
X46399999Y-146336428D01*
X46638094Y-146812619D02*
X46638094Y-145812619D01*
X46638094Y-145812619D02*
X46257142Y-145812619D01*
X46257142Y-145812619D02*
X46161904Y-145860238D01*
X46161904Y-145860238D02*
X46114285Y-145907857D01*
X46114285Y-145907857D02*
X46066666Y-146003095D01*
X46066666Y-146003095D02*
X46066666Y-146145952D01*
X46066666Y-146145952D02*
X46114285Y-146241190D01*
X46114285Y-146241190D02*
X46161904Y-146288809D01*
X46161904Y-146288809D02*
X46257142Y-146336428D01*
X46257142Y-146336428D02*
X46638094Y-146336428D01*
X45114285Y-146812619D02*
X45685713Y-146812619D01*
X45399999Y-146812619D02*
X45399999Y-145812619D01*
X45399999Y-145812619D02*
X45495237Y-145955476D01*
X45495237Y-145955476D02*
X45590475Y-146050714D01*
X45590475Y-146050714D02*
X45685713Y-146098333D01*
%TO.C,J9*%
X66357466Y-87098495D02*
X66357466Y-87669923D01*
X66357466Y-87669923D02*
X66395561Y-87784209D01*
X66395561Y-87784209D02*
X66471752Y-87860400D01*
X66471752Y-87860400D02*
X66586037Y-87898495D01*
X66586037Y-87898495D02*
X66662228Y-87898495D01*
X65938418Y-87898495D02*
X65786037Y-87898495D01*
X65786037Y-87898495D02*
X65709847Y-87860400D01*
X65709847Y-87860400D02*
X65671751Y-87822304D01*
X65671751Y-87822304D02*
X65595561Y-87708019D01*
X65595561Y-87708019D02*
X65557466Y-87555638D01*
X65557466Y-87555638D02*
X65557466Y-87250876D01*
X65557466Y-87250876D02*
X65595561Y-87174685D01*
X65595561Y-87174685D02*
X65633656Y-87136590D01*
X65633656Y-87136590D02*
X65709847Y-87098495D01*
X65709847Y-87098495D02*
X65862228Y-87098495D01*
X65862228Y-87098495D02*
X65938418Y-87136590D01*
X65938418Y-87136590D02*
X65976513Y-87174685D01*
X65976513Y-87174685D02*
X66014609Y-87250876D01*
X66014609Y-87250876D02*
X66014609Y-87441352D01*
X66014609Y-87441352D02*
X65976513Y-87517542D01*
X65976513Y-87517542D02*
X65938418Y-87555638D01*
X65938418Y-87555638D02*
X65862228Y-87593733D01*
X65862228Y-87593733D02*
X65709847Y-87593733D01*
X65709847Y-87593733D02*
X65633656Y-87555638D01*
X65633656Y-87555638D02*
X65595561Y-87517542D01*
X65595561Y-87517542D02*
X65557466Y-87441352D01*
%TO.C,R9*%
X70537619Y-116883333D02*
X70061428Y-116550000D01*
X70537619Y-116311905D02*
X69537619Y-116311905D01*
X69537619Y-116311905D02*
X69537619Y-116692857D01*
X69537619Y-116692857D02*
X69585238Y-116788095D01*
X69585238Y-116788095D02*
X69632857Y-116835714D01*
X69632857Y-116835714D02*
X69728095Y-116883333D01*
X69728095Y-116883333D02*
X69870952Y-116883333D01*
X69870952Y-116883333D02*
X69966190Y-116835714D01*
X69966190Y-116835714D02*
X70013809Y-116788095D01*
X70013809Y-116788095D02*
X70061428Y-116692857D01*
X70061428Y-116692857D02*
X70061428Y-116311905D01*
X70537619Y-117359524D02*
X70537619Y-117550000D01*
X70537619Y-117550000D02*
X70490000Y-117645238D01*
X70490000Y-117645238D02*
X70442380Y-117692857D01*
X70442380Y-117692857D02*
X70299523Y-117788095D01*
X70299523Y-117788095D02*
X70109047Y-117835714D01*
X70109047Y-117835714D02*
X69728095Y-117835714D01*
X69728095Y-117835714D02*
X69632857Y-117788095D01*
X69632857Y-117788095D02*
X69585238Y-117740476D01*
X69585238Y-117740476D02*
X69537619Y-117645238D01*
X69537619Y-117645238D02*
X69537619Y-117454762D01*
X69537619Y-117454762D02*
X69585238Y-117359524D01*
X69585238Y-117359524D02*
X69632857Y-117311905D01*
X69632857Y-117311905D02*
X69728095Y-117264286D01*
X69728095Y-117264286D02*
X69966190Y-117264286D01*
X69966190Y-117264286D02*
X70061428Y-117311905D01*
X70061428Y-117311905D02*
X70109047Y-117359524D01*
X70109047Y-117359524D02*
X70156666Y-117454762D01*
X70156666Y-117454762D02*
X70156666Y-117645238D01*
X70156666Y-117645238D02*
X70109047Y-117740476D01*
X70109047Y-117740476D02*
X70061428Y-117788095D01*
X70061428Y-117788095D02*
X69966190Y-117835714D01*
%TO.C,R11*%
X61587619Y-55082142D02*
X61111428Y-54748809D01*
X61587619Y-54510714D02*
X60587619Y-54510714D01*
X60587619Y-54510714D02*
X60587619Y-54891666D01*
X60587619Y-54891666D02*
X60635238Y-54986904D01*
X60635238Y-54986904D02*
X60682857Y-55034523D01*
X60682857Y-55034523D02*
X60778095Y-55082142D01*
X60778095Y-55082142D02*
X60920952Y-55082142D01*
X60920952Y-55082142D02*
X61016190Y-55034523D01*
X61016190Y-55034523D02*
X61063809Y-54986904D01*
X61063809Y-54986904D02*
X61111428Y-54891666D01*
X61111428Y-54891666D02*
X61111428Y-54510714D01*
X61587619Y-56034523D02*
X61587619Y-55463095D01*
X61587619Y-55748809D02*
X60587619Y-55748809D01*
X60587619Y-55748809D02*
X60730476Y-55653571D01*
X60730476Y-55653571D02*
X60825714Y-55558333D01*
X60825714Y-55558333D02*
X60873333Y-55463095D01*
X61587619Y-56986904D02*
X61587619Y-56415476D01*
X61587619Y-56701190D02*
X60587619Y-56701190D01*
X60587619Y-56701190D02*
X60730476Y-56605952D01*
X60730476Y-56605952D02*
X60825714Y-56510714D01*
X60825714Y-56510714D02*
X60873333Y-56415476D01*
%TO.C,C4*%
X73016666Y-108642380D02*
X73064285Y-108690000D01*
X73064285Y-108690000D02*
X73207142Y-108737619D01*
X73207142Y-108737619D02*
X73302380Y-108737619D01*
X73302380Y-108737619D02*
X73445237Y-108690000D01*
X73445237Y-108690000D02*
X73540475Y-108594761D01*
X73540475Y-108594761D02*
X73588094Y-108499523D01*
X73588094Y-108499523D02*
X73635713Y-108309047D01*
X73635713Y-108309047D02*
X73635713Y-108166190D01*
X73635713Y-108166190D02*
X73588094Y-107975714D01*
X73588094Y-107975714D02*
X73540475Y-107880476D01*
X73540475Y-107880476D02*
X73445237Y-107785238D01*
X73445237Y-107785238D02*
X73302380Y-107737619D01*
X73302380Y-107737619D02*
X73207142Y-107737619D01*
X73207142Y-107737619D02*
X73064285Y-107785238D01*
X73064285Y-107785238D02*
X73016666Y-107832857D01*
X72159523Y-108070952D02*
X72159523Y-108737619D01*
X72397618Y-107690000D02*
X72635713Y-108404285D01*
X72635713Y-108404285D02*
X72016666Y-108404285D01*
%TO.C,R14*%
X45392857Y-151037619D02*
X45726190Y-150561428D01*
X45964285Y-151037619D02*
X45964285Y-150037619D01*
X45964285Y-150037619D02*
X45583333Y-150037619D01*
X45583333Y-150037619D02*
X45488095Y-150085238D01*
X45488095Y-150085238D02*
X45440476Y-150132857D01*
X45440476Y-150132857D02*
X45392857Y-150228095D01*
X45392857Y-150228095D02*
X45392857Y-150370952D01*
X45392857Y-150370952D02*
X45440476Y-150466190D01*
X45440476Y-150466190D02*
X45488095Y-150513809D01*
X45488095Y-150513809D02*
X45583333Y-150561428D01*
X45583333Y-150561428D02*
X45964285Y-150561428D01*
X44440476Y-151037619D02*
X45011904Y-151037619D01*
X44726190Y-151037619D02*
X44726190Y-150037619D01*
X44726190Y-150037619D02*
X44821428Y-150180476D01*
X44821428Y-150180476D02*
X44916666Y-150275714D01*
X44916666Y-150275714D02*
X45011904Y-150323333D01*
X43583333Y-150370952D02*
X43583333Y-151037619D01*
X43821428Y-149990000D02*
X44059523Y-150704285D01*
X44059523Y-150704285D02*
X43440476Y-150704285D01*
%TO.C,R5*%
X46066666Y-172562619D02*
X46399999Y-172086428D01*
X46638094Y-172562619D02*
X46638094Y-171562619D01*
X46638094Y-171562619D02*
X46257142Y-171562619D01*
X46257142Y-171562619D02*
X46161904Y-171610238D01*
X46161904Y-171610238D02*
X46114285Y-171657857D01*
X46114285Y-171657857D02*
X46066666Y-171753095D01*
X46066666Y-171753095D02*
X46066666Y-171895952D01*
X46066666Y-171895952D02*
X46114285Y-171991190D01*
X46114285Y-171991190D02*
X46161904Y-172038809D01*
X46161904Y-172038809D02*
X46257142Y-172086428D01*
X46257142Y-172086428D02*
X46638094Y-172086428D01*
X45161904Y-171562619D02*
X45638094Y-171562619D01*
X45638094Y-171562619D02*
X45685713Y-172038809D01*
X45685713Y-172038809D02*
X45638094Y-171991190D01*
X45638094Y-171991190D02*
X45542856Y-171943571D01*
X45542856Y-171943571D02*
X45304761Y-171943571D01*
X45304761Y-171943571D02*
X45209523Y-171991190D01*
X45209523Y-171991190D02*
X45161904Y-172038809D01*
X45161904Y-172038809D02*
X45114285Y-172134047D01*
X45114285Y-172134047D02*
X45114285Y-172372142D01*
X45114285Y-172372142D02*
X45161904Y-172467380D01*
X45161904Y-172467380D02*
X45209523Y-172515000D01*
X45209523Y-172515000D02*
X45304761Y-172562619D01*
X45304761Y-172562619D02*
X45542856Y-172562619D01*
X45542856Y-172562619D02*
X45638094Y-172515000D01*
X45638094Y-172515000D02*
X45685713Y-172467380D01*
%TO.C,BZ1*%
X43830000Y-161686000D02*
X45830000Y-161686000D01*
X45830000Y-161686000D02*
X45830000Y-156936000D01*
X45830000Y-156936000D02*
X44080000Y-156936000D01*
X39080000Y-155186000D02*
G75*
G03*
X39080001Y-163686000I1250000J-4250000D01*
G01*
X41580000Y-163435999D02*
G75*
G03*
X43855180Y-161702187I-1249996J3999994D01*
G01*
X44079999Y-156936000D02*
G75*
G03*
X41536254Y-155093484I-3750001J-2500002D01*
G01*
D12*
%TO.C,R13*%
X76077064Y-113085000D02*
X75622936Y-113085000D01*
X76077064Y-111615000D02*
X75622936Y-111615000D01*
%TO.C,C2*%
X75588748Y-117515000D02*
X76111252Y-117515000D01*
X75588748Y-118985000D02*
X76111252Y-118985000D01*
%TO.C,U1*%
X72540000Y-121190000D02*
X72540000Y-121665000D01*
X73015000Y-121190000D02*
X72540000Y-121190000D01*
X73015000Y-125410000D02*
X72540000Y-125410000D01*
X76285000Y-121190000D02*
X76760000Y-121190000D01*
X76285000Y-125410000D02*
X76760000Y-125410000D01*
X76760000Y-121190000D02*
X76760000Y-121665000D01*
X76760000Y-125410000D02*
X76760000Y-124935000D01*
%TO.C,R7*%
X68372936Y-123415000D02*
X68827064Y-123415000D01*
X68372936Y-124885000D02*
X68827064Y-124885000D01*
%TO.C,C3*%
X75588748Y-113565000D02*
X76111252Y-113565000D01*
X75588748Y-115035000D02*
X76111252Y-115035000D01*
%TO.C,R8*%
X69035000Y-116922936D02*
X69035000Y-117377064D01*
X67565000Y-116922936D02*
X67565000Y-117377064D01*
%TO.C,R10*%
X75515000Y-129427064D02*
X75515000Y-128972936D01*
X76985000Y-129427064D02*
X76985000Y-128972936D01*
%TO.C,R2*%
X45672936Y-120815000D02*
X46127064Y-120815000D01*
X45672936Y-122285000D02*
X46127064Y-122285000D01*
%TO.C,Q1*%
X57050000Y-50235000D02*
X57700000Y-50235000D01*
X57050000Y-50235000D02*
X56400000Y-50235000D01*
X57050000Y-47115000D02*
X58725000Y-47115000D01*
X57050000Y-47115000D02*
X56400000Y-47115000D01*
%TO.C,R12*%
X57352064Y-53360000D02*
X56897936Y-53360000D01*
X57352064Y-51890000D02*
X56897936Y-51890000D01*
%TO.C,D6*%
X44010000Y-149450000D02*
X40150000Y-149450000D01*
X44010000Y-147450000D02*
X44010000Y-149450000D01*
X44010000Y-147450000D02*
X40150000Y-147450000D01*
%TO.C,R3*%
X45672936Y-101765000D02*
X46127064Y-101765000D01*
X45672936Y-103235000D02*
X46127064Y-103235000D01*
%TO.C,R4*%
X40360436Y-78215000D02*
X40814564Y-78215000D01*
X40360436Y-79685000D02*
X40814564Y-79685000D01*
%TO.C,C5*%
X76111252Y-111135000D02*
X75588748Y-111135000D01*
X76111252Y-109665000D02*
X75588748Y-109665000D01*
%TO.C,C1*%
X75588748Y-115565000D02*
X76111252Y-115565000D01*
X75588748Y-117035000D02*
X76111252Y-117035000D01*
%TO.C,R6*%
X71365000Y-129477064D02*
X71365000Y-129022936D01*
X72835000Y-129477064D02*
X72835000Y-129022936D01*
%TO.C,R1*%
X45672936Y-147765000D02*
X46127064Y-147765000D01*
X45672936Y-149235000D02*
X46127064Y-149235000D01*
%TO.C,J9*%
X65060000Y-85440000D02*
X65060000Y-89560000D01*
X64760000Y-85440000D02*
X65060000Y-85440000D01*
X62760000Y-85440000D02*
X63240000Y-85440000D01*
X60760000Y-85440000D02*
X61240000Y-85440000D01*
X58760000Y-85440000D02*
X59240000Y-85440000D01*
X56760000Y-85440000D02*
X57240000Y-85440000D01*
X54760000Y-85440000D02*
X55240000Y-85440000D01*
X52760000Y-85440000D02*
X53240000Y-85440000D01*
X50760000Y-85440000D02*
X51240000Y-85440000D01*
X48940000Y-85440000D02*
X49240000Y-85440000D01*
X48940000Y-85440000D02*
X48940000Y-89560000D01*
X64760000Y-89560000D02*
X65060000Y-89560000D01*
X62760000Y-89560000D02*
X63240000Y-89560000D01*
X60760000Y-89560000D02*
X61240000Y-89560000D01*
X58760000Y-89560000D02*
X59240000Y-89560000D01*
X56760000Y-89560000D02*
X57240000Y-89560000D01*
X54760000Y-89560000D02*
X55240000Y-89560000D01*
X52760000Y-89560000D02*
X53240000Y-89560000D01*
X50760000Y-89560000D02*
X51240000Y-89560000D01*
X49240000Y-89560000D02*
X49240000Y-91940000D01*
X48940000Y-89560000D02*
X49240000Y-89560000D01*
%TO.C,R9*%
X72385000Y-116922936D02*
X72385000Y-117377064D01*
X70915000Y-116922936D02*
X70915000Y-117377064D01*
%TO.C,R11*%
X56897936Y-53740000D02*
X57352064Y-53740000D01*
X56897936Y-55210000D02*
X57352064Y-55210000D01*
%TO.C,C4*%
X76111252Y-109135000D02*
X75588748Y-109135000D01*
X76111252Y-107665000D02*
X75588748Y-107665000D01*
%TO.C,R14*%
X41527064Y-151335000D02*
X41072936Y-151335000D01*
X41527064Y-149865000D02*
X41072936Y-149865000D01*
%TO.C,R5*%
X45672936Y-169715000D02*
X46127064Y-169715000D01*
X45672936Y-171185000D02*
X46127064Y-171185000D01*
%TD*%
M02*
