%TF.GenerationSoftware,KiCad,Pcbnew,7.0.2*%
%TF.CreationDate,2023-05-22T14:24:39+07:00*%
%TF.ProjectId,ph_portable_refrigerator_display_hw_v2,70685f70-6f72-4746-9162-6c655f726566,rev?*%
%TF.SameCoordinates,Original*%
%TF.FileFunction,Paste,Bot*%
%TF.FilePolarity,Positive*%
%FSLAX46Y46*%
G04 Gerber Fmt 4.6, Leading zero omitted, Abs format (unit mm)*
G04 Created by KiCad (PCBNEW 7.0.2) date 2023-05-22 14:24:39*
%MOMM*%
%LPD*%
G01*
G04 APERTURE LIST*
G04 Aperture macros list*
%AMRoundRect*
0 Rectangle with rounded corners*
0 $1 Rounding radius*
0 $2 $3 $4 $5 $6 $7 $8 $9 X,Y pos of 4 corners*
0 Add a 4 corners polygon primitive as box body*
4,1,4,$2,$3,$4,$5,$6,$7,$8,$9,$2,$3,0*
0 Add four circle primitives for the rounded corners*
1,1,$1+$1,$2,$3*
1,1,$1+$1,$4,$5*
1,1,$1+$1,$6,$7*
1,1,$1+$1,$8,$9*
0 Add four rect primitives between the rounded corners*
20,1,$1+$1,$2,$3,$4,$5,0*
20,1,$1+$1,$4,$5,$6,$7,0*
20,1,$1+$1,$6,$7,$8,$9,0*
20,1,$1+$1,$8,$9,$2,$3,0*%
G04 Aperture macros list end*
%ADD10O,3.000000X0.500000*%
%ADD11R,2.224000X4.000000*%
%ADD12O,2.224000X4.000000*%
%ADD13RoundRect,0.250000X0.262500X0.450000X-0.262500X0.450000X-0.262500X-0.450000X0.262500X-0.450000X0*%
%ADD14RoundRect,0.250000X-0.250000X-0.475000X0.250000X-0.475000X0.250000X0.475000X-0.250000X0.475000X0*%
%ADD15RoundRect,0.250000X-0.275000X-0.275000X0.275000X-0.275000X0.275000X0.275000X-0.275000X0.275000X0*%
%ADD16RoundRect,0.062500X-0.350000X-0.062500X0.350000X-0.062500X0.350000X0.062500X-0.350000X0.062500X0*%
%ADD17RoundRect,0.062500X-0.062500X-0.350000X0.062500X-0.350000X0.062500X0.350000X-0.062500X0.350000X0*%
%ADD18RoundRect,0.250000X-0.262500X-0.450000X0.262500X-0.450000X0.262500X0.450000X-0.262500X0.450000X0*%
%ADD19RoundRect,0.250000X-0.450000X0.262500X-0.450000X-0.262500X0.450000X-0.262500X0.450000X0.262500X0*%
%ADD20RoundRect,0.250000X0.450000X-0.262500X0.450000X0.262500X-0.450000X0.262500X-0.450000X-0.262500X0*%
%ADD21RoundRect,0.150000X0.587500X0.150000X-0.587500X0.150000X-0.587500X-0.150000X0.587500X-0.150000X0*%
%ADD22RoundRect,0.250000X0.300000X0.300000X-0.300000X0.300000X-0.300000X-0.300000X0.300000X-0.300000X0*%
%ADD23RoundRect,0.250000X0.250000X0.475000X-0.250000X0.475000X-0.250000X-0.475000X0.250000X-0.475000X0*%
%ADD24R,1.000000X2.750000*%
G04 APERTURE END LIST*
D10*
%TO.C,J6*%
X50727500Y-49447500D03*
X50727500Y-48647500D03*
X50727500Y-47847500D03*
X50727500Y-47047500D03*
X50727500Y-46247500D03*
X50727500Y-45447500D03*
X50727500Y-44647500D03*
X50727500Y-43847500D03*
X50727500Y-43047500D03*
X50727500Y-42247500D03*
X50727500Y-41447500D03*
X50727500Y-40647500D03*
%TD*%
D11*
%TO.C,BZ1*%
X40330000Y-163936000D03*
D12*
X40330000Y-154936000D03*
%TD*%
D13*
%TO.C,R13*%
X76762500Y-112350000D03*
X74937500Y-112350000D03*
%TD*%
D14*
%TO.C,C2*%
X74900000Y-118250000D03*
X76800000Y-118250000D03*
%TD*%
D15*
%TO.C,U1*%
X74000000Y-122650000D03*
X74000000Y-123950000D03*
X75300000Y-122650000D03*
X75300000Y-123950000D03*
D16*
X72712500Y-124550000D03*
X72712500Y-124050000D03*
X72712500Y-123550000D03*
X72712500Y-123050000D03*
X72712500Y-122550000D03*
X72712500Y-122050000D03*
D17*
X73400000Y-121362500D03*
X73900000Y-121362500D03*
X74400000Y-121362500D03*
X74900000Y-121362500D03*
X75400000Y-121362500D03*
X75900000Y-121362500D03*
D16*
X76587500Y-122050000D03*
X76587500Y-122550000D03*
X76587500Y-123050000D03*
X76587500Y-123550000D03*
X76587500Y-124050000D03*
X76587500Y-124550000D03*
D17*
X75900000Y-125237500D03*
X75400000Y-125237500D03*
X74900000Y-125237500D03*
X74400000Y-125237500D03*
X73900000Y-125237500D03*
X73400000Y-125237500D03*
%TD*%
D18*
%TO.C,R7*%
X67687500Y-124150000D03*
X69512500Y-124150000D03*
%TD*%
D14*
%TO.C,C3*%
X74900000Y-114300000D03*
X76800000Y-114300000D03*
%TD*%
D19*
%TO.C,R8*%
X68300000Y-116237500D03*
X68300000Y-118062500D03*
%TD*%
D20*
%TO.C,R10*%
X76250000Y-130112500D03*
X76250000Y-128287500D03*
%TD*%
D18*
%TO.C,R2*%
X44987500Y-121550000D03*
X46812500Y-121550000D03*
%TD*%
D21*
%TO.C,Q1*%
X57987500Y-47725000D03*
X57987500Y-49625000D03*
X56112500Y-48675000D03*
%TD*%
D13*
%TO.C,R12*%
X58037500Y-52625000D03*
X56212500Y-52625000D03*
%TD*%
D22*
%TO.C,D6*%
X43200000Y-148450000D03*
X40400000Y-148450000D03*
%TD*%
D18*
%TO.C,R3*%
X44987500Y-102500000D03*
X46812500Y-102500000D03*
%TD*%
%TO.C,R4*%
X39675000Y-78950000D03*
X41500000Y-78950000D03*
%TD*%
D23*
%TO.C,C5*%
X76800000Y-110400000D03*
X74900000Y-110400000D03*
%TD*%
D14*
%TO.C,C1*%
X74900000Y-116300000D03*
X76800000Y-116300000D03*
%TD*%
D20*
%TO.C,R6*%
X72100000Y-130162500D03*
X72100000Y-128337500D03*
%TD*%
D18*
%TO.C,R1*%
X44987500Y-148500000D03*
X46812500Y-148500000D03*
%TD*%
D24*
%TO.C,J9*%
X50000000Y-90625000D03*
X50000000Y-84375000D03*
X52000000Y-90625000D03*
X52000000Y-84375000D03*
X54000000Y-90625000D03*
X54000000Y-84375000D03*
X56000000Y-90625000D03*
X56000000Y-84375000D03*
X58000000Y-90625000D03*
X58000000Y-84375000D03*
X60000000Y-90625000D03*
X60000000Y-84375000D03*
X62000000Y-90625000D03*
X62000000Y-84375000D03*
X64000000Y-90625000D03*
X64000000Y-84375000D03*
%TD*%
D19*
%TO.C,R9*%
X71650000Y-116237500D03*
X71650000Y-118062500D03*
%TD*%
D18*
%TO.C,R11*%
X56212500Y-54475000D03*
X58037500Y-54475000D03*
%TD*%
D23*
%TO.C,C4*%
X76800000Y-108400000D03*
X74900000Y-108400000D03*
%TD*%
D13*
%TO.C,R14*%
X42212500Y-150600000D03*
X40387500Y-150600000D03*
%TD*%
D18*
%TO.C,R5*%
X44987500Y-170450000D03*
X46812500Y-170450000D03*
%TD*%
M02*
