M48
; DRILL file {KiCad 7.0.2} date Mon May 22 14:24:41 2023
; FORMAT={-:-/ absolute / inch / decimal}
; #@! TF.CreationDate,2023-05-22T14:24:41+07:00
; #@! TF.GenerationSoftware,Kicad,Pcbnew,7.0.2
; #@! TF.FileFunction,MixedPlating,1,2
FMAT,2
INCH
; #@! TA.AperFunction,Plated,PTH,ViaDrill
T1C0.0118
; #@! TA.AperFunction,Plated,PTH,ViaDrill
T2C0.0157
; #@! TA.AperFunction,Plated,PTH,ViaDrill
T3C0.0197
; #@! TA.AperFunction,Plated,PTH,ComponentDrill
T4C0.0236
; #@! TA.AperFunction,Plated,PTH,ComponentDrill
T5C0.0256
; #@! TA.AperFunction,Plated,PTH,ComponentDrill
T6C0.1181
; #@! TA.AperFunction,Plated,PTH,ComponentDrill
T7C0.1575
; #@! TA.AperFunction,NonPlated,NPTH,ComponentDrill
T8C0.0295
%
G90
G05
T1
X1.3963Y-7.2421
X1.4345Y-7.2421
X1.4449Y-5.624
X1.4728Y-7.2421
X1.5111Y-7.2421
X1.5493Y-7.2421
X1.5876Y-7.2421
X1.6417Y-3.0335
X1.6909Y-1.8858
X1.6929Y-1.8543
X1.6929Y-1.8543
X1.7087Y-1.6348
X1.7343Y-5.3346
X1.8268Y-2.0197
X1.8986Y-2.1053
X1.9803Y-2.6083
X1.9951Y-2.0049
X2.0797Y-1.8524
X2.1161Y-1.8524
X2.1575Y-1.8524
X2.188Y-2.0069
X2.19Y-1.8514
X2.2402Y-4.9331
X2.2421Y-2.9783
X2.2421Y-3.8819
X2.2441Y-4.0276
X2.2441Y-4.7953
X2.2441Y-5.8425
X2.2461Y-6.5984
X2.2461Y-6.748
X2.248Y-3.126
X2.248Y-5.6969
X2.7165Y-3.3228
X2.7224Y-4.752
X2.7244Y-4.7087
X2.7441Y-5.5492
X2.752Y-3.2835
X2.7672Y-5.0851
X2.7884Y-2.6486
X2.8081Y-4.4715
X2.813Y-2.939
X2.8159Y-2.5059
X2.8179Y-2.3041
X2.8189Y-2.1014
X2.8543Y-4.9331
X2.8691Y-4.3749
X2.874Y-3.1417
X2.8829Y-3.8888
X2.9084Y-4.7028
X2.9469Y-5.0256
X2.9475Y-4.7037
X2.9488Y-4.1555
X2.9567Y-7.2411
X2.9685Y-4.9941
X2.9917Y-7.2411
X3.0039Y-4.7254
X3.0236Y-4.3091
X3.0268Y-7.2411
X3.0492Y-3.7264
X3.0492Y-4.9882
X3.061Y-4.1594
X3.0618Y-7.2411
X3.063Y-4.7894
X3.065Y-4.8543
X3.066Y-4.8224
X3.066Y-4.8898
X3.0837Y-4.9528
X3.0969Y-7.2411
X3.1319Y-7.2411
X3.1329Y-4.7303
T2
X1.4311Y-7.7116
X1.4665Y-7.312
X1.4665Y-7.5187
X1.4665Y-7.6526
X1.4675Y-7.7628
X1.7382Y-7.4222
X1.8622Y-7.3593
X1.8976Y-7.6073
X1.935Y-7.4341
X1.9419Y-7.7451
X1.9941Y-7.6053
X2.2421Y-7.4518
X2.2539Y-7.3848
X2.5846Y-7.378
X2.6083Y-7.7392
X2.6348Y-7.5955
X2.7677Y-7.3573
X2.7677Y-7.4911
X2.7677Y-7.6053
X2.7677Y-7.7392
X2.9134Y-7.3573
X2.9134Y-7.4911
X2.9134Y-7.6053
X2.9134Y-7.7392
X3.0807Y-7.3553
X3.0807Y-7.4892
X3.0807Y-7.6033
X3.0807Y-7.7372
T3
X2.752Y-3.3228
T4
X2.0839Y-5.0203
X2.1725Y-4.8628
X2.3141Y-3.0514
X2.3141Y-3.9569
X2.3141Y-5.7679
X2.3152Y-6.6738
X2.4026Y-2.8939
X2.4026Y-3.7994
X2.4026Y-5.6104
X2.4038Y-6.5163
T5
X1.5555Y-7.6368
X1.6055Y-7.6368
X1.6555Y-7.6368
X1.7055Y-7.6368
X1.7555Y-7.6368
X1.8055Y-7.6368
T6
X1.5157Y-0.9843
X1.5157Y-7.1457
X3.0315Y-0.9843
X3.0315Y-7.1457
T7
X1.5551Y-2.7165
X2.9724Y-2.7165
X2.9724Y-3.4843
T8
X2.0669Y-7.7864
X2.4016Y-7.7864
T0
M30
