%TF.GenerationSoftware,KiCad,Pcbnew,7.0.2*%
%TF.CreationDate,2023-05-22T14:24:39+07:00*%
%TF.ProjectId,ph_portable_refrigerator_display_hw_v2,70685f70-6f72-4746-9162-6c655f726566,rev?*%
%TF.SameCoordinates,Original*%
%TF.FileFunction,Legend,Top*%
%TF.FilePolarity,Positive*%
%FSLAX46Y46*%
G04 Gerber Fmt 4.6, Leading zero omitted, Abs format (unit mm)*
G04 Created by KiCad (PCBNEW 7.0.2) date 2023-05-22 14:24:39*
%MOMM*%
%LPD*%
G01*
G04 APERTURE LIST*
%ADD10C,0.150000*%
%ADD11C,0.100000*%
%ADD12C,0.120000*%
%ADD13C,0.200000*%
%ADD14C,0.010000*%
%ADD15C,4.000000*%
%ADD16C,3.000000*%
G04 APERTURE END LIST*
D10*
X68375000Y-192225000D02*
X66375000Y-192225000D01*
X66375000Y-190325000D01*
X66950000Y-189750000D01*
X68375000Y-189750000D01*
X68375000Y-192225000D01*
G36*
X68375000Y-192225000D02*
G01*
X66375000Y-192225000D01*
X66375000Y-190325000D01*
X66950000Y-189750000D01*
X68375000Y-189750000D01*
X68375000Y-192225000D01*
G37*
X65272666Y-193658333D02*
X65739333Y-193658333D01*
X65339333Y-193658333D02*
X65306000Y-193625000D01*
X65306000Y-193625000D02*
X65272666Y-193558333D01*
X65272666Y-193558333D02*
X65272666Y-193458333D01*
X65272666Y-193458333D02*
X65306000Y-193391666D01*
X65306000Y-193391666D02*
X65372666Y-193358333D01*
X65372666Y-193358333D02*
X65739333Y-193358333D01*
X65739333Y-192725000D02*
X65372666Y-192725000D01*
X65372666Y-192725000D02*
X65306000Y-192758333D01*
X65306000Y-192758333D02*
X65272666Y-192825000D01*
X65272666Y-192825000D02*
X65272666Y-192958333D01*
X65272666Y-192958333D02*
X65306000Y-193025000D01*
X65706000Y-192725000D02*
X65739333Y-192791667D01*
X65739333Y-192791667D02*
X65739333Y-192958333D01*
X65739333Y-192958333D02*
X65706000Y-193025000D01*
X65706000Y-193025000D02*
X65639333Y-193058333D01*
X65639333Y-193058333D02*
X65572666Y-193058333D01*
X65572666Y-193058333D02*
X65506000Y-193025000D01*
X65506000Y-193025000D02*
X65472666Y-192958333D01*
X65472666Y-192958333D02*
X65472666Y-192791667D01*
X65472666Y-192791667D02*
X65439333Y-192725000D01*
X65272666Y-192391667D02*
X65739333Y-192391667D01*
X65339333Y-192391667D02*
X65306000Y-192358334D01*
X65306000Y-192358334D02*
X65272666Y-192291667D01*
X65272666Y-192291667D02*
X65272666Y-192191667D01*
X65272666Y-192191667D02*
X65306000Y-192125000D01*
X65306000Y-192125000D02*
X65372666Y-192091667D01*
X65372666Y-192091667D02*
X65739333Y-192091667D01*
X65739333Y-191658334D02*
X65706000Y-191725001D01*
X65706000Y-191725001D02*
X65672666Y-191758334D01*
X65672666Y-191758334D02*
X65606000Y-191791667D01*
X65606000Y-191791667D02*
X65406000Y-191791667D01*
X65406000Y-191791667D02*
X65339333Y-191758334D01*
X65339333Y-191758334D02*
X65306000Y-191725001D01*
X65306000Y-191725001D02*
X65272666Y-191658334D01*
X65272666Y-191658334D02*
X65272666Y-191558334D01*
X65272666Y-191558334D02*
X65306000Y-191491667D01*
X65306000Y-191491667D02*
X65339333Y-191458334D01*
X65339333Y-191458334D02*
X65406000Y-191425001D01*
X65406000Y-191425001D02*
X65606000Y-191425001D01*
X65606000Y-191425001D02*
X65672666Y-191458334D01*
X65672666Y-191458334D02*
X65706000Y-191491667D01*
X65706000Y-191491667D02*
X65739333Y-191558334D01*
X65739333Y-191558334D02*
X65739333Y-191658334D01*
X65706000Y-190625001D02*
X65739333Y-190525001D01*
X65739333Y-190525001D02*
X65739333Y-190358335D01*
X65739333Y-190358335D02*
X65706000Y-190291668D01*
X65706000Y-190291668D02*
X65672666Y-190258335D01*
X65672666Y-190258335D02*
X65606000Y-190225001D01*
X65606000Y-190225001D02*
X65539333Y-190225001D01*
X65539333Y-190225001D02*
X65472666Y-190258335D01*
X65472666Y-190258335D02*
X65439333Y-190291668D01*
X65439333Y-190291668D02*
X65406000Y-190358335D01*
X65406000Y-190358335D02*
X65372666Y-190491668D01*
X65372666Y-190491668D02*
X65339333Y-190558335D01*
X65339333Y-190558335D02*
X65306000Y-190591668D01*
X65306000Y-190591668D02*
X65239333Y-190625001D01*
X65239333Y-190625001D02*
X65172666Y-190625001D01*
X65172666Y-190625001D02*
X65106000Y-190591668D01*
X65106000Y-190591668D02*
X65072666Y-190558335D01*
X65072666Y-190558335D02*
X65039333Y-190491668D01*
X65039333Y-190491668D02*
X65039333Y-190325001D01*
X65039333Y-190325001D02*
X65072666Y-190225001D01*
X65739333Y-189925001D02*
X65039333Y-189925001D01*
X65739333Y-189591668D02*
X65039333Y-189591668D01*
X65039333Y-189591668D02*
X65539333Y-189358335D01*
X65539333Y-189358335D02*
X65039333Y-189125001D01*
X65039333Y-189125001D02*
X65739333Y-189125001D01*
X43714333Y-197183333D02*
X43014333Y-197183333D01*
X43014333Y-197183333D02*
X43014333Y-197016666D01*
X43014333Y-197016666D02*
X43047666Y-196916666D01*
X43047666Y-196916666D02*
X43114333Y-196850000D01*
X43114333Y-196850000D02*
X43181000Y-196816666D01*
X43181000Y-196816666D02*
X43314333Y-196783333D01*
X43314333Y-196783333D02*
X43414333Y-196783333D01*
X43414333Y-196783333D02*
X43547666Y-196816666D01*
X43547666Y-196816666D02*
X43614333Y-196850000D01*
X43614333Y-196850000D02*
X43681000Y-196916666D01*
X43681000Y-196916666D02*
X43714333Y-197016666D01*
X43714333Y-197016666D02*
X43714333Y-197183333D01*
X43514333Y-196516666D02*
X43514333Y-196183333D01*
X43714333Y-196583333D02*
X43014333Y-196350000D01*
X43014333Y-196350000D02*
X43714333Y-196116666D01*
X43014333Y-195983333D02*
X43014333Y-195583333D01*
X43714333Y-195783333D02*
X43014333Y-195783333D01*
X43514333Y-195383333D02*
X43514333Y-195050000D01*
X43714333Y-195450000D02*
X43014333Y-195216667D01*
X43014333Y-195216667D02*
X43714333Y-194983333D01*
X44897666Y-196783333D02*
X44931000Y-196816666D01*
X44931000Y-196816666D02*
X44964333Y-196916666D01*
X44964333Y-196916666D02*
X44964333Y-196983333D01*
X44964333Y-196983333D02*
X44931000Y-197083333D01*
X44931000Y-197083333D02*
X44864333Y-197150000D01*
X44864333Y-197150000D02*
X44797666Y-197183333D01*
X44797666Y-197183333D02*
X44664333Y-197216666D01*
X44664333Y-197216666D02*
X44564333Y-197216666D01*
X44564333Y-197216666D02*
X44431000Y-197183333D01*
X44431000Y-197183333D02*
X44364333Y-197150000D01*
X44364333Y-197150000D02*
X44297666Y-197083333D01*
X44297666Y-197083333D02*
X44264333Y-196983333D01*
X44264333Y-196983333D02*
X44264333Y-196916666D01*
X44264333Y-196916666D02*
X44297666Y-196816666D01*
X44297666Y-196816666D02*
X44331000Y-196783333D01*
X44964333Y-196150000D02*
X44964333Y-196483333D01*
X44964333Y-196483333D02*
X44264333Y-196483333D01*
X44964333Y-195916666D02*
X44264333Y-195916666D01*
X44964333Y-195516666D02*
X44564333Y-195816666D01*
X44264333Y-195516666D02*
X44664333Y-195916666D01*
X40447666Y-196816666D02*
X40414333Y-196883333D01*
X40414333Y-196883333D02*
X40414333Y-196983333D01*
X40414333Y-196983333D02*
X40447666Y-197083333D01*
X40447666Y-197083333D02*
X40514333Y-197150000D01*
X40514333Y-197150000D02*
X40581000Y-197183333D01*
X40581000Y-197183333D02*
X40714333Y-197216666D01*
X40714333Y-197216666D02*
X40814333Y-197216666D01*
X40814333Y-197216666D02*
X40947666Y-197183333D01*
X40947666Y-197183333D02*
X41014333Y-197150000D01*
X41014333Y-197150000D02*
X41081000Y-197083333D01*
X41081000Y-197083333D02*
X41114333Y-196983333D01*
X41114333Y-196983333D02*
X41114333Y-196916666D01*
X41114333Y-196916666D02*
X41081000Y-196816666D01*
X41081000Y-196816666D02*
X41047666Y-196783333D01*
X41047666Y-196783333D02*
X40814333Y-196783333D01*
X40814333Y-196783333D02*
X40814333Y-196916666D01*
X41114333Y-196483333D02*
X40414333Y-196483333D01*
X40414333Y-196483333D02*
X41114333Y-196083333D01*
X41114333Y-196083333D02*
X40414333Y-196083333D01*
X41114333Y-195750000D02*
X40414333Y-195750000D01*
X40414333Y-195750000D02*
X40414333Y-195583333D01*
X40414333Y-195583333D02*
X40447666Y-195483333D01*
X40447666Y-195483333D02*
X40514333Y-195416667D01*
X40514333Y-195416667D02*
X40581000Y-195383333D01*
X40581000Y-195383333D02*
X40714333Y-195350000D01*
X40714333Y-195350000D02*
X40814333Y-195350000D01*
X40814333Y-195350000D02*
X40947666Y-195383333D01*
X40947666Y-195383333D02*
X41014333Y-195416667D01*
X41014333Y-195416667D02*
X41081000Y-195483333D01*
X41081000Y-195483333D02*
X41114333Y-195583333D01*
X41114333Y-195583333D02*
X41114333Y-195750000D01*
X46289333Y-197158333D02*
X45589333Y-197158333D01*
X45589333Y-197158333D02*
X45589333Y-196991666D01*
X45589333Y-196991666D02*
X45622666Y-196891666D01*
X45622666Y-196891666D02*
X45689333Y-196825000D01*
X45689333Y-196825000D02*
X45756000Y-196791666D01*
X45756000Y-196791666D02*
X45889333Y-196758333D01*
X45889333Y-196758333D02*
X45989333Y-196758333D01*
X45989333Y-196758333D02*
X46122666Y-196791666D01*
X46122666Y-196791666D02*
X46189333Y-196825000D01*
X46189333Y-196825000D02*
X46256000Y-196891666D01*
X46256000Y-196891666D02*
X46289333Y-196991666D01*
X46289333Y-196991666D02*
X46289333Y-197158333D01*
X45922666Y-196458333D02*
X45922666Y-196225000D01*
X46289333Y-196125000D02*
X46289333Y-196458333D01*
X46289333Y-196458333D02*
X45589333Y-196458333D01*
X45589333Y-196458333D02*
X45589333Y-196125000D01*
X45589333Y-195925000D02*
X45589333Y-195525000D01*
X46289333Y-195725000D02*
X45589333Y-195725000D01*
X42439333Y-196783333D02*
X42106000Y-197016666D01*
X42439333Y-197183333D02*
X41739333Y-197183333D01*
X41739333Y-197183333D02*
X41739333Y-196916666D01*
X41739333Y-196916666D02*
X41772666Y-196850000D01*
X41772666Y-196850000D02*
X41806000Y-196816666D01*
X41806000Y-196816666D02*
X41872666Y-196783333D01*
X41872666Y-196783333D02*
X41972666Y-196783333D01*
X41972666Y-196783333D02*
X42039333Y-196816666D01*
X42039333Y-196816666D02*
X42072666Y-196850000D01*
X42072666Y-196850000D02*
X42106000Y-196916666D01*
X42106000Y-196916666D02*
X42106000Y-197183333D01*
X42406000Y-196516666D02*
X42439333Y-196416666D01*
X42439333Y-196416666D02*
X42439333Y-196250000D01*
X42439333Y-196250000D02*
X42406000Y-196183333D01*
X42406000Y-196183333D02*
X42372666Y-196150000D01*
X42372666Y-196150000D02*
X42306000Y-196116666D01*
X42306000Y-196116666D02*
X42239333Y-196116666D01*
X42239333Y-196116666D02*
X42172666Y-196150000D01*
X42172666Y-196150000D02*
X42139333Y-196183333D01*
X42139333Y-196183333D02*
X42106000Y-196250000D01*
X42106000Y-196250000D02*
X42072666Y-196383333D01*
X42072666Y-196383333D02*
X42039333Y-196450000D01*
X42039333Y-196450000D02*
X42006000Y-196483333D01*
X42006000Y-196483333D02*
X41939333Y-196516666D01*
X41939333Y-196516666D02*
X41872666Y-196516666D01*
X41872666Y-196516666D02*
X41806000Y-196483333D01*
X41806000Y-196483333D02*
X41772666Y-196450000D01*
X41772666Y-196450000D02*
X41739333Y-196383333D01*
X41739333Y-196383333D02*
X41739333Y-196216666D01*
X41739333Y-196216666D02*
X41772666Y-196116666D01*
X41739333Y-195916666D02*
X41739333Y-195516666D01*
X42439333Y-195716666D02*
X41739333Y-195716666D01*
X39147666Y-197250000D02*
X39614333Y-197083333D01*
X39614333Y-197083333D02*
X39147666Y-196916666D01*
X39581000Y-196683333D02*
X39614333Y-196616667D01*
X39614333Y-196616667D02*
X39614333Y-196483333D01*
X39614333Y-196483333D02*
X39581000Y-196416667D01*
X39581000Y-196416667D02*
X39514333Y-196383333D01*
X39514333Y-196383333D02*
X39481000Y-196383333D01*
X39481000Y-196383333D02*
X39414333Y-196416667D01*
X39414333Y-196416667D02*
X39381000Y-196483333D01*
X39381000Y-196483333D02*
X39381000Y-196583333D01*
X39381000Y-196583333D02*
X39347666Y-196650000D01*
X39347666Y-196650000D02*
X39281000Y-196683333D01*
X39281000Y-196683333D02*
X39247666Y-196683333D01*
X39247666Y-196683333D02*
X39181000Y-196650000D01*
X39181000Y-196650000D02*
X39147666Y-196583333D01*
X39147666Y-196583333D02*
X39147666Y-196483333D01*
X39147666Y-196483333D02*
X39181000Y-196416667D01*
X39614333Y-196083333D02*
X39147666Y-196083333D01*
X38914333Y-196083333D02*
X38947666Y-196116666D01*
X38947666Y-196116666D02*
X38981000Y-196083333D01*
X38981000Y-196083333D02*
X38947666Y-196050000D01*
X38947666Y-196050000D02*
X38914333Y-196083333D01*
X38914333Y-196083333D02*
X38981000Y-196083333D01*
X39614333Y-195750000D02*
X39147666Y-195750000D01*
X39214333Y-195750000D02*
X39181000Y-195716667D01*
X39181000Y-195716667D02*
X39147666Y-195650000D01*
X39147666Y-195650000D02*
X39147666Y-195550000D01*
X39147666Y-195550000D02*
X39181000Y-195483333D01*
X39181000Y-195483333D02*
X39247666Y-195450000D01*
X39247666Y-195450000D02*
X39614333Y-195450000D01*
X39247666Y-195450000D02*
X39181000Y-195416667D01*
X39181000Y-195416667D02*
X39147666Y-195350000D01*
X39147666Y-195350000D02*
X39147666Y-195250000D01*
X39147666Y-195250000D02*
X39181000Y-195183333D01*
X39181000Y-195183333D02*
X39247666Y-195150000D01*
X39247666Y-195150000D02*
X39614333Y-195150000D01*
D11*
X35000000Y-184025000D02*
X80000000Y-184025000D01*
X80000000Y-199825000D01*
X35000000Y-199825000D01*
X35000000Y-184025000D01*
D10*
X50890000Y-191825000D02*
X64070000Y-191825000D01*
X64070000Y-198025000D01*
X50890000Y-198025000D01*
X50890000Y-191825000D01*
D11*
X35000000Y-22000000D02*
X80000000Y-22000000D01*
X80000000Y-183850000D01*
X35000000Y-183850000D01*
X35000000Y-22000000D01*
D10*
X50700000Y-38025000D02*
X50700000Y-40175000D01*
X50700000Y-52475000D02*
X50700000Y-49950000D01*
X73410095Y-177323809D02*
X74210095Y-177057142D01*
X74210095Y-177057142D02*
X73410095Y-176790476D01*
X74172000Y-176219047D02*
X74210095Y-176295238D01*
X74210095Y-176295238D02*
X74210095Y-176447619D01*
X74210095Y-176447619D02*
X74172000Y-176523809D01*
X74172000Y-176523809D02*
X74095809Y-176561905D01*
X74095809Y-176561905D02*
X73791047Y-176561905D01*
X73791047Y-176561905D02*
X73714857Y-176523809D01*
X73714857Y-176523809D02*
X73676761Y-176447619D01*
X73676761Y-176447619D02*
X73676761Y-176295238D01*
X73676761Y-176295238D02*
X73714857Y-176219047D01*
X73714857Y-176219047D02*
X73791047Y-176180952D01*
X73791047Y-176180952D02*
X73867238Y-176180952D01*
X73867238Y-176180952D02*
X73943428Y-176561905D01*
X74210095Y-175838095D02*
X73676761Y-175838095D01*
X73829142Y-175838095D02*
X73752952Y-175800000D01*
X73752952Y-175800000D02*
X73714857Y-175761905D01*
X73714857Y-175761905D02*
X73676761Y-175685714D01*
X73676761Y-175685714D02*
X73676761Y-175609524D01*
X74172000Y-175380953D02*
X74210095Y-175304762D01*
X74210095Y-175304762D02*
X74210095Y-175152381D01*
X74210095Y-175152381D02*
X74172000Y-175076191D01*
X74172000Y-175076191D02*
X74095809Y-175038095D01*
X74095809Y-175038095D02*
X74057714Y-175038095D01*
X74057714Y-175038095D02*
X73981523Y-175076191D01*
X73981523Y-175076191D02*
X73943428Y-175152381D01*
X73943428Y-175152381D02*
X73943428Y-175266667D01*
X73943428Y-175266667D02*
X73905333Y-175342857D01*
X73905333Y-175342857D02*
X73829142Y-175380953D01*
X73829142Y-175380953D02*
X73791047Y-175380953D01*
X73791047Y-175380953D02*
X73714857Y-175342857D01*
X73714857Y-175342857D02*
X73676761Y-175266667D01*
X73676761Y-175266667D02*
X73676761Y-175152381D01*
X73676761Y-175152381D02*
X73714857Y-175076191D01*
X74210095Y-174695238D02*
X73676761Y-174695238D01*
X73410095Y-174695238D02*
X73448190Y-174733334D01*
X73448190Y-174733334D02*
X73486285Y-174695238D01*
X73486285Y-174695238D02*
X73448190Y-174657143D01*
X73448190Y-174657143D02*
X73410095Y-174695238D01*
X73410095Y-174695238D02*
X73486285Y-174695238D01*
X74210095Y-174200001D02*
X74172000Y-174276191D01*
X74172000Y-174276191D02*
X74133904Y-174314286D01*
X74133904Y-174314286D02*
X74057714Y-174352382D01*
X74057714Y-174352382D02*
X73829142Y-174352382D01*
X73829142Y-174352382D02*
X73752952Y-174314286D01*
X73752952Y-174314286D02*
X73714857Y-174276191D01*
X73714857Y-174276191D02*
X73676761Y-174200001D01*
X73676761Y-174200001D02*
X73676761Y-174085715D01*
X73676761Y-174085715D02*
X73714857Y-174009524D01*
X73714857Y-174009524D02*
X73752952Y-173971429D01*
X73752952Y-173971429D02*
X73829142Y-173933334D01*
X73829142Y-173933334D02*
X74057714Y-173933334D01*
X74057714Y-173933334D02*
X74133904Y-173971429D01*
X74133904Y-173971429D02*
X74172000Y-174009524D01*
X74172000Y-174009524D02*
X74210095Y-174085715D01*
X74210095Y-174085715D02*
X74210095Y-174200001D01*
X73676761Y-173590476D02*
X74210095Y-173590476D01*
X73752952Y-173590476D02*
X73714857Y-173552381D01*
X73714857Y-173552381D02*
X73676761Y-173476191D01*
X73676761Y-173476191D02*
X73676761Y-173361905D01*
X73676761Y-173361905D02*
X73714857Y-173285714D01*
X73714857Y-173285714D02*
X73791047Y-173247619D01*
X73791047Y-173247619D02*
X74210095Y-173247619D01*
X74133904Y-172866666D02*
X74172000Y-172828571D01*
X74172000Y-172828571D02*
X74210095Y-172866666D01*
X74210095Y-172866666D02*
X74172000Y-172904762D01*
X74172000Y-172904762D02*
X74133904Y-172866666D01*
X74133904Y-172866666D02*
X74210095Y-172866666D01*
X73714857Y-172866666D02*
X73752952Y-172828571D01*
X73752952Y-172828571D02*
X73791047Y-172866666D01*
X73791047Y-172866666D02*
X73752952Y-172904762D01*
X73752952Y-172904762D02*
X73714857Y-172866666D01*
X73714857Y-172866666D02*
X73791047Y-172866666D01*
X73486285Y-171914286D02*
X73448190Y-171876190D01*
X73448190Y-171876190D02*
X73410095Y-171800000D01*
X73410095Y-171800000D02*
X73410095Y-171609524D01*
X73410095Y-171609524D02*
X73448190Y-171533333D01*
X73448190Y-171533333D02*
X73486285Y-171495238D01*
X73486285Y-171495238D02*
X73562476Y-171457143D01*
X73562476Y-171457143D02*
X73638666Y-171457143D01*
X73638666Y-171457143D02*
X73752952Y-171495238D01*
X73752952Y-171495238D02*
X74210095Y-171952381D01*
X74210095Y-171952381D02*
X74210095Y-171457143D01*
X75506095Y-177209523D02*
X74706095Y-177209523D01*
X74706095Y-177209523D02*
X75277523Y-176942857D01*
X75277523Y-176942857D02*
X74706095Y-176676190D01*
X74706095Y-176676190D02*
X75506095Y-176676190D01*
X75506095Y-175952380D02*
X75087047Y-175952380D01*
X75087047Y-175952380D02*
X75010857Y-175990475D01*
X75010857Y-175990475D02*
X74972761Y-176066666D01*
X74972761Y-176066666D02*
X74972761Y-176219047D01*
X74972761Y-176219047D02*
X75010857Y-176295237D01*
X75468000Y-175952380D02*
X75506095Y-176028571D01*
X75506095Y-176028571D02*
X75506095Y-176219047D01*
X75506095Y-176219047D02*
X75468000Y-176295237D01*
X75468000Y-176295237D02*
X75391809Y-176333333D01*
X75391809Y-176333333D02*
X75315619Y-176333333D01*
X75315619Y-176333333D02*
X75239428Y-176295237D01*
X75239428Y-176295237D02*
X75201333Y-176219047D01*
X75201333Y-176219047D02*
X75201333Y-176028571D01*
X75201333Y-176028571D02*
X75163238Y-175952380D01*
X75506095Y-175571427D02*
X74706095Y-175571427D01*
X75201333Y-175495237D02*
X75506095Y-175266665D01*
X74972761Y-175266665D02*
X75277523Y-175571427D01*
X75468000Y-174619046D02*
X75506095Y-174695237D01*
X75506095Y-174695237D02*
X75506095Y-174847618D01*
X75506095Y-174847618D02*
X75468000Y-174923808D01*
X75468000Y-174923808D02*
X75391809Y-174961904D01*
X75391809Y-174961904D02*
X75087047Y-174961904D01*
X75087047Y-174961904D02*
X75010857Y-174923808D01*
X75010857Y-174923808D02*
X74972761Y-174847618D01*
X74972761Y-174847618D02*
X74972761Y-174695237D01*
X74972761Y-174695237D02*
X75010857Y-174619046D01*
X75010857Y-174619046D02*
X75087047Y-174580951D01*
X75087047Y-174580951D02*
X75163238Y-174580951D01*
X75163238Y-174580951D02*
X75239428Y-174961904D01*
X75506095Y-174238094D02*
X74972761Y-174238094D01*
X75125142Y-174238094D02*
X75048952Y-174199999D01*
X75048952Y-174199999D02*
X75010857Y-174161904D01*
X75010857Y-174161904D02*
X74972761Y-174085713D01*
X74972761Y-174085713D02*
X74972761Y-174009523D01*
X75429904Y-173742856D02*
X75468000Y-173704761D01*
X75468000Y-173704761D02*
X75506095Y-173742856D01*
X75506095Y-173742856D02*
X75468000Y-173780952D01*
X75468000Y-173780952D02*
X75429904Y-173742856D01*
X75429904Y-173742856D02*
X75506095Y-173742856D01*
X75010857Y-173742856D02*
X75048952Y-173704761D01*
X75048952Y-173704761D02*
X75087047Y-173742856D01*
X75087047Y-173742856D02*
X75048952Y-173780952D01*
X75048952Y-173780952D02*
X75010857Y-173742856D01*
X75010857Y-173742856D02*
X75087047Y-173742856D01*
X75506095Y-172752380D02*
X74706095Y-172752380D01*
X74706095Y-172752380D02*
X74706095Y-172447618D01*
X74706095Y-172447618D02*
X74744190Y-172371428D01*
X74744190Y-172371428D02*
X74782285Y-172333333D01*
X74782285Y-172333333D02*
X74858476Y-172295237D01*
X74858476Y-172295237D02*
X74972761Y-172295237D01*
X74972761Y-172295237D02*
X75048952Y-172333333D01*
X75048952Y-172333333D02*
X75087047Y-172371428D01*
X75087047Y-172371428D02*
X75125142Y-172447618D01*
X75125142Y-172447618D02*
X75125142Y-172752380D01*
X75429904Y-171952380D02*
X75468000Y-171914285D01*
X75468000Y-171914285D02*
X75506095Y-171952380D01*
X75506095Y-171952380D02*
X75468000Y-171990476D01*
X75468000Y-171990476D02*
X75429904Y-171952380D01*
X75429904Y-171952380D02*
X75506095Y-171952380D01*
X75506095Y-171571428D02*
X74706095Y-171571428D01*
X74706095Y-171571428D02*
X74706095Y-171380952D01*
X74706095Y-171380952D02*
X74744190Y-171266666D01*
X74744190Y-171266666D02*
X74820380Y-171190476D01*
X74820380Y-171190476D02*
X74896571Y-171152381D01*
X74896571Y-171152381D02*
X75048952Y-171114285D01*
X75048952Y-171114285D02*
X75163238Y-171114285D01*
X75163238Y-171114285D02*
X75315619Y-171152381D01*
X75315619Y-171152381D02*
X75391809Y-171190476D01*
X75391809Y-171190476D02*
X75468000Y-171266666D01*
X75468000Y-171266666D02*
X75506095Y-171380952D01*
X75506095Y-171380952D02*
X75506095Y-171571428D01*
X75429904Y-170771428D02*
X75468000Y-170733333D01*
X75468000Y-170733333D02*
X75506095Y-170771428D01*
X75506095Y-170771428D02*
X75468000Y-170809524D01*
X75468000Y-170809524D02*
X75429904Y-170771428D01*
X75429904Y-170771428D02*
X75506095Y-170771428D01*
X75506095Y-170390476D02*
X74706095Y-170390476D01*
X75087047Y-170390476D02*
X75087047Y-169933333D01*
X75506095Y-169933333D02*
X74706095Y-169933333D01*
X76802095Y-177209523D02*
X76002095Y-177209523D01*
X76002095Y-177209523D02*
X76002095Y-177019047D01*
X76002095Y-177019047D02*
X76040190Y-176904761D01*
X76040190Y-176904761D02*
X76116380Y-176828571D01*
X76116380Y-176828571D02*
X76192571Y-176790476D01*
X76192571Y-176790476D02*
X76344952Y-176752380D01*
X76344952Y-176752380D02*
X76459238Y-176752380D01*
X76459238Y-176752380D02*
X76611619Y-176790476D01*
X76611619Y-176790476D02*
X76687809Y-176828571D01*
X76687809Y-176828571D02*
X76764000Y-176904761D01*
X76764000Y-176904761D02*
X76802095Y-177019047D01*
X76802095Y-177019047D02*
X76802095Y-177209523D01*
X76802095Y-176066666D02*
X76383047Y-176066666D01*
X76383047Y-176066666D02*
X76306857Y-176104761D01*
X76306857Y-176104761D02*
X76268761Y-176180952D01*
X76268761Y-176180952D02*
X76268761Y-176333333D01*
X76268761Y-176333333D02*
X76306857Y-176409523D01*
X76764000Y-176066666D02*
X76802095Y-176142857D01*
X76802095Y-176142857D02*
X76802095Y-176333333D01*
X76802095Y-176333333D02*
X76764000Y-176409523D01*
X76764000Y-176409523D02*
X76687809Y-176447619D01*
X76687809Y-176447619D02*
X76611619Y-176447619D01*
X76611619Y-176447619D02*
X76535428Y-176409523D01*
X76535428Y-176409523D02*
X76497333Y-176333333D01*
X76497333Y-176333333D02*
X76497333Y-176142857D01*
X76497333Y-176142857D02*
X76459238Y-176066666D01*
X76268761Y-175799999D02*
X76268761Y-175495237D01*
X76002095Y-175685713D02*
X76687809Y-175685713D01*
X76687809Y-175685713D02*
X76764000Y-175647618D01*
X76764000Y-175647618D02*
X76802095Y-175571428D01*
X76802095Y-175571428D02*
X76802095Y-175495237D01*
X76764000Y-174923808D02*
X76802095Y-174999999D01*
X76802095Y-174999999D02*
X76802095Y-175152380D01*
X76802095Y-175152380D02*
X76764000Y-175228570D01*
X76764000Y-175228570D02*
X76687809Y-175266666D01*
X76687809Y-175266666D02*
X76383047Y-175266666D01*
X76383047Y-175266666D02*
X76306857Y-175228570D01*
X76306857Y-175228570D02*
X76268761Y-175152380D01*
X76268761Y-175152380D02*
X76268761Y-174999999D01*
X76268761Y-174999999D02*
X76306857Y-174923808D01*
X76306857Y-174923808D02*
X76383047Y-174885713D01*
X76383047Y-174885713D02*
X76459238Y-174885713D01*
X76459238Y-174885713D02*
X76535428Y-175266666D01*
X76725904Y-174542856D02*
X76764000Y-174504761D01*
X76764000Y-174504761D02*
X76802095Y-174542856D01*
X76802095Y-174542856D02*
X76764000Y-174580952D01*
X76764000Y-174580952D02*
X76725904Y-174542856D01*
X76725904Y-174542856D02*
X76802095Y-174542856D01*
X76306857Y-174542856D02*
X76344952Y-174504761D01*
X76344952Y-174504761D02*
X76383047Y-174542856D01*
X76383047Y-174542856D02*
X76344952Y-174580952D01*
X76344952Y-174580952D02*
X76306857Y-174542856D01*
X76306857Y-174542856D02*
X76383047Y-174542856D01*
X76002095Y-173399999D02*
X76002095Y-173323809D01*
X76002095Y-173323809D02*
X76040190Y-173247618D01*
X76040190Y-173247618D02*
X76078285Y-173209523D01*
X76078285Y-173209523D02*
X76154476Y-173171428D01*
X76154476Y-173171428D02*
X76306857Y-173133333D01*
X76306857Y-173133333D02*
X76497333Y-173133333D01*
X76497333Y-173133333D02*
X76649714Y-173171428D01*
X76649714Y-173171428D02*
X76725904Y-173209523D01*
X76725904Y-173209523D02*
X76764000Y-173247618D01*
X76764000Y-173247618D02*
X76802095Y-173323809D01*
X76802095Y-173323809D02*
X76802095Y-173399999D01*
X76802095Y-173399999D02*
X76764000Y-173476190D01*
X76764000Y-173476190D02*
X76725904Y-173514285D01*
X76725904Y-173514285D02*
X76649714Y-173552380D01*
X76649714Y-173552380D02*
X76497333Y-173590476D01*
X76497333Y-173590476D02*
X76306857Y-173590476D01*
X76306857Y-173590476D02*
X76154476Y-173552380D01*
X76154476Y-173552380D02*
X76078285Y-173514285D01*
X76078285Y-173514285D02*
X76040190Y-173476190D01*
X76040190Y-173476190D02*
X76002095Y-173399999D01*
X76002095Y-172409523D02*
X76002095Y-172790475D01*
X76002095Y-172790475D02*
X76383047Y-172828571D01*
X76383047Y-172828571D02*
X76344952Y-172790475D01*
X76344952Y-172790475D02*
X76306857Y-172714285D01*
X76306857Y-172714285D02*
X76306857Y-172523809D01*
X76306857Y-172523809D02*
X76344952Y-172447618D01*
X76344952Y-172447618D02*
X76383047Y-172409523D01*
X76383047Y-172409523D02*
X76459238Y-172371428D01*
X76459238Y-172371428D02*
X76649714Y-172371428D01*
X76649714Y-172371428D02*
X76725904Y-172409523D01*
X76725904Y-172409523D02*
X76764000Y-172447618D01*
X76764000Y-172447618D02*
X76802095Y-172523809D01*
X76802095Y-172523809D02*
X76802095Y-172714285D01*
X76802095Y-172714285D02*
X76764000Y-172790475D01*
X76764000Y-172790475D02*
X76725904Y-172828571D01*
X76878285Y-172219047D02*
X76878285Y-171609523D01*
X76078285Y-171457142D02*
X76040190Y-171419046D01*
X76040190Y-171419046D02*
X76002095Y-171342856D01*
X76002095Y-171342856D02*
X76002095Y-171152380D01*
X76002095Y-171152380D02*
X76040190Y-171076189D01*
X76040190Y-171076189D02*
X76078285Y-171038094D01*
X76078285Y-171038094D02*
X76154476Y-170999999D01*
X76154476Y-170999999D02*
X76230666Y-170999999D01*
X76230666Y-170999999D02*
X76344952Y-171038094D01*
X76344952Y-171038094D02*
X76802095Y-171495237D01*
X76802095Y-171495237D02*
X76802095Y-170999999D01*
X76002095Y-170504760D02*
X76002095Y-170428570D01*
X76002095Y-170428570D02*
X76040190Y-170352379D01*
X76040190Y-170352379D02*
X76078285Y-170314284D01*
X76078285Y-170314284D02*
X76154476Y-170276189D01*
X76154476Y-170276189D02*
X76306857Y-170238094D01*
X76306857Y-170238094D02*
X76497333Y-170238094D01*
X76497333Y-170238094D02*
X76649714Y-170276189D01*
X76649714Y-170276189D02*
X76725904Y-170314284D01*
X76725904Y-170314284D02*
X76764000Y-170352379D01*
X76764000Y-170352379D02*
X76802095Y-170428570D01*
X76802095Y-170428570D02*
X76802095Y-170504760D01*
X76802095Y-170504760D02*
X76764000Y-170580951D01*
X76764000Y-170580951D02*
X76725904Y-170619046D01*
X76725904Y-170619046D02*
X76649714Y-170657141D01*
X76649714Y-170657141D02*
X76497333Y-170695237D01*
X76497333Y-170695237D02*
X76306857Y-170695237D01*
X76306857Y-170695237D02*
X76154476Y-170657141D01*
X76154476Y-170657141D02*
X76078285Y-170619046D01*
X76078285Y-170619046D02*
X76040190Y-170580951D01*
X76040190Y-170580951D02*
X76002095Y-170504760D01*
X76078285Y-169933332D02*
X76040190Y-169895236D01*
X76040190Y-169895236D02*
X76002095Y-169819046D01*
X76002095Y-169819046D02*
X76002095Y-169628570D01*
X76002095Y-169628570D02*
X76040190Y-169552379D01*
X76040190Y-169552379D02*
X76078285Y-169514284D01*
X76078285Y-169514284D02*
X76154476Y-169476189D01*
X76154476Y-169476189D02*
X76230666Y-169476189D01*
X76230666Y-169476189D02*
X76344952Y-169514284D01*
X76344952Y-169514284D02*
X76802095Y-169971427D01*
X76802095Y-169971427D02*
X76802095Y-169476189D01*
X76002095Y-169209522D02*
X76002095Y-168714284D01*
X76002095Y-168714284D02*
X76306857Y-168980950D01*
X76306857Y-168980950D02*
X76306857Y-168866665D01*
X76306857Y-168866665D02*
X76344952Y-168790474D01*
X76344952Y-168790474D02*
X76383047Y-168752379D01*
X76383047Y-168752379D02*
X76459238Y-168714284D01*
X76459238Y-168714284D02*
X76649714Y-168714284D01*
X76649714Y-168714284D02*
X76725904Y-168752379D01*
X76725904Y-168752379D02*
X76764000Y-168790474D01*
X76764000Y-168790474D02*
X76802095Y-168866665D01*
X76802095Y-168866665D02*
X76802095Y-169095236D01*
X76802095Y-169095236D02*
X76764000Y-169171427D01*
X76764000Y-169171427D02*
X76725904Y-169209522D01*
X78687619Y-177235714D02*
X77687619Y-177235714D01*
X77687619Y-177235714D02*
X77687619Y-176854762D01*
X77687619Y-176854762D02*
X77735238Y-176759524D01*
X77735238Y-176759524D02*
X77782857Y-176711905D01*
X77782857Y-176711905D02*
X77878095Y-176664286D01*
X77878095Y-176664286D02*
X78020952Y-176664286D01*
X78020952Y-176664286D02*
X78116190Y-176711905D01*
X78116190Y-176711905D02*
X78163809Y-176759524D01*
X78163809Y-176759524D02*
X78211428Y-176854762D01*
X78211428Y-176854762D02*
X78211428Y-177235714D01*
X78687619Y-176235714D02*
X77687619Y-176235714D01*
X78163809Y-176235714D02*
X78163809Y-175664286D01*
X78687619Y-175664286D02*
X77687619Y-175664286D01*
X78782857Y-175426191D02*
X78782857Y-174664286D01*
X78687619Y-174426190D02*
X77687619Y-174426190D01*
X77687619Y-174426190D02*
X77687619Y-174045238D01*
X77687619Y-174045238D02*
X77735238Y-173950000D01*
X77735238Y-173950000D02*
X77782857Y-173902381D01*
X77782857Y-173902381D02*
X77878095Y-173854762D01*
X77878095Y-173854762D02*
X78020952Y-173854762D01*
X78020952Y-173854762D02*
X78116190Y-173902381D01*
X78116190Y-173902381D02*
X78163809Y-173950000D01*
X78163809Y-173950000D02*
X78211428Y-174045238D01*
X78211428Y-174045238D02*
X78211428Y-174426190D01*
X77687619Y-173235714D02*
X77687619Y-173045238D01*
X77687619Y-173045238D02*
X77735238Y-172950000D01*
X77735238Y-172950000D02*
X77830476Y-172854762D01*
X77830476Y-172854762D02*
X78020952Y-172807143D01*
X78020952Y-172807143D02*
X78354285Y-172807143D01*
X78354285Y-172807143D02*
X78544761Y-172854762D01*
X78544761Y-172854762D02*
X78640000Y-172950000D01*
X78640000Y-172950000D02*
X78687619Y-173045238D01*
X78687619Y-173045238D02*
X78687619Y-173235714D01*
X78687619Y-173235714D02*
X78640000Y-173330952D01*
X78640000Y-173330952D02*
X78544761Y-173426190D01*
X78544761Y-173426190D02*
X78354285Y-173473809D01*
X78354285Y-173473809D02*
X78020952Y-173473809D01*
X78020952Y-173473809D02*
X77830476Y-173426190D01*
X77830476Y-173426190D02*
X77735238Y-173330952D01*
X77735238Y-173330952D02*
X77687619Y-173235714D01*
X78687619Y-171807143D02*
X78211428Y-172140476D01*
X78687619Y-172378571D02*
X77687619Y-172378571D01*
X77687619Y-172378571D02*
X77687619Y-171997619D01*
X77687619Y-171997619D02*
X77735238Y-171902381D01*
X77735238Y-171902381D02*
X77782857Y-171854762D01*
X77782857Y-171854762D02*
X77878095Y-171807143D01*
X77878095Y-171807143D02*
X78020952Y-171807143D01*
X78020952Y-171807143D02*
X78116190Y-171854762D01*
X78116190Y-171854762D02*
X78163809Y-171902381D01*
X78163809Y-171902381D02*
X78211428Y-171997619D01*
X78211428Y-171997619D02*
X78211428Y-172378571D01*
X77687619Y-171521428D02*
X77687619Y-170950000D01*
X78687619Y-171235714D02*
X77687619Y-171235714D01*
X78401904Y-170664285D02*
X78401904Y-170188095D01*
X78687619Y-170759523D02*
X77687619Y-170426190D01*
X77687619Y-170426190D02*
X78687619Y-170092857D01*
X78163809Y-169426190D02*
X78211428Y-169283333D01*
X78211428Y-169283333D02*
X78259047Y-169235714D01*
X78259047Y-169235714D02*
X78354285Y-169188095D01*
X78354285Y-169188095D02*
X78497142Y-169188095D01*
X78497142Y-169188095D02*
X78592380Y-169235714D01*
X78592380Y-169235714D02*
X78640000Y-169283333D01*
X78640000Y-169283333D02*
X78687619Y-169378571D01*
X78687619Y-169378571D02*
X78687619Y-169759523D01*
X78687619Y-169759523D02*
X77687619Y-169759523D01*
X77687619Y-169759523D02*
X77687619Y-169426190D01*
X77687619Y-169426190D02*
X77735238Y-169330952D01*
X77735238Y-169330952D02*
X77782857Y-169283333D01*
X77782857Y-169283333D02*
X77878095Y-169235714D01*
X77878095Y-169235714D02*
X77973333Y-169235714D01*
X77973333Y-169235714D02*
X78068571Y-169283333D01*
X78068571Y-169283333D02*
X78116190Y-169330952D01*
X78116190Y-169330952D02*
X78163809Y-169426190D01*
X78163809Y-169426190D02*
X78163809Y-169759523D01*
X78687619Y-168283333D02*
X78687619Y-168759523D01*
X78687619Y-168759523D02*
X77687619Y-168759523D01*
X78163809Y-167949999D02*
X78163809Y-167616666D01*
X78687619Y-167473809D02*
X78687619Y-167949999D01*
X78687619Y-167949999D02*
X77687619Y-167949999D01*
X77687619Y-167949999D02*
X77687619Y-167473809D01*
X78782857Y-167283333D02*
X78782857Y-166521428D01*
X78687619Y-165711904D02*
X78211428Y-166045237D01*
X78687619Y-166283332D02*
X77687619Y-166283332D01*
X77687619Y-166283332D02*
X77687619Y-165902380D01*
X77687619Y-165902380D02*
X77735238Y-165807142D01*
X77735238Y-165807142D02*
X77782857Y-165759523D01*
X77782857Y-165759523D02*
X77878095Y-165711904D01*
X77878095Y-165711904D02*
X78020952Y-165711904D01*
X78020952Y-165711904D02*
X78116190Y-165759523D01*
X78116190Y-165759523D02*
X78163809Y-165807142D01*
X78163809Y-165807142D02*
X78211428Y-165902380D01*
X78211428Y-165902380D02*
X78211428Y-166283332D01*
X78163809Y-165283332D02*
X78163809Y-164949999D01*
X78687619Y-164807142D02*
X78687619Y-165283332D01*
X78687619Y-165283332D02*
X77687619Y-165283332D01*
X77687619Y-165283332D02*
X77687619Y-164807142D01*
X78163809Y-164045237D02*
X78163809Y-164378570D01*
X78687619Y-164378570D02*
X77687619Y-164378570D01*
X77687619Y-164378570D02*
X77687619Y-163902380D01*
X78687619Y-162949999D02*
X78211428Y-163283332D01*
X78687619Y-163521427D02*
X77687619Y-163521427D01*
X77687619Y-163521427D02*
X77687619Y-163140475D01*
X77687619Y-163140475D02*
X77735238Y-163045237D01*
X77735238Y-163045237D02*
X77782857Y-162997618D01*
X77782857Y-162997618D02*
X77878095Y-162949999D01*
X77878095Y-162949999D02*
X78020952Y-162949999D01*
X78020952Y-162949999D02*
X78116190Y-162997618D01*
X78116190Y-162997618D02*
X78163809Y-163045237D01*
X78163809Y-163045237D02*
X78211428Y-163140475D01*
X78211428Y-163140475D02*
X78211428Y-163521427D01*
X78687619Y-162521427D02*
X77687619Y-162521427D01*
X77735238Y-161521428D02*
X77687619Y-161616666D01*
X77687619Y-161616666D02*
X77687619Y-161759523D01*
X77687619Y-161759523D02*
X77735238Y-161902380D01*
X77735238Y-161902380D02*
X77830476Y-161997618D01*
X77830476Y-161997618D02*
X77925714Y-162045237D01*
X77925714Y-162045237D02*
X78116190Y-162092856D01*
X78116190Y-162092856D02*
X78259047Y-162092856D01*
X78259047Y-162092856D02*
X78449523Y-162045237D01*
X78449523Y-162045237D02*
X78544761Y-161997618D01*
X78544761Y-161997618D02*
X78640000Y-161902380D01*
X78640000Y-161902380D02*
X78687619Y-161759523D01*
X78687619Y-161759523D02*
X78687619Y-161664285D01*
X78687619Y-161664285D02*
X78640000Y-161521428D01*
X78640000Y-161521428D02*
X78592380Y-161473809D01*
X78592380Y-161473809D02*
X78259047Y-161473809D01*
X78259047Y-161473809D02*
X78259047Y-161664285D01*
X78163809Y-161045237D02*
X78163809Y-160711904D01*
X78687619Y-160569047D02*
X78687619Y-161045237D01*
X78687619Y-161045237D02*
X77687619Y-161045237D01*
X77687619Y-161045237D02*
X77687619Y-160569047D01*
X78687619Y-159569047D02*
X78211428Y-159902380D01*
X78687619Y-160140475D02*
X77687619Y-160140475D01*
X77687619Y-160140475D02*
X77687619Y-159759523D01*
X77687619Y-159759523D02*
X77735238Y-159664285D01*
X77735238Y-159664285D02*
X77782857Y-159616666D01*
X77782857Y-159616666D02*
X77878095Y-159569047D01*
X77878095Y-159569047D02*
X78020952Y-159569047D01*
X78020952Y-159569047D02*
X78116190Y-159616666D01*
X78116190Y-159616666D02*
X78163809Y-159664285D01*
X78163809Y-159664285D02*
X78211428Y-159759523D01*
X78211428Y-159759523D02*
X78211428Y-160140475D01*
X78401904Y-159188094D02*
X78401904Y-158711904D01*
X78687619Y-159283332D02*
X77687619Y-158949999D01*
X77687619Y-158949999D02*
X78687619Y-158616666D01*
X77687619Y-158426189D02*
X77687619Y-157854761D01*
X78687619Y-158140475D02*
X77687619Y-158140475D01*
X77687619Y-157330951D02*
X77687619Y-157140475D01*
X77687619Y-157140475D02*
X77735238Y-157045237D01*
X77735238Y-157045237D02*
X77830476Y-156949999D01*
X77830476Y-156949999D02*
X78020952Y-156902380D01*
X78020952Y-156902380D02*
X78354285Y-156902380D01*
X78354285Y-156902380D02*
X78544761Y-156949999D01*
X78544761Y-156949999D02*
X78640000Y-157045237D01*
X78640000Y-157045237D02*
X78687619Y-157140475D01*
X78687619Y-157140475D02*
X78687619Y-157330951D01*
X78687619Y-157330951D02*
X78640000Y-157426189D01*
X78640000Y-157426189D02*
X78544761Y-157521427D01*
X78544761Y-157521427D02*
X78354285Y-157569046D01*
X78354285Y-157569046D02*
X78020952Y-157569046D01*
X78020952Y-157569046D02*
X77830476Y-157521427D01*
X77830476Y-157521427D02*
X77735238Y-157426189D01*
X77735238Y-157426189D02*
X77687619Y-157330951D01*
X78687619Y-155902380D02*
X78211428Y-156235713D01*
X78687619Y-156473808D02*
X77687619Y-156473808D01*
X77687619Y-156473808D02*
X77687619Y-156092856D01*
X77687619Y-156092856D02*
X77735238Y-155997618D01*
X77735238Y-155997618D02*
X77782857Y-155949999D01*
X77782857Y-155949999D02*
X77878095Y-155902380D01*
X77878095Y-155902380D02*
X78020952Y-155902380D01*
X78020952Y-155902380D02*
X78116190Y-155949999D01*
X78116190Y-155949999D02*
X78163809Y-155997618D01*
X78163809Y-155997618D02*
X78211428Y-156092856D01*
X78211428Y-156092856D02*
X78211428Y-156473808D01*
X78782857Y-155711904D02*
X78782857Y-154949999D01*
X78687619Y-154711903D02*
X77687619Y-154711903D01*
X77687619Y-154711903D02*
X77687619Y-154473808D01*
X77687619Y-154473808D02*
X77735238Y-154330951D01*
X77735238Y-154330951D02*
X77830476Y-154235713D01*
X77830476Y-154235713D02*
X77925714Y-154188094D01*
X77925714Y-154188094D02*
X78116190Y-154140475D01*
X78116190Y-154140475D02*
X78259047Y-154140475D01*
X78259047Y-154140475D02*
X78449523Y-154188094D01*
X78449523Y-154188094D02*
X78544761Y-154235713D01*
X78544761Y-154235713D02*
X78640000Y-154330951D01*
X78640000Y-154330951D02*
X78687619Y-154473808D01*
X78687619Y-154473808D02*
X78687619Y-154711903D01*
X78687619Y-153711903D02*
X77687619Y-153711903D01*
X78640000Y-153283332D02*
X78687619Y-153140475D01*
X78687619Y-153140475D02*
X78687619Y-152902380D01*
X78687619Y-152902380D02*
X78640000Y-152807142D01*
X78640000Y-152807142D02*
X78592380Y-152759523D01*
X78592380Y-152759523D02*
X78497142Y-152711904D01*
X78497142Y-152711904D02*
X78401904Y-152711904D01*
X78401904Y-152711904D02*
X78306666Y-152759523D01*
X78306666Y-152759523D02*
X78259047Y-152807142D01*
X78259047Y-152807142D02*
X78211428Y-152902380D01*
X78211428Y-152902380D02*
X78163809Y-153092856D01*
X78163809Y-153092856D02*
X78116190Y-153188094D01*
X78116190Y-153188094D02*
X78068571Y-153235713D01*
X78068571Y-153235713D02*
X77973333Y-153283332D01*
X77973333Y-153283332D02*
X77878095Y-153283332D01*
X77878095Y-153283332D02*
X77782857Y-153235713D01*
X77782857Y-153235713D02*
X77735238Y-153188094D01*
X77735238Y-153188094D02*
X77687619Y-153092856D01*
X77687619Y-153092856D02*
X77687619Y-152854761D01*
X77687619Y-152854761D02*
X77735238Y-152711904D01*
X78687619Y-152283332D02*
X77687619Y-152283332D01*
X77687619Y-152283332D02*
X77687619Y-151902380D01*
X77687619Y-151902380D02*
X77735238Y-151807142D01*
X77735238Y-151807142D02*
X77782857Y-151759523D01*
X77782857Y-151759523D02*
X77878095Y-151711904D01*
X77878095Y-151711904D02*
X78020952Y-151711904D01*
X78020952Y-151711904D02*
X78116190Y-151759523D01*
X78116190Y-151759523D02*
X78163809Y-151807142D01*
X78163809Y-151807142D02*
X78211428Y-151902380D01*
X78211428Y-151902380D02*
X78211428Y-152283332D01*
X78687619Y-150807142D02*
X78687619Y-151283332D01*
X78687619Y-151283332D02*
X77687619Y-151283332D01*
X78401904Y-150521427D02*
X78401904Y-150045237D01*
X78687619Y-150616665D02*
X77687619Y-150283332D01*
X77687619Y-150283332D02*
X78687619Y-149949999D01*
X78211428Y-149426189D02*
X78687619Y-149426189D01*
X77687619Y-149759522D02*
X78211428Y-149426189D01*
X78211428Y-149426189D02*
X77687619Y-149092856D01*
X78782857Y-148997618D02*
X78782857Y-148235713D01*
X77687619Y-148140474D02*
X78687619Y-147807141D01*
X78687619Y-147807141D02*
X77687619Y-147473808D01*
X77782857Y-147188093D02*
X77735238Y-147140474D01*
X77735238Y-147140474D02*
X77687619Y-147045236D01*
X77687619Y-147045236D02*
X77687619Y-146807141D01*
X77687619Y-146807141D02*
X77735238Y-146711903D01*
X77735238Y-146711903D02*
X77782857Y-146664284D01*
X77782857Y-146664284D02*
X77878095Y-146616665D01*
X77878095Y-146616665D02*
X77973333Y-146616665D01*
X77973333Y-146616665D02*
X78116190Y-146664284D01*
X78116190Y-146664284D02*
X78687619Y-147235712D01*
X78687619Y-147235712D02*
X78687619Y-146616665D01*
%TO.C,J2*%
X37146666Y-193287619D02*
X37146666Y-194001904D01*
X37146666Y-194001904D02*
X37099047Y-194144761D01*
X37099047Y-194144761D02*
X37003809Y-194240000D01*
X37003809Y-194240000D02*
X36860952Y-194287619D01*
X36860952Y-194287619D02*
X36765714Y-194287619D01*
X37575238Y-193382857D02*
X37622857Y-193335238D01*
X37622857Y-193335238D02*
X37718095Y-193287619D01*
X37718095Y-193287619D02*
X37956190Y-193287619D01*
X37956190Y-193287619D02*
X38051428Y-193335238D01*
X38051428Y-193335238D02*
X38099047Y-193382857D01*
X38099047Y-193382857D02*
X38146666Y-193478095D01*
X38146666Y-193478095D02*
X38146666Y-193573333D01*
X38146666Y-193573333D02*
X38099047Y-193716190D01*
X38099047Y-193716190D02*
X37527619Y-194287619D01*
X37527619Y-194287619D02*
X38146666Y-194287619D01*
%TO.C,D5*%
X64712619Y-170213094D02*
X63712619Y-170213094D01*
X63712619Y-170213094D02*
X63712619Y-169974999D01*
X63712619Y-169974999D02*
X63760238Y-169832142D01*
X63760238Y-169832142D02*
X63855476Y-169736904D01*
X63855476Y-169736904D02*
X63950714Y-169689285D01*
X63950714Y-169689285D02*
X64141190Y-169641666D01*
X64141190Y-169641666D02*
X64284047Y-169641666D01*
X64284047Y-169641666D02*
X64474523Y-169689285D01*
X64474523Y-169689285D02*
X64569761Y-169736904D01*
X64569761Y-169736904D02*
X64665000Y-169832142D01*
X64665000Y-169832142D02*
X64712619Y-169974999D01*
X64712619Y-169974999D02*
X64712619Y-170213094D01*
X63712619Y-168736904D02*
X63712619Y-169213094D01*
X63712619Y-169213094D02*
X64188809Y-169260713D01*
X64188809Y-169260713D02*
X64141190Y-169213094D01*
X64141190Y-169213094D02*
X64093571Y-169117856D01*
X64093571Y-169117856D02*
X64093571Y-168879761D01*
X64093571Y-168879761D02*
X64141190Y-168784523D01*
X64141190Y-168784523D02*
X64188809Y-168736904D01*
X64188809Y-168736904D02*
X64284047Y-168689285D01*
X64284047Y-168689285D02*
X64522142Y-168689285D01*
X64522142Y-168689285D02*
X64617380Y-168736904D01*
X64617380Y-168736904D02*
X64665000Y-168784523D01*
X64665000Y-168784523D02*
X64712619Y-168879761D01*
X64712619Y-168879761D02*
X64712619Y-169117856D01*
X64712619Y-169117856D02*
X64665000Y-169213094D01*
X64665000Y-169213094D02*
X64617380Y-169260713D01*
D11*
%TO.C,J3*%
X65162380Y-101566666D02*
X64448095Y-101566666D01*
X64448095Y-101566666D02*
X64305238Y-101519047D01*
X64305238Y-101519047D02*
X64210000Y-101423809D01*
X64210000Y-101423809D02*
X64162380Y-101280952D01*
X64162380Y-101280952D02*
X64162380Y-101185714D01*
X65162380Y-101947619D02*
X65162380Y-102566666D01*
X65162380Y-102566666D02*
X64781428Y-102233333D01*
X64781428Y-102233333D02*
X64781428Y-102376190D01*
X64781428Y-102376190D02*
X64733809Y-102471428D01*
X64733809Y-102471428D02*
X64686190Y-102519047D01*
X64686190Y-102519047D02*
X64590952Y-102566666D01*
X64590952Y-102566666D02*
X64352857Y-102566666D01*
X64352857Y-102566666D02*
X64257619Y-102519047D01*
X64257619Y-102519047D02*
X64210000Y-102471428D01*
X64210000Y-102471428D02*
X64162380Y-102376190D01*
X64162380Y-102376190D02*
X64162380Y-102090476D01*
X64162380Y-102090476D02*
X64210000Y-101995238D01*
X64210000Y-101995238D02*
X64257619Y-101947619D01*
D10*
%TO.C,J1*%
X50936666Y-183207619D02*
X50936666Y-183921904D01*
X50936666Y-183921904D02*
X50889047Y-184064761D01*
X50889047Y-184064761D02*
X50793809Y-184160000D01*
X50793809Y-184160000D02*
X50650952Y-184207619D01*
X50650952Y-184207619D02*
X50555714Y-184207619D01*
X51936666Y-184207619D02*
X51365238Y-184207619D01*
X51650952Y-184207619D02*
X51650952Y-183207619D01*
X51650952Y-183207619D02*
X51555714Y-183350476D01*
X51555714Y-183350476D02*
X51460476Y-183445714D01*
X51460476Y-183445714D02*
X51365238Y-183493333D01*
%TO.C,D1*%
X64712619Y-147213094D02*
X63712619Y-147213094D01*
X63712619Y-147213094D02*
X63712619Y-146974999D01*
X63712619Y-146974999D02*
X63760238Y-146832142D01*
X63760238Y-146832142D02*
X63855476Y-146736904D01*
X63855476Y-146736904D02*
X63950714Y-146689285D01*
X63950714Y-146689285D02*
X64141190Y-146641666D01*
X64141190Y-146641666D02*
X64284047Y-146641666D01*
X64284047Y-146641666D02*
X64474523Y-146689285D01*
X64474523Y-146689285D02*
X64569761Y-146736904D01*
X64569761Y-146736904D02*
X64665000Y-146832142D01*
X64665000Y-146832142D02*
X64712619Y-146974999D01*
X64712619Y-146974999D02*
X64712619Y-147213094D01*
X64712619Y-145689285D02*
X64712619Y-146260713D01*
X64712619Y-145974999D02*
X63712619Y-145974999D01*
X63712619Y-145974999D02*
X63855476Y-146070237D01*
X63855476Y-146070237D02*
X63950714Y-146165475D01*
X63950714Y-146165475D02*
X63998333Y-146260713D01*
D11*
%TO.C,J5*%
X64737380Y-171316666D02*
X64023095Y-171316666D01*
X64023095Y-171316666D02*
X63880238Y-171269047D01*
X63880238Y-171269047D02*
X63785000Y-171173809D01*
X63785000Y-171173809D02*
X63737380Y-171030952D01*
X63737380Y-171030952D02*
X63737380Y-170935714D01*
X64737380Y-172269047D02*
X64737380Y-171792857D01*
X64737380Y-171792857D02*
X64261190Y-171745238D01*
X64261190Y-171745238D02*
X64308809Y-171792857D01*
X64308809Y-171792857D02*
X64356428Y-171888095D01*
X64356428Y-171888095D02*
X64356428Y-172126190D01*
X64356428Y-172126190D02*
X64308809Y-172221428D01*
X64308809Y-172221428D02*
X64261190Y-172269047D01*
X64261190Y-172269047D02*
X64165952Y-172316666D01*
X64165952Y-172316666D02*
X63927857Y-172316666D01*
X63927857Y-172316666D02*
X63832619Y-172269047D01*
X63832619Y-172269047D02*
X63785000Y-172221428D01*
X63785000Y-172221428D02*
X63737380Y-172126190D01*
X63737380Y-172126190D02*
X63737380Y-171888095D01*
X63737380Y-171888095D02*
X63785000Y-171792857D01*
X63785000Y-171792857D02*
X63832619Y-171745238D01*
D10*
%TO.C,D2*%
X65162619Y-124288094D02*
X64162619Y-124288094D01*
X64162619Y-124288094D02*
X64162619Y-124049999D01*
X64162619Y-124049999D02*
X64210238Y-123907142D01*
X64210238Y-123907142D02*
X64305476Y-123811904D01*
X64305476Y-123811904D02*
X64400714Y-123764285D01*
X64400714Y-123764285D02*
X64591190Y-123716666D01*
X64591190Y-123716666D02*
X64734047Y-123716666D01*
X64734047Y-123716666D02*
X64924523Y-123764285D01*
X64924523Y-123764285D02*
X65019761Y-123811904D01*
X65019761Y-123811904D02*
X65115000Y-123907142D01*
X65115000Y-123907142D02*
X65162619Y-124049999D01*
X65162619Y-124049999D02*
X65162619Y-124288094D01*
X64257857Y-123335713D02*
X64210238Y-123288094D01*
X64210238Y-123288094D02*
X64162619Y-123192856D01*
X64162619Y-123192856D02*
X64162619Y-122954761D01*
X64162619Y-122954761D02*
X64210238Y-122859523D01*
X64210238Y-122859523D02*
X64257857Y-122811904D01*
X64257857Y-122811904D02*
X64353095Y-122764285D01*
X64353095Y-122764285D02*
X64448333Y-122764285D01*
X64448333Y-122764285D02*
X64591190Y-122811904D01*
X64591190Y-122811904D02*
X65162619Y-123383332D01*
X65162619Y-123383332D02*
X65162619Y-122764285D01*
D11*
%TO.C,J2*%
X64137619Y-121383333D02*
X64851904Y-121383333D01*
X64851904Y-121383333D02*
X64994761Y-121430952D01*
X64994761Y-121430952D02*
X65090000Y-121526190D01*
X65090000Y-121526190D02*
X65137619Y-121669047D01*
X65137619Y-121669047D02*
X65137619Y-121764285D01*
X64232857Y-120954761D02*
X64185238Y-120907142D01*
X64185238Y-120907142D02*
X64137619Y-120811904D01*
X64137619Y-120811904D02*
X64137619Y-120573809D01*
X64137619Y-120573809D02*
X64185238Y-120478571D01*
X64185238Y-120478571D02*
X64232857Y-120430952D01*
X64232857Y-120430952D02*
X64328095Y-120383333D01*
X64328095Y-120383333D02*
X64423333Y-120383333D01*
X64423333Y-120383333D02*
X64566190Y-120430952D01*
X64566190Y-120430952D02*
X65137619Y-121002380D01*
X65137619Y-121002380D02*
X65137619Y-120383333D01*
%TO.C,J4*%
X64212380Y-75541666D02*
X63498095Y-75541666D01*
X63498095Y-75541666D02*
X63355238Y-75494047D01*
X63355238Y-75494047D02*
X63260000Y-75398809D01*
X63260000Y-75398809D02*
X63212380Y-75255952D01*
X63212380Y-75255952D02*
X63212380Y-75160714D01*
X63879047Y-76446428D02*
X63212380Y-76446428D01*
X64260000Y-76208333D02*
X63545714Y-75970238D01*
X63545714Y-75970238D02*
X63545714Y-76589285D01*
%TO.C,J1*%
X64762380Y-147991666D02*
X64048095Y-147991666D01*
X64048095Y-147991666D02*
X63905238Y-147944047D01*
X63905238Y-147944047D02*
X63810000Y-147848809D01*
X63810000Y-147848809D02*
X63762380Y-147705952D01*
X63762380Y-147705952D02*
X63762380Y-147610714D01*
X63762380Y-148991666D02*
X63762380Y-148420238D01*
X63762380Y-148705952D02*
X64762380Y-148705952D01*
X64762380Y-148705952D02*
X64619523Y-148610714D01*
X64619523Y-148610714D02*
X64524285Y-148515476D01*
X64524285Y-148515476D02*
X64476666Y-148420238D01*
D10*
%TO.C,D4*%
X64362619Y-78963094D02*
X63362619Y-78963094D01*
X63362619Y-78963094D02*
X63362619Y-78724999D01*
X63362619Y-78724999D02*
X63410238Y-78582142D01*
X63410238Y-78582142D02*
X63505476Y-78486904D01*
X63505476Y-78486904D02*
X63600714Y-78439285D01*
X63600714Y-78439285D02*
X63791190Y-78391666D01*
X63791190Y-78391666D02*
X63934047Y-78391666D01*
X63934047Y-78391666D02*
X64124523Y-78439285D01*
X64124523Y-78439285D02*
X64219761Y-78486904D01*
X64219761Y-78486904D02*
X64315000Y-78582142D01*
X64315000Y-78582142D02*
X64362619Y-78724999D01*
X64362619Y-78724999D02*
X64362619Y-78963094D01*
X63695952Y-77534523D02*
X64362619Y-77534523D01*
X63315000Y-77772618D02*
X64029285Y-78010713D01*
X64029285Y-78010713D02*
X64029285Y-77391666D01*
%TO.C,C1*%
X36413333Y-188342380D02*
X36365714Y-188390000D01*
X36365714Y-188390000D02*
X36222857Y-188437619D01*
X36222857Y-188437619D02*
X36127619Y-188437619D01*
X36127619Y-188437619D02*
X35984762Y-188390000D01*
X35984762Y-188390000D02*
X35889524Y-188294761D01*
X35889524Y-188294761D02*
X35841905Y-188199523D01*
X35841905Y-188199523D02*
X35794286Y-188009047D01*
X35794286Y-188009047D02*
X35794286Y-187866190D01*
X35794286Y-187866190D02*
X35841905Y-187675714D01*
X35841905Y-187675714D02*
X35889524Y-187580476D01*
X35889524Y-187580476D02*
X35984762Y-187485238D01*
X35984762Y-187485238D02*
X36127619Y-187437619D01*
X36127619Y-187437619D02*
X36222857Y-187437619D01*
X36222857Y-187437619D02*
X36365714Y-187485238D01*
X36365714Y-187485238D02*
X36413333Y-187532857D01*
X37365714Y-188437619D02*
X36794286Y-188437619D01*
X37080000Y-188437619D02*
X37080000Y-187437619D01*
X37080000Y-187437619D02*
X36984762Y-187580476D01*
X36984762Y-187580476D02*
X36889524Y-187675714D01*
X36889524Y-187675714D02*
X36794286Y-187723333D01*
D11*
%TO.C,J6*%
X33234166Y-25260119D02*
X33234166Y-25974404D01*
X33234166Y-25974404D02*
X33186547Y-26117261D01*
X33186547Y-26117261D02*
X33091309Y-26212500D01*
X33091309Y-26212500D02*
X32948452Y-26260119D01*
X32948452Y-26260119D02*
X32853214Y-26260119D01*
X34138928Y-25260119D02*
X33948452Y-25260119D01*
X33948452Y-25260119D02*
X33853214Y-25307738D01*
X33853214Y-25307738D02*
X33805595Y-25355357D01*
X33805595Y-25355357D02*
X33710357Y-25498214D01*
X33710357Y-25498214D02*
X33662738Y-25688690D01*
X33662738Y-25688690D02*
X33662738Y-26069642D01*
X33662738Y-26069642D02*
X33710357Y-26164880D01*
X33710357Y-26164880D02*
X33757976Y-26212500D01*
X33757976Y-26212500D02*
X33853214Y-26260119D01*
X33853214Y-26260119D02*
X34043690Y-26260119D01*
X34043690Y-26260119D02*
X34138928Y-26212500D01*
X34138928Y-26212500D02*
X34186547Y-26164880D01*
X34186547Y-26164880D02*
X34234166Y-26069642D01*
X34234166Y-26069642D02*
X34234166Y-25831547D01*
X34234166Y-25831547D02*
X34186547Y-25736309D01*
X34186547Y-25736309D02*
X34138928Y-25688690D01*
X34138928Y-25688690D02*
X34043690Y-25641071D01*
X34043690Y-25641071D02*
X33853214Y-25641071D01*
X33853214Y-25641071D02*
X33757976Y-25688690D01*
X33757976Y-25688690D02*
X33710357Y-25736309D01*
X33710357Y-25736309D02*
X33662738Y-25831547D01*
D10*
X37158833Y-25644795D02*
X36892166Y-25263842D01*
X36701690Y-25644795D02*
X36701690Y-24844795D01*
X36701690Y-24844795D02*
X37006452Y-24844795D01*
X37006452Y-24844795D02*
X37082642Y-24882890D01*
X37082642Y-24882890D02*
X37120737Y-24920985D01*
X37120737Y-24920985D02*
X37158833Y-24997176D01*
X37158833Y-24997176D02*
X37158833Y-25111461D01*
X37158833Y-25111461D02*
X37120737Y-25187652D01*
X37120737Y-25187652D02*
X37082642Y-25225747D01*
X37082642Y-25225747D02*
X37006452Y-25263842D01*
X37006452Y-25263842D02*
X36701690Y-25263842D01*
X37501690Y-25225747D02*
X37768356Y-25225747D01*
X37882642Y-25644795D02*
X37501690Y-25644795D01*
X37501690Y-25644795D02*
X37501690Y-24844795D01*
X37501690Y-24844795D02*
X37882642Y-24844795D01*
X38492166Y-25225747D02*
X38225500Y-25225747D01*
X38225500Y-25644795D02*
X38225500Y-24844795D01*
X38225500Y-24844795D02*
X38606452Y-24844795D01*
X39025499Y-24844795D02*
X39025499Y-25035271D01*
X38835023Y-24959080D02*
X39025499Y-25035271D01*
X39025499Y-25035271D02*
X39215976Y-24959080D01*
X38911214Y-25187652D02*
X39025499Y-25035271D01*
X39025499Y-25035271D02*
X39139785Y-25187652D01*
X39635023Y-24844795D02*
X39635023Y-25035271D01*
X39444547Y-24959080D02*
X39635023Y-25035271D01*
X39635023Y-25035271D02*
X39825500Y-24959080D01*
X39520738Y-25187652D02*
X39635023Y-25035271D01*
X39635023Y-25035271D02*
X39749309Y-25187652D01*
D11*
X66405119Y-50613214D02*
X66405119Y-51089404D01*
X66405119Y-51089404D02*
X65405119Y-51089404D01*
X66309880Y-49708452D02*
X66357500Y-49756071D01*
X66357500Y-49756071D02*
X66405119Y-49898928D01*
X66405119Y-49898928D02*
X66405119Y-49994166D01*
X66405119Y-49994166D02*
X66357500Y-50137023D01*
X66357500Y-50137023D02*
X66262261Y-50232261D01*
X66262261Y-50232261D02*
X66167023Y-50279880D01*
X66167023Y-50279880D02*
X65976547Y-50327499D01*
X65976547Y-50327499D02*
X65833690Y-50327499D01*
X65833690Y-50327499D02*
X65643214Y-50279880D01*
X65643214Y-50279880D02*
X65547976Y-50232261D01*
X65547976Y-50232261D02*
X65452738Y-50137023D01*
X65452738Y-50137023D02*
X65405119Y-49994166D01*
X65405119Y-49994166D02*
X65405119Y-49898928D01*
X65405119Y-49898928D02*
X65452738Y-49756071D01*
X65452738Y-49756071D02*
X65500357Y-49708452D01*
X66405119Y-49279880D02*
X65405119Y-49279880D01*
X65405119Y-49279880D02*
X65405119Y-49041785D01*
X65405119Y-49041785D02*
X65452738Y-48898928D01*
X65452738Y-48898928D02*
X65547976Y-48803690D01*
X65547976Y-48803690D02*
X65643214Y-48756071D01*
X65643214Y-48756071D02*
X65833690Y-48708452D01*
X65833690Y-48708452D02*
X65976547Y-48708452D01*
X65976547Y-48708452D02*
X66167023Y-48756071D01*
X66167023Y-48756071D02*
X66262261Y-48803690D01*
X66262261Y-48803690D02*
X66357500Y-48898928D01*
X66357500Y-48898928D02*
X66405119Y-49041785D01*
X66405119Y-49041785D02*
X66405119Y-49279880D01*
X66500357Y-48517976D02*
X66500357Y-47756071D01*
X65405119Y-47660832D02*
X65405119Y-47089404D01*
X66405119Y-47375118D02*
X65405119Y-47375118D01*
X65881309Y-46422737D02*
X65881309Y-46756070D01*
X66405119Y-46756070D02*
X65405119Y-46756070D01*
X65405119Y-46756070D02*
X65405119Y-46279880D01*
X65405119Y-46041784D02*
X65405119Y-45470356D01*
X66405119Y-45756070D02*
X65405119Y-45756070D01*
X65500357Y-44422736D02*
X65452738Y-44375117D01*
X65452738Y-44375117D02*
X65405119Y-44279879D01*
X65405119Y-44279879D02*
X65405119Y-44041784D01*
X65405119Y-44041784D02*
X65452738Y-43946546D01*
X65452738Y-43946546D02*
X65500357Y-43898927D01*
X65500357Y-43898927D02*
X65595595Y-43851308D01*
X65595595Y-43851308D02*
X65690833Y-43851308D01*
X65690833Y-43851308D02*
X65833690Y-43898927D01*
X65833690Y-43898927D02*
X66405119Y-44470355D01*
X66405119Y-44470355D02*
X66405119Y-43851308D01*
X66309880Y-43422736D02*
X66357500Y-43375117D01*
X66357500Y-43375117D02*
X66405119Y-43422736D01*
X66405119Y-43422736D02*
X66357500Y-43470355D01*
X66357500Y-43470355D02*
X66309880Y-43422736D01*
X66309880Y-43422736D02*
X66405119Y-43422736D01*
X65405119Y-42756070D02*
X65405119Y-42660832D01*
X65405119Y-42660832D02*
X65452738Y-42565594D01*
X65452738Y-42565594D02*
X65500357Y-42517975D01*
X65500357Y-42517975D02*
X65595595Y-42470356D01*
X65595595Y-42470356D02*
X65786071Y-42422737D01*
X65786071Y-42422737D02*
X66024166Y-42422737D01*
X66024166Y-42422737D02*
X66214642Y-42470356D01*
X66214642Y-42470356D02*
X66309880Y-42517975D01*
X66309880Y-42517975D02*
X66357500Y-42565594D01*
X66357500Y-42565594D02*
X66405119Y-42660832D01*
X66405119Y-42660832D02*
X66405119Y-42756070D01*
X66405119Y-42756070D02*
X66357500Y-42851308D01*
X66357500Y-42851308D02*
X66309880Y-42898927D01*
X66309880Y-42898927D02*
X66214642Y-42946546D01*
X66214642Y-42946546D02*
X66024166Y-42994165D01*
X66024166Y-42994165D02*
X65786071Y-42994165D01*
X65786071Y-42994165D02*
X65595595Y-42946546D01*
X65595595Y-42946546D02*
X65500357Y-42898927D01*
X65500357Y-42898927D02*
X65452738Y-42851308D01*
X65452738Y-42851308D02*
X65405119Y-42756070D01*
X66405119Y-41232260D02*
X65405119Y-41232260D01*
X65738452Y-40756070D02*
X66405119Y-40756070D01*
X65833690Y-40756070D02*
X65786071Y-40708451D01*
X65786071Y-40708451D02*
X65738452Y-40613213D01*
X65738452Y-40613213D02*
X65738452Y-40470356D01*
X65738452Y-40470356D02*
X65786071Y-40375118D01*
X65786071Y-40375118D02*
X65881309Y-40327499D01*
X65881309Y-40327499D02*
X66405119Y-40327499D01*
X66357500Y-39422737D02*
X66405119Y-39517975D01*
X66405119Y-39517975D02*
X66405119Y-39708451D01*
X66405119Y-39708451D02*
X66357500Y-39803689D01*
X66357500Y-39803689D02*
X66309880Y-39851308D01*
X66309880Y-39851308D02*
X66214642Y-39898927D01*
X66214642Y-39898927D02*
X65928928Y-39898927D01*
X65928928Y-39898927D02*
X65833690Y-39851308D01*
X65833690Y-39851308D02*
X65786071Y-39803689D01*
X65786071Y-39803689D02*
X65738452Y-39708451D01*
X65738452Y-39708451D02*
X65738452Y-39517975D01*
X65738452Y-39517975D02*
X65786071Y-39422737D01*
X66405119Y-38994165D02*
X65405119Y-38994165D01*
X66405119Y-38565594D02*
X65881309Y-38565594D01*
X65881309Y-38565594D02*
X65786071Y-38613213D01*
X65786071Y-38613213D02*
X65738452Y-38708451D01*
X65738452Y-38708451D02*
X65738452Y-38851308D01*
X65738452Y-38851308D02*
X65786071Y-38946546D01*
X65786071Y-38946546D02*
X65833690Y-38994165D01*
D10*
%TO.C,D3*%
X65137619Y-100113094D02*
X64137619Y-100113094D01*
X64137619Y-100113094D02*
X64137619Y-99874999D01*
X64137619Y-99874999D02*
X64185238Y-99732142D01*
X64185238Y-99732142D02*
X64280476Y-99636904D01*
X64280476Y-99636904D02*
X64375714Y-99589285D01*
X64375714Y-99589285D02*
X64566190Y-99541666D01*
X64566190Y-99541666D02*
X64709047Y-99541666D01*
X64709047Y-99541666D02*
X64899523Y-99589285D01*
X64899523Y-99589285D02*
X64994761Y-99636904D01*
X64994761Y-99636904D02*
X65090000Y-99732142D01*
X65090000Y-99732142D02*
X65137619Y-99874999D01*
X65137619Y-99874999D02*
X65137619Y-100113094D01*
X64137619Y-99208332D02*
X64137619Y-98589285D01*
X64137619Y-98589285D02*
X64518571Y-98922618D01*
X64518571Y-98922618D02*
X64518571Y-98779761D01*
X64518571Y-98779761D02*
X64566190Y-98684523D01*
X64566190Y-98684523D02*
X64613809Y-98636904D01*
X64613809Y-98636904D02*
X64709047Y-98589285D01*
X64709047Y-98589285D02*
X64947142Y-98589285D01*
X64947142Y-98589285D02*
X65042380Y-98636904D01*
X65042380Y-98636904D02*
X65090000Y-98684523D01*
X65090000Y-98684523D02*
X65137619Y-98779761D01*
X65137619Y-98779761D02*
X65137619Y-99065475D01*
X65137619Y-99065475D02*
X65090000Y-99160713D01*
X65090000Y-99160713D02*
X65042380Y-99208332D01*
D12*
%TO.C,J2*%
X38750000Y-194735000D02*
X38750000Y-193975000D01*
X39510000Y-194735000D02*
X38750000Y-194735000D01*
X41399677Y-193535000D02*
X41430323Y-193535000D01*
X41415000Y-193535000D02*
X41415000Y-192415000D01*
X42669677Y-193535000D02*
X42700323Y-193535000D01*
X42685000Y-193535000D02*
X42685000Y-192415000D01*
X43939677Y-193535000D02*
X43970323Y-193535000D01*
X43955000Y-193535000D02*
X43955000Y-192415000D01*
X45209677Y-193535000D02*
X45240323Y-193535000D01*
X45225000Y-193535000D02*
X45225000Y-192415000D01*
X46555000Y-193535000D02*
X46479677Y-193535000D01*
X38815000Y-193215000D02*
X38815000Y-192415000D01*
X40145000Y-193215000D02*
X40145000Y-192415000D01*
X38815000Y-192415000D02*
X46555000Y-192415000D01*
X46555000Y-192415000D02*
X46555000Y-193535000D01*
%TO.C,D5*%
X57990000Y-167825000D02*
X56070000Y-167825000D01*
X56070000Y-167825000D02*
X56070000Y-170510000D01*
X57990000Y-170510000D02*
X57990000Y-167825000D01*
%TO.C,J3*%
X58026911Y-97904624D02*
X56026911Y-97904624D01*
X56026911Y-97904624D02*
X56026911Y-103104624D01*
X56026911Y-103104624D02*
X58026911Y-103104624D01*
X58026911Y-103104624D02*
X58026911Y-97904624D01*
D10*
X63036911Y-100514624D02*
G75*
G03*
X63036911Y-100514624I-6030000J0D01*
G01*
D13*
%TO.C,J1*%
X50955000Y-188395000D02*
X50955000Y-197655000D01*
X51670000Y-199775000D02*
X63330000Y-199775000D01*
X60690000Y-186055000D02*
X63330000Y-186055000D01*
X64045000Y-188395000D02*
X64045000Y-197655000D01*
X57850000Y-184425000D02*
G75*
G03*
X57850000Y-184425000I-100000J0D01*
G01*
D12*
%TO.C,D1*%
X57960000Y-144815000D02*
X56040000Y-144815000D01*
X56040000Y-144815000D02*
X56040000Y-147500000D01*
X57960000Y-147500000D02*
X57960000Y-144815000D01*
%TO.C,*%
D14*
X43499990Y-115781214D02*
X43578314Y-115890575D01*
X43591971Y-115969165D01*
X43589713Y-116154108D01*
X43556693Y-116244332D01*
X43435446Y-116288212D01*
X43251109Y-116304663D01*
X43084580Y-116288048D01*
X43026548Y-116203361D01*
X43032386Y-116029496D01*
X43070567Y-115838807D01*
X43169385Y-115764815D01*
X43312918Y-115754330D01*
X43499990Y-115781214D01*
G36*
X43499990Y-115781214D02*
G01*
X43578314Y-115890575D01*
X43591971Y-115969165D01*
X43589713Y-116154108D01*
X43556693Y-116244332D01*
X43435446Y-116288212D01*
X43251109Y-116304663D01*
X43084580Y-116288048D01*
X43026548Y-116203361D01*
X43032386Y-116029496D01*
X43070567Y-115838807D01*
X43169385Y-115764815D01*
X43312918Y-115754330D01*
X43499990Y-115781214D01*
G37*
X36902933Y-116738377D02*
X36973480Y-116765927D01*
X36923964Y-116826711D01*
X36899418Y-116845856D01*
X36768083Y-116973478D01*
X36791055Y-117050752D01*
X36885846Y-117081622D01*
X36969776Y-117134771D01*
X36956402Y-117172496D01*
X36834463Y-117216184D01*
X36625575Y-117235903D01*
X36610140Y-117235996D01*
X36497251Y-117226605D01*
X36417302Y-117219953D01*
X36340703Y-117140442D01*
X36328321Y-116986993D01*
X36412584Y-116986993D01*
X36477163Y-117064383D01*
X36497251Y-117066663D01*
X36571555Y-116997748D01*
X36581918Y-116934666D01*
X36540872Y-116847032D01*
X36497251Y-116854996D01*
X36415814Y-116963239D01*
X36412584Y-116986993D01*
X36328321Y-116986993D01*
X36327918Y-116981996D01*
X36339875Y-116822708D01*
X36407212Y-116749943D01*
X36577131Y-116730735D01*
X36687751Y-116730689D01*
X36902933Y-116738377D01*
G36*
X36902933Y-116738377D02*
G01*
X36973480Y-116765927D01*
X36923964Y-116826711D01*
X36899418Y-116845856D01*
X36768083Y-116973478D01*
X36791055Y-117050752D01*
X36885846Y-117081622D01*
X36969776Y-117134771D01*
X36956402Y-117172496D01*
X36834463Y-117216184D01*
X36625575Y-117235903D01*
X36610140Y-117235996D01*
X36497251Y-117226605D01*
X36417302Y-117219953D01*
X36340703Y-117140442D01*
X36328321Y-116986993D01*
X36412584Y-116986993D01*
X36477163Y-117064383D01*
X36497251Y-117066663D01*
X36571555Y-116997748D01*
X36581918Y-116934666D01*
X36540872Y-116847032D01*
X36497251Y-116854996D01*
X36415814Y-116963239D01*
X36412584Y-116986993D01*
X36328321Y-116986993D01*
X36327918Y-116981996D01*
X36339875Y-116822708D01*
X36407212Y-116749943D01*
X36577131Y-116730735D01*
X36687751Y-116730689D01*
X36902933Y-116738377D01*
G37*
X36839625Y-116374993D02*
X36857535Y-116381454D01*
X37100035Y-116551946D01*
X37235010Y-116806107D01*
X37250521Y-117091335D01*
X37134630Y-117355032D01*
X37089918Y-117405330D01*
X36834127Y-117553989D01*
X36600923Y-117566125D01*
X36540606Y-117569265D01*
X36270521Y-117454711D01*
X36164729Y-117351578D01*
X36022654Y-117127393D01*
X36013929Y-117035338D01*
X36173405Y-117035338D01*
X36282053Y-117282314D01*
X36423995Y-117397623D01*
X36600923Y-117474617D01*
X36745191Y-117450070D01*
X36868495Y-117377175D01*
X37041366Y-117176270D01*
X37091658Y-116920331D01*
X37011940Y-116674104D01*
X36956870Y-116607044D01*
X36738770Y-116485627D01*
X36508367Y-116499515D01*
X36310040Y-116624446D01*
X36188169Y-116836161D01*
X36173405Y-117035338D01*
X36013929Y-117035338D01*
X36003621Y-116926571D01*
X36084900Y-116695370D01*
X36272409Y-116468600D01*
X36544290Y-116353558D01*
X36839625Y-116374993D01*
G36*
X36839625Y-116374993D02*
G01*
X36857535Y-116381454D01*
X37100035Y-116551946D01*
X37235010Y-116806107D01*
X37250521Y-117091335D01*
X37134630Y-117355032D01*
X37089918Y-117405330D01*
X36834127Y-117553989D01*
X36600923Y-117566125D01*
X36540606Y-117569265D01*
X36270521Y-117454711D01*
X36164729Y-117351578D01*
X36022654Y-117127393D01*
X36013929Y-117035338D01*
X36173405Y-117035338D01*
X36282053Y-117282314D01*
X36423995Y-117397623D01*
X36600923Y-117474617D01*
X36745191Y-117450070D01*
X36868495Y-117377175D01*
X37041366Y-117176270D01*
X37091658Y-116920331D01*
X37011940Y-116674104D01*
X36956870Y-116607044D01*
X36738770Y-116485627D01*
X36508367Y-116499515D01*
X36310040Y-116624446D01*
X36188169Y-116836161D01*
X36173405Y-117035338D01*
X36013929Y-117035338D01*
X36003621Y-116926571D01*
X36084900Y-116695370D01*
X36272409Y-116468600D01*
X36544290Y-116353558D01*
X36839625Y-116374993D01*
G37*
X46143445Y-115346956D02*
X46177628Y-115533373D01*
X46191114Y-115866042D01*
X46191584Y-115966125D01*
X46182509Y-116335265D01*
X46153403Y-116553985D01*
X46101449Y-116640320D01*
X46085751Y-116643349D01*
X46006644Y-116570933D01*
X45979918Y-116428799D01*
X45979918Y-116214268D01*
X45069751Y-116238299D01*
X44667691Y-116250781D01*
X44404277Y-116267476D01*
X44248847Y-116295403D01*
X44170737Y-116341580D01*
X44139284Y-116413027D01*
X44132529Y-116452830D01*
X44088172Y-116601643D01*
X44043954Y-116643330D01*
X43986947Y-116570362D01*
X43911441Y-116390183D01*
X43835679Y-116160881D01*
X43777909Y-115940543D01*
X43756374Y-115787258D01*
X43764660Y-115754143D01*
X43860553Y-115738307D01*
X44092477Y-115725186D01*
X44427134Y-115716024D01*
X44831227Y-115712065D01*
X44893362Y-115711996D01*
X45979918Y-115711996D01*
X45979918Y-115500330D01*
X46016069Y-115341387D01*
X46085751Y-115288772D01*
X46143445Y-115346956D01*
G36*
X46143445Y-115346956D02*
G01*
X46177628Y-115533373D01*
X46191114Y-115866042D01*
X46191584Y-115966125D01*
X46182509Y-116335265D01*
X46153403Y-116553985D01*
X46101449Y-116640320D01*
X46085751Y-116643349D01*
X46006644Y-116570933D01*
X45979918Y-116428799D01*
X45979918Y-116214268D01*
X45069751Y-116238299D01*
X44667691Y-116250781D01*
X44404277Y-116267476D01*
X44248847Y-116295403D01*
X44170737Y-116341580D01*
X44139284Y-116413027D01*
X44132529Y-116452830D01*
X44088172Y-116601643D01*
X44043954Y-116643330D01*
X43986947Y-116570362D01*
X43911441Y-116390183D01*
X43835679Y-116160881D01*
X43777909Y-115940543D01*
X43756374Y-115787258D01*
X43764660Y-115754143D01*
X43860553Y-115738307D01*
X44092477Y-115725186D01*
X44427134Y-115716024D01*
X44831227Y-115712065D01*
X44893362Y-115711996D01*
X45979918Y-115711996D01*
X45979918Y-115500330D01*
X46016069Y-115341387D01*
X46085751Y-115288772D01*
X46143445Y-115346956D01*
G37*
X46105815Y-118753517D02*
X46133094Y-118962259D01*
X46147821Y-119262829D01*
X46149251Y-119399993D01*
X46140146Y-119772785D01*
X46113807Y-120001709D01*
X46071698Y-120075145D01*
X46064584Y-120072330D01*
X45992105Y-119952269D01*
X45979918Y-119864725D01*
X45950569Y-119745574D01*
X45844602Y-119668480D01*
X45635136Y-119625547D01*
X45295290Y-119608881D01*
X45105159Y-119607819D01*
X44662573Y-119618824D01*
X44366080Y-119653717D01*
X44193409Y-119718310D01*
X44122287Y-119818412D01*
X44117251Y-119865541D01*
X44078545Y-120034710D01*
X43994730Y-120058291D01*
X43914256Y-119931832D01*
X43902207Y-119885293D01*
X43833914Y-119630643D01*
X43772725Y-119454513D01*
X43712433Y-119292880D01*
X43693918Y-119224137D01*
X43773387Y-119209229D01*
X43991037Y-119193612D01*
X44315732Y-119178937D01*
X44716337Y-119166855D01*
X44815751Y-119164621D01*
X45937584Y-119140996D01*
X45964375Y-118908163D01*
X46008692Y-118739034D01*
X46070208Y-118675330D01*
X46105815Y-118753517D01*
G36*
X46105815Y-118753517D02*
G01*
X46133094Y-118962259D01*
X46147821Y-119262829D01*
X46149251Y-119399993D01*
X46140146Y-119772785D01*
X46113807Y-120001709D01*
X46071698Y-120075145D01*
X46064584Y-120072330D01*
X45992105Y-119952269D01*
X45979918Y-119864725D01*
X45950569Y-119745574D01*
X45844602Y-119668480D01*
X45635136Y-119625547D01*
X45295290Y-119608881D01*
X45105159Y-119607819D01*
X44662573Y-119618824D01*
X44366080Y-119653717D01*
X44193409Y-119718310D01*
X44122287Y-119818412D01*
X44117251Y-119865541D01*
X44078545Y-120034710D01*
X43994730Y-120058291D01*
X43914256Y-119931832D01*
X43902207Y-119885293D01*
X43833914Y-119630643D01*
X43772725Y-119454513D01*
X43712433Y-119292880D01*
X43693918Y-119224137D01*
X43773387Y-119209229D01*
X43991037Y-119193612D01*
X44315732Y-119178937D01*
X44716337Y-119166855D01*
X44815751Y-119164621D01*
X45937584Y-119140996D01*
X45964375Y-118908163D01*
X46008692Y-118739034D01*
X46070208Y-118675330D01*
X46105815Y-118753517D01*
G37*
X45965652Y-113035525D02*
X45988868Y-113058651D01*
X46131147Y-113302251D01*
X46201567Y-113637106D01*
X46195074Y-113998874D01*
X46106615Y-114323212D01*
X46090731Y-114355642D01*
X45827269Y-114702054D01*
X45479715Y-114930231D01*
X45085443Y-115029653D01*
X44681830Y-114989802D01*
X44363894Y-114841659D01*
X44035970Y-114529848D01*
X43803364Y-114125629D01*
X43698218Y-113688168D01*
X43695310Y-113610930D01*
X43715016Y-113274716D01*
X43791920Y-113076990D01*
X43947961Y-112990617D01*
X44199078Y-112987881D01*
X44429812Y-113038191D01*
X44512497Y-113116959D01*
X44440423Y-113202493D01*
X44282532Y-113257620D01*
X44090924Y-113380350D01*
X43986360Y-113608676D01*
X43980482Y-113896577D01*
X44057867Y-114145663D01*
X44205897Y-114364677D01*
X44418944Y-114472282D01*
X44499468Y-114490144D01*
X44984876Y-114515635D01*
X45390234Y-114397622D01*
X45672983Y-114177776D01*
X45808874Y-114011212D01*
X45875355Y-113859482D01*
X45888710Y-113658527D01*
X45870437Y-113400974D01*
X45847466Y-113123432D01*
X45849524Y-112987800D01*
X45885842Y-112967392D01*
X45965652Y-113035525D01*
G36*
X45965652Y-113035525D02*
G01*
X45988868Y-113058651D01*
X46131147Y-113302251D01*
X46201567Y-113637106D01*
X46195074Y-113998874D01*
X46106615Y-114323212D01*
X46090731Y-114355642D01*
X45827269Y-114702054D01*
X45479715Y-114930231D01*
X45085443Y-115029653D01*
X44681830Y-114989802D01*
X44363894Y-114841659D01*
X44035970Y-114529848D01*
X43803364Y-114125629D01*
X43698218Y-113688168D01*
X43695310Y-113610930D01*
X43715016Y-113274716D01*
X43791920Y-113076990D01*
X43947961Y-112990617D01*
X44199078Y-112987881D01*
X44429812Y-113038191D01*
X44512497Y-113116959D01*
X44440423Y-113202493D01*
X44282532Y-113257620D01*
X44090924Y-113380350D01*
X43986360Y-113608676D01*
X43980482Y-113896577D01*
X44057867Y-114145663D01*
X44205897Y-114364677D01*
X44418944Y-114472282D01*
X44499468Y-114490144D01*
X44984876Y-114515635D01*
X45390234Y-114397622D01*
X45672983Y-114177776D01*
X45808874Y-114011212D01*
X45875355Y-113859482D01*
X45888710Y-113658527D01*
X45870437Y-113400974D01*
X45847466Y-113123432D01*
X45849524Y-112987800D01*
X45885842Y-112967392D01*
X45965652Y-113035525D01*
G37*
X46004392Y-130159334D02*
X46101454Y-130312298D01*
X46175817Y-130576487D01*
X46213899Y-130897354D01*
X46216683Y-131244877D01*
X46170572Y-131491471D01*
X46079176Y-131678439D01*
X45886881Y-131894467D01*
X45639183Y-132069741D01*
X45617284Y-132080606D01*
X45171310Y-132210333D01*
X44745858Y-132178902D01*
X44362852Y-131994479D01*
X44044219Y-131665234D01*
X43914589Y-131446246D01*
X43762245Y-131099364D01*
X43703131Y-130825510D01*
X43729587Y-130561713D01*
X43784667Y-130378274D01*
X43860229Y-130208646D01*
X43965944Y-130148311D01*
X44166879Y-130162917D01*
X44186834Y-130165957D01*
X44396922Y-130203237D01*
X44519365Y-130234199D01*
X44527896Y-130238681D01*
X44529714Y-130318399D01*
X44431126Y-130403881D01*
X44291211Y-130443996D01*
X44290646Y-130443996D01*
X44139105Y-130503705D01*
X44055671Y-130693490D01*
X44032584Y-130991875D01*
X44099778Y-131324861D01*
X44300211Y-131553820D01*
X44632163Y-131676996D01*
X44715812Y-131688967D01*
X45159058Y-131675851D01*
X45524168Y-131542571D01*
X45790537Y-131309004D01*
X45937560Y-130995024D01*
X45944630Y-130620506D01*
X45923335Y-130524278D01*
X45881154Y-130305531D01*
X45884371Y-130165589D01*
X45896900Y-130146644D01*
X46004392Y-130159334D01*
G36*
X46004392Y-130159334D02*
G01*
X46101454Y-130312298D01*
X46175817Y-130576487D01*
X46213899Y-130897354D01*
X46216683Y-131244877D01*
X46170572Y-131491471D01*
X46079176Y-131678439D01*
X45886881Y-131894467D01*
X45639183Y-132069741D01*
X45617284Y-132080606D01*
X45171310Y-132210333D01*
X44745858Y-132178902D01*
X44362852Y-131994479D01*
X44044219Y-131665234D01*
X43914589Y-131446246D01*
X43762245Y-131099364D01*
X43703131Y-130825510D01*
X43729587Y-130561713D01*
X43784667Y-130378274D01*
X43860229Y-130208646D01*
X43965944Y-130148311D01*
X44166879Y-130162917D01*
X44186834Y-130165957D01*
X44396922Y-130203237D01*
X44519365Y-130234199D01*
X44527896Y-130238681D01*
X44529714Y-130318399D01*
X44431126Y-130403881D01*
X44291211Y-130443996D01*
X44290646Y-130443996D01*
X44139105Y-130503705D01*
X44055671Y-130693490D01*
X44032584Y-130991875D01*
X44099778Y-131324861D01*
X44300211Y-131553820D01*
X44632163Y-131676996D01*
X44715812Y-131688967D01*
X45159058Y-131675851D01*
X45524168Y-131542571D01*
X45790537Y-131309004D01*
X45937560Y-130995024D01*
X45944630Y-130620506D01*
X45923335Y-130524278D01*
X45881154Y-130305531D01*
X45884371Y-130165589D01*
X45896900Y-130146644D01*
X46004392Y-130159334D01*
G37*
X44004397Y-120298333D02*
X44112227Y-120366729D01*
X44169909Y-120544657D01*
X44186021Y-120695121D01*
X44212458Y-121062451D01*
X44972329Y-121033057D01*
X45392351Y-121005833D01*
X45665972Y-120954709D01*
X45815724Y-120867400D01*
X45864142Y-120731620D01*
X45840216Y-120559867D01*
X45835561Y-120404749D01*
X45918633Y-120382731D01*
X46068823Y-120496768D01*
X46093795Y-120523497D01*
X46209269Y-120755872D01*
X46220959Y-121030802D01*
X46130271Y-121271354D01*
X46079084Y-121329208D01*
X45967750Y-121396705D01*
X45791274Y-121439462D01*
X45516064Y-121462111D01*
X45108531Y-121469285D01*
X45063084Y-121469330D01*
X44201918Y-121469330D01*
X44201918Y-121680996D01*
X44177561Y-121840179D01*
X44130841Y-121892663D01*
X44047528Y-121824338D01*
X43963323Y-121680996D01*
X43872994Y-121544301D01*
X43729382Y-121482779D01*
X43497656Y-121469330D01*
X43252447Y-121453476D01*
X43115104Y-121387473D01*
X43030174Y-121253679D01*
X42958190Y-121081039D01*
X42931918Y-120992401D01*
X43008452Y-120972350D01*
X43206595Y-120967432D01*
X43415839Y-120975218D01*
X43899761Y-121003663D01*
X43874486Y-120636270D01*
X43868201Y-120408013D01*
X43901525Y-120307714D01*
X43989684Y-120295764D01*
X44004397Y-120298333D01*
G36*
X44004397Y-120298333D02*
G01*
X44112227Y-120366729D01*
X44169909Y-120544657D01*
X44186021Y-120695121D01*
X44212458Y-121062451D01*
X44972329Y-121033057D01*
X45392351Y-121005833D01*
X45665972Y-120954709D01*
X45815724Y-120867400D01*
X45864142Y-120731620D01*
X45840216Y-120559867D01*
X45835561Y-120404749D01*
X45918633Y-120382731D01*
X46068823Y-120496768D01*
X46093795Y-120523497D01*
X46209269Y-120755872D01*
X46220959Y-121030802D01*
X46130271Y-121271354D01*
X46079084Y-121329208D01*
X45967750Y-121396705D01*
X45791274Y-121439462D01*
X45516064Y-121462111D01*
X45108531Y-121469285D01*
X45063084Y-121469330D01*
X44201918Y-121469330D01*
X44201918Y-121680996D01*
X44177561Y-121840179D01*
X44130841Y-121892663D01*
X44047528Y-121824338D01*
X43963323Y-121680996D01*
X43872994Y-121544301D01*
X43729382Y-121482779D01*
X43497656Y-121469330D01*
X43252447Y-121453476D01*
X43115104Y-121387473D01*
X43030174Y-121253679D01*
X42958190Y-121081039D01*
X42931918Y-120992401D01*
X43008452Y-120972350D01*
X43206595Y-120967432D01*
X43415839Y-120975218D01*
X43899761Y-121003663D01*
X43874486Y-120636270D01*
X43868201Y-120408013D01*
X43901525Y-120307714D01*
X43989684Y-120295764D01*
X44004397Y-120298333D01*
G37*
X44821247Y-125353190D02*
X44905639Y-125500212D01*
X44949326Y-125766880D01*
X44963599Y-126175481D01*
X44963918Y-126273947D01*
X44963918Y-127078496D01*
X45235014Y-127024277D01*
X45587282Y-126879245D01*
X45827823Y-126625446D01*
X45941944Y-126292891D01*
X45914952Y-125911588D01*
X45859772Y-125748344D01*
X45764242Y-125512474D01*
X45737524Y-125403597D01*
X45782134Y-125392889D01*
X45886345Y-125443897D01*
X46048750Y-125616092D01*
X46163368Y-125901696D01*
X46223788Y-126249916D01*
X46223598Y-126609961D01*
X46156387Y-126931038D01*
X46091363Y-127068099D01*
X45855168Y-127336543D01*
X45533081Y-127497241D01*
X45097111Y-127562485D01*
X44958911Y-127565330D01*
X44660567Y-127558471D01*
X44637360Y-127553949D01*
X44466151Y-127520588D01*
X44310333Y-127425723D01*
X44127784Y-127247914D01*
X44108087Y-127227246D01*
X43849672Y-126861752D01*
X43726725Y-126475536D01*
X43728139Y-126393251D01*
X43933161Y-126393251D01*
X43979927Y-126649129D01*
X44171002Y-126881851D01*
X44421441Y-127025197D01*
X44637360Y-127050684D01*
X44741607Y-126997418D01*
X44768822Y-126887788D01*
X44781262Y-126659988D01*
X44776885Y-126383584D01*
X44760184Y-126087311D01*
X44732606Y-125924181D01*
X44677929Y-125858088D01*
X44579925Y-125852927D01*
X44540584Y-125857739D01*
X44226533Y-125961415D01*
X44019711Y-126151966D01*
X43933161Y-126393251D01*
X43728139Y-126393251D01*
X43733192Y-126099075D01*
X43863017Y-125762845D01*
X44110149Y-125497322D01*
X44468532Y-125332982D01*
X44485183Y-125328924D01*
X44684858Y-125303523D01*
X44821247Y-125353190D01*
G36*
X44821247Y-125353190D02*
G01*
X44905639Y-125500212D01*
X44949326Y-125766880D01*
X44963599Y-126175481D01*
X44963918Y-126273947D01*
X44963918Y-127078496D01*
X45235014Y-127024277D01*
X45587282Y-126879245D01*
X45827823Y-126625446D01*
X45941944Y-126292891D01*
X45914952Y-125911588D01*
X45859772Y-125748344D01*
X45764242Y-125512474D01*
X45737524Y-125403597D01*
X45782134Y-125392889D01*
X45886345Y-125443897D01*
X46048750Y-125616092D01*
X46163368Y-125901696D01*
X46223788Y-126249916D01*
X46223598Y-126609961D01*
X46156387Y-126931038D01*
X46091363Y-127068099D01*
X45855168Y-127336543D01*
X45533081Y-127497241D01*
X45097111Y-127562485D01*
X44958911Y-127565330D01*
X44660567Y-127558471D01*
X44637360Y-127553949D01*
X44466151Y-127520588D01*
X44310333Y-127425723D01*
X44127784Y-127247914D01*
X44108087Y-127227246D01*
X43849672Y-126861752D01*
X43726725Y-126475536D01*
X43728139Y-126393251D01*
X43933161Y-126393251D01*
X43979927Y-126649129D01*
X44171002Y-126881851D01*
X44421441Y-127025197D01*
X44637360Y-127050684D01*
X44741607Y-126997418D01*
X44768822Y-126887788D01*
X44781262Y-126659988D01*
X44776885Y-126383584D01*
X44760184Y-126087311D01*
X44732606Y-125924181D01*
X44677929Y-125858088D01*
X44579925Y-125852927D01*
X44540584Y-125857739D01*
X44226533Y-125961415D01*
X44019711Y-126151966D01*
X43933161Y-126393251D01*
X43728139Y-126393251D01*
X43733192Y-126099075D01*
X43863017Y-125762845D01*
X44110149Y-125497322D01*
X44468532Y-125332982D01*
X44485183Y-125328924D01*
X44684858Y-125303523D01*
X44821247Y-125353190D01*
G37*
X45522473Y-132585199D02*
X45821937Y-132731983D01*
X45912991Y-132805850D01*
X46056330Y-132946566D01*
X46141356Y-133084483D01*
X46186186Y-133271815D01*
X46208938Y-133560777D01*
X46214106Y-133673684D01*
X46217152Y-133994147D01*
X46200188Y-134255491D01*
X46166841Y-134405192D01*
X46163173Y-134411375D01*
X46047770Y-134482608D01*
X45824521Y-134480644D01*
X45736394Y-134467433D01*
X45508376Y-134407663D01*
X45398220Y-134337960D01*
X45419854Y-134279644D01*
X45587208Y-134254039D01*
X45596966Y-134253996D01*
X45822707Y-134178817D01*
X45981051Y-133980046D01*
X46047748Y-133697838D01*
X46037160Y-133525135D01*
X45944725Y-133204125D01*
X45788605Y-133029227D01*
X45593547Y-132983996D01*
X45458992Y-133000192D01*
X45359948Y-133069870D01*
X45275881Y-133224664D01*
X45186255Y-133496211D01*
X45129181Y-133699372D01*
X44978149Y-134111647D01*
X44789253Y-134365105D01*
X44552786Y-134467906D01*
X44261251Y-134428940D01*
X43967408Y-134249435D01*
X43781071Y-133950224D01*
X43710592Y-133548866D01*
X43723390Y-133297992D01*
X43758792Y-133048809D01*
X43793895Y-132879328D01*
X43809794Y-132839897D01*
X43909494Y-132823532D01*
X44111332Y-132828490D01*
X44172257Y-132833405D01*
X44377018Y-132855391D01*
X44428734Y-132881389D01*
X44343022Y-132930486D01*
X44275808Y-132959976D01*
X44071450Y-133126352D01*
X43954266Y-133375232D01*
X43931243Y-133651212D01*
X44009371Y-133898889D01*
X44140343Y-134033884D01*
X44328812Y-134079243D01*
X44494551Y-133961202D01*
X44639341Y-133677868D01*
X44719582Y-133417557D01*
X44815993Y-133113266D01*
X44926581Y-132856550D01*
X45007870Y-132728207D01*
X45240976Y-132583071D01*
X45522473Y-132585199D01*
G36*
X45522473Y-132585199D02*
G01*
X45821937Y-132731983D01*
X45912991Y-132805850D01*
X46056330Y-132946566D01*
X46141356Y-133084483D01*
X46186186Y-133271815D01*
X46208938Y-133560777D01*
X46214106Y-133673684D01*
X46217152Y-133994147D01*
X46200188Y-134255491D01*
X46166841Y-134405192D01*
X46163173Y-134411375D01*
X46047770Y-134482608D01*
X45824521Y-134480644D01*
X45736394Y-134467433D01*
X45508376Y-134407663D01*
X45398220Y-134337960D01*
X45419854Y-134279644D01*
X45587208Y-134254039D01*
X45596966Y-134253996D01*
X45822707Y-134178817D01*
X45981051Y-133980046D01*
X46047748Y-133697838D01*
X46037160Y-133525135D01*
X45944725Y-133204125D01*
X45788605Y-133029227D01*
X45593547Y-132983996D01*
X45458992Y-133000192D01*
X45359948Y-133069870D01*
X45275881Y-133224664D01*
X45186255Y-133496211D01*
X45129181Y-133699372D01*
X44978149Y-134111647D01*
X44789253Y-134365105D01*
X44552786Y-134467906D01*
X44261251Y-134428940D01*
X43967408Y-134249435D01*
X43781071Y-133950224D01*
X43710592Y-133548866D01*
X43723390Y-133297992D01*
X43758792Y-133048809D01*
X43793895Y-132879328D01*
X43809794Y-132839897D01*
X43909494Y-132823532D01*
X44111332Y-132828490D01*
X44172257Y-132833405D01*
X44377018Y-132855391D01*
X44428734Y-132881389D01*
X44343022Y-132930486D01*
X44275808Y-132959976D01*
X44071450Y-133126352D01*
X43954266Y-133375232D01*
X43931243Y-133651212D01*
X44009371Y-133898889D01*
X44140343Y-134033884D01*
X44328812Y-134079243D01*
X44494551Y-133961202D01*
X44639341Y-133677868D01*
X44719582Y-133417557D01*
X44815993Y-133113266D01*
X44926581Y-132856550D01*
X45007870Y-132728207D01*
X45240976Y-132583071D01*
X45522473Y-132585199D01*
G37*
X42757865Y-116743919D02*
X42803920Y-116823080D01*
X42792767Y-117012572D01*
X42785986Y-117064624D01*
X42768679Y-117286857D01*
X42813461Y-117404726D01*
X42946761Y-117479402D01*
X42968888Y-117487958D01*
X43209979Y-117546365D01*
X43497147Y-117574266D01*
X43530096Y-117574663D01*
X43863251Y-117574663D01*
X43863251Y-117186608D01*
X43889860Y-116929818D01*
X43953972Y-116829694D01*
X44032011Y-116884967D01*
X44100405Y-117094367D01*
X44117251Y-117200281D01*
X44159584Y-117532330D01*
X45047425Y-117532330D01*
X45445082Y-117529947D01*
X45704449Y-117518985D01*
X45856542Y-117493724D01*
X45932381Y-117448446D01*
X45962984Y-117377432D01*
X45965809Y-117362996D01*
X46027043Y-117182886D01*
X46072802Y-117113230D01*
X46110521Y-117149347D01*
X46136766Y-117332481D01*
X46148787Y-117640542D01*
X46149251Y-117727063D01*
X46140395Y-118045905D01*
X46116821Y-118287563D01*
X46083017Y-118412473D01*
X46070473Y-118421330D01*
X45998683Y-118349340D01*
X45964639Y-118230830D01*
X45942981Y-118144801D01*
X45886381Y-118088214D01*
X45763403Y-118053530D01*
X45542612Y-118033209D01*
X45192573Y-118019711D01*
X45069751Y-118016201D01*
X44679314Y-118007288D01*
X44427718Y-118010138D01*
X44284598Y-118029935D01*
X44219591Y-118071864D01*
X44202331Y-118141109D01*
X44201918Y-118164368D01*
X44161679Y-118311239D01*
X44065498Y-118314306D01*
X43953998Y-118178690D01*
X43795769Y-118049743D01*
X43485145Y-117977412D01*
X43478103Y-117976607D01*
X43106679Y-117860850D01*
X42750301Y-117622027D01*
X42466046Y-117301106D01*
X42412278Y-117211632D01*
X42362217Y-116994040D01*
X42434018Y-116815307D01*
X42602972Y-116729513D01*
X42633233Y-116727996D01*
X42757865Y-116743919D01*
G36*
X42757865Y-116743919D02*
G01*
X42803920Y-116823080D01*
X42792767Y-117012572D01*
X42785986Y-117064624D01*
X42768679Y-117286857D01*
X42813461Y-117404726D01*
X42946761Y-117479402D01*
X42968888Y-117487958D01*
X43209979Y-117546365D01*
X43497147Y-117574266D01*
X43530096Y-117574663D01*
X43863251Y-117574663D01*
X43863251Y-117186608D01*
X43889860Y-116929818D01*
X43953972Y-116829694D01*
X44032011Y-116884967D01*
X44100405Y-117094367D01*
X44117251Y-117200281D01*
X44159584Y-117532330D01*
X45047425Y-117532330D01*
X45445082Y-117529947D01*
X45704449Y-117518985D01*
X45856542Y-117493724D01*
X45932381Y-117448446D01*
X45962984Y-117377432D01*
X45965809Y-117362996D01*
X46027043Y-117182886D01*
X46072802Y-117113230D01*
X46110521Y-117149347D01*
X46136766Y-117332481D01*
X46148787Y-117640542D01*
X46149251Y-117727063D01*
X46140395Y-118045905D01*
X46116821Y-118287563D01*
X46083017Y-118412473D01*
X46070473Y-118421330D01*
X45998683Y-118349340D01*
X45964639Y-118230830D01*
X45942981Y-118144801D01*
X45886381Y-118088214D01*
X45763403Y-118053530D01*
X45542612Y-118033209D01*
X45192573Y-118019711D01*
X45069751Y-118016201D01*
X44679314Y-118007288D01*
X44427718Y-118010138D01*
X44284598Y-118029935D01*
X44219591Y-118071864D01*
X44202331Y-118141109D01*
X44201918Y-118164368D01*
X44161679Y-118311239D01*
X44065498Y-118314306D01*
X43953998Y-118178690D01*
X43795769Y-118049743D01*
X43485145Y-117977412D01*
X43478103Y-117976607D01*
X43106679Y-117860850D01*
X42750301Y-117622027D01*
X42466046Y-117301106D01*
X42412278Y-117211632D01*
X42362217Y-116994040D01*
X42434018Y-116815307D01*
X42602972Y-116729513D01*
X42633233Y-116727996D01*
X42757865Y-116743919D01*
G37*
X46118202Y-122174118D02*
X46147257Y-122390120D01*
X46149251Y-122475727D01*
X46149251Y-122889458D01*
X45250754Y-122922717D01*
X44845960Y-122940566D01*
X44574408Y-122963723D01*
X44400030Y-123000289D01*
X44286759Y-123058364D01*
X44198526Y-123146050D01*
X44185438Y-123161990D01*
X44069223Y-123429014D01*
X44091922Y-123731311D01*
X44248924Y-124014301D01*
X44258379Y-124024941D01*
X44354047Y-124099745D01*
X44500864Y-124146217D01*
X44735603Y-124170431D01*
X45095036Y-124178463D01*
X45188706Y-124178663D01*
X45557669Y-124177130D01*
X45789278Y-124166829D01*
X45915513Y-124139203D01*
X45968355Y-124085697D01*
X45979783Y-123997756D01*
X45979918Y-123966996D01*
X46008900Y-123807882D01*
X46064584Y-123755330D01*
X46106513Y-123834546D01*
X46135978Y-124050816D01*
X46148969Y-124372070D01*
X46149251Y-124432663D01*
X46139349Y-124768095D01*
X46112315Y-125003810D01*
X46072158Y-125107739D01*
X46064584Y-125109996D01*
X46000938Y-125037540D01*
X45979918Y-124898330D01*
X45979918Y-124686663D01*
X44117251Y-124686663D01*
X44117251Y-124898330D01*
X44090908Y-125071783D01*
X44025245Y-125097037D01*
X43940312Y-124984474D01*
X43861825Y-124766034D01*
X43792274Y-124519601D01*
X43733741Y-124331737D01*
X43722503Y-124300368D01*
X43737880Y-124207530D01*
X43895590Y-124178676D01*
X43900835Y-124178663D01*
X44125868Y-124178663D01*
X43898909Y-123881104D01*
X43751043Y-123649800D01*
X43704099Y-123435956D01*
X43718877Y-123233680D01*
X43776458Y-122956993D01*
X43880728Y-122760823D01*
X44058571Y-122629817D01*
X44336870Y-122548624D01*
X44742507Y-122501893D01*
X45029382Y-122485330D01*
X45431099Y-122464584D01*
X45694235Y-122442121D01*
X45849439Y-122410312D01*
X45927359Y-122361525D01*
X45958645Y-122288132D01*
X45964639Y-122252496D01*
X46010556Y-122085552D01*
X46067189Y-122066010D01*
X46118202Y-122174118D01*
G36*
X46118202Y-122174118D02*
G01*
X46147257Y-122390120D01*
X46149251Y-122475727D01*
X46149251Y-122889458D01*
X45250754Y-122922717D01*
X44845960Y-122940566D01*
X44574408Y-122963723D01*
X44400030Y-123000289D01*
X44286759Y-123058364D01*
X44198526Y-123146050D01*
X44185438Y-123161990D01*
X44069223Y-123429014D01*
X44091922Y-123731311D01*
X44248924Y-124014301D01*
X44258379Y-124024941D01*
X44354047Y-124099745D01*
X44500864Y-124146217D01*
X44735603Y-124170431D01*
X45095036Y-124178463D01*
X45188706Y-124178663D01*
X45557669Y-124177130D01*
X45789278Y-124166829D01*
X45915513Y-124139203D01*
X45968355Y-124085697D01*
X45979783Y-123997756D01*
X45979918Y-123966996D01*
X46008900Y-123807882D01*
X46064584Y-123755330D01*
X46106513Y-123834546D01*
X46135978Y-124050816D01*
X46148969Y-124372070D01*
X46149251Y-124432663D01*
X46139349Y-124768095D01*
X46112315Y-125003810D01*
X46072158Y-125107739D01*
X46064584Y-125109996D01*
X46000938Y-125037540D01*
X45979918Y-124898330D01*
X45979918Y-124686663D01*
X44117251Y-124686663D01*
X44117251Y-124898330D01*
X44090908Y-125071783D01*
X44025245Y-125097037D01*
X43940312Y-124984474D01*
X43861825Y-124766034D01*
X43792274Y-124519601D01*
X43733741Y-124331737D01*
X43722503Y-124300368D01*
X43737880Y-124207530D01*
X43895590Y-124178676D01*
X43900835Y-124178663D01*
X44125868Y-124178663D01*
X43898909Y-123881104D01*
X43751043Y-123649800D01*
X43704099Y-123435956D01*
X43718877Y-123233680D01*
X43776458Y-122956993D01*
X43880728Y-122760823D01*
X44058571Y-122629817D01*
X44336870Y-122548624D01*
X44742507Y-122501893D01*
X45029382Y-122485330D01*
X45431099Y-122464584D01*
X45694235Y-122442121D01*
X45849439Y-122410312D01*
X45927359Y-122361525D01*
X45958645Y-122288132D01*
X45964639Y-122252496D01*
X46010556Y-122085552D01*
X46067189Y-122066010D01*
X46118202Y-122174118D01*
G37*
X40377531Y-123819645D02*
X40955958Y-124019866D01*
X41065614Y-124073266D01*
X41562289Y-124410589D01*
X41923564Y-124842239D01*
X42142615Y-125352359D01*
X42212620Y-125925088D01*
X42127495Y-126541727D01*
X42023868Y-126939482D01*
X41962237Y-127204306D01*
X41946891Y-127368351D01*
X41982116Y-127463766D01*
X42072200Y-127522704D01*
X42221431Y-127577314D01*
X42267800Y-127593811D01*
X42543510Y-127682410D01*
X42875057Y-127765599D01*
X43291760Y-127849366D01*
X43822938Y-127939701D01*
X44378980Y-128025029D01*
X44815246Y-128099905D01*
X45134888Y-128183709D01*
X45390432Y-128293279D01*
X45585480Y-128411791D01*
X45849278Y-128615717D01*
X45961113Y-128779149D01*
X45927303Y-128921770D01*
X45787736Y-129042015D01*
X45455396Y-129173534D01*
X44974576Y-129231776D01*
X44349361Y-129216925D01*
X43583839Y-129129171D01*
X42682095Y-128968700D01*
X42269441Y-128880931D01*
X41791486Y-128782285D01*
X41271943Y-128686715D01*
X40794152Y-128609153D01*
X40606527Y-128583012D01*
X40318487Y-128548554D01*
X40241390Y-128539330D01*
X40006893Y-128523342D01*
X39866309Y-128537035D01*
X39782907Y-128582393D01*
X39741994Y-128629754D01*
X39666332Y-128706604D01*
X39577661Y-128698603D01*
X39431460Y-128592539D01*
X39334531Y-128508852D01*
X39127338Y-128341378D01*
X38898344Y-128191582D01*
X38615308Y-128043055D01*
X38245987Y-127879390D01*
X37758141Y-127684175D01*
X37577022Y-127614389D01*
X37203712Y-127459189D01*
X36894588Y-127307449D01*
X36687191Y-127178629D01*
X36628875Y-127122906D01*
X36557015Y-126895213D01*
X36649092Y-126660433D01*
X36900271Y-126425241D01*
X37297011Y-126200375D01*
X37830965Y-125950507D01*
X37839748Y-125859099D01*
X39483304Y-125859099D01*
X39525633Y-126133649D01*
X39728594Y-126381893D01*
X39880650Y-126494785D01*
X40140686Y-126651936D01*
X40318487Y-126707302D01*
X40462545Y-126666727D01*
X40575751Y-126578541D01*
X40701579Y-126359981D01*
X40724978Y-126061601D01*
X40647930Y-125736894D01*
X40536712Y-125524684D01*
X40373215Y-125328173D01*
X40196671Y-125247541D01*
X40050043Y-125236996D01*
X39841438Y-125261755D01*
X39702715Y-125366078D01*
X39595699Y-125538409D01*
X39483304Y-125859099D01*
X37839748Y-125859099D01*
X37871146Y-125532333D01*
X38002115Y-125031391D01*
X38290086Y-124585668D01*
X38729154Y-124204185D01*
X38749813Y-124190365D01*
X39294762Y-123903868D01*
X39830567Y-123780637D01*
X40377531Y-123819645D01*
G36*
X40377531Y-123819645D02*
G01*
X40955958Y-124019866D01*
X41065614Y-124073266D01*
X41562289Y-124410589D01*
X41923564Y-124842239D01*
X42142615Y-125352359D01*
X42212620Y-125925088D01*
X42127495Y-126541727D01*
X42023868Y-126939482D01*
X41962237Y-127204306D01*
X41946891Y-127368351D01*
X41982116Y-127463766D01*
X42072200Y-127522704D01*
X42221431Y-127577314D01*
X42267800Y-127593811D01*
X42543510Y-127682410D01*
X42875057Y-127765599D01*
X43291760Y-127849366D01*
X43822938Y-127939701D01*
X44378980Y-128025029D01*
X44815246Y-128099905D01*
X45134888Y-128183709D01*
X45390432Y-128293279D01*
X45585480Y-128411791D01*
X45849278Y-128615717D01*
X45961113Y-128779149D01*
X45927303Y-128921770D01*
X45787736Y-129042015D01*
X45455396Y-129173534D01*
X44974576Y-129231776D01*
X44349361Y-129216925D01*
X43583839Y-129129171D01*
X42682095Y-128968700D01*
X42269441Y-128880931D01*
X41791486Y-128782285D01*
X41271943Y-128686715D01*
X40794152Y-128609153D01*
X40606527Y-128583012D01*
X40318487Y-128548554D01*
X40241390Y-128539330D01*
X40006893Y-128523342D01*
X39866309Y-128537035D01*
X39782907Y-128582393D01*
X39741994Y-128629754D01*
X39666332Y-128706604D01*
X39577661Y-128698603D01*
X39431460Y-128592539D01*
X39334531Y-128508852D01*
X39127338Y-128341378D01*
X38898344Y-128191582D01*
X38615308Y-128043055D01*
X38245987Y-127879390D01*
X37758141Y-127684175D01*
X37577022Y-127614389D01*
X37203712Y-127459189D01*
X36894588Y-127307449D01*
X36687191Y-127178629D01*
X36628875Y-127122906D01*
X36557015Y-126895213D01*
X36649092Y-126660433D01*
X36900271Y-126425241D01*
X37297011Y-126200375D01*
X37830965Y-125950507D01*
X37839748Y-125859099D01*
X39483304Y-125859099D01*
X39525633Y-126133649D01*
X39728594Y-126381893D01*
X39880650Y-126494785D01*
X40140686Y-126651936D01*
X40318487Y-126707302D01*
X40462545Y-126666727D01*
X40575751Y-126578541D01*
X40701579Y-126359981D01*
X40724978Y-126061601D01*
X40647930Y-125736894D01*
X40536712Y-125524684D01*
X40373215Y-125328173D01*
X40196671Y-125247541D01*
X40050043Y-125236996D01*
X39841438Y-125261755D01*
X39702715Y-125366078D01*
X39595699Y-125538409D01*
X39483304Y-125859099D01*
X37839748Y-125859099D01*
X37871146Y-125532333D01*
X38002115Y-125031391D01*
X38290086Y-124585668D01*
X38729154Y-124204185D01*
X38749813Y-124190365D01*
X39294762Y-123903868D01*
X39830567Y-123780637D01*
X40377531Y-123819645D01*
G37*
X39387520Y-117678957D02*
X39447534Y-117770101D01*
X39460584Y-117981159D01*
X39460584Y-117983238D01*
X39503583Y-118268621D01*
X39641836Y-118489417D01*
X39889226Y-118651539D01*
X40259637Y-118760901D01*
X40766952Y-118823417D01*
X41425055Y-118845000D01*
X41484052Y-118845135D01*
X41924851Y-118852324D01*
X42333415Y-118871538D01*
X42663841Y-118899840D01*
X42868418Y-118933782D01*
X43051093Y-118991696D01*
X43145446Y-119067497D01*
X43180659Y-119211360D01*
X43185917Y-119473463D01*
X43185918Y-119479663D01*
X43180902Y-119744434D01*
X43146398Y-119890182D01*
X43053214Y-119967220D01*
X42872163Y-120025858D01*
X42868418Y-120026915D01*
X42523916Y-120100992D01*
X42067401Y-120167729D01*
X41556181Y-120221812D01*
X41047564Y-120257929D01*
X40598857Y-120270767D01*
X40334697Y-120261810D01*
X40027824Y-120246644D01*
X39851698Y-120266245D01*
X39770353Y-120325725D01*
X39762151Y-120343222D01*
X39742298Y-120529174D01*
X39765474Y-120832711D01*
X39826576Y-121209067D01*
X39896528Y-121521403D01*
X39984192Y-121869810D01*
X40971222Y-122172761D01*
X41430462Y-122312772D01*
X41901884Y-122454910D01*
X42322652Y-122580308D01*
X42572084Y-122653440D01*
X42890000Y-122752132D01*
X43076122Y-122832880D01*
X43163682Y-122915695D01*
X43185911Y-123020586D01*
X43185918Y-123023066D01*
X43139868Y-123240473D01*
X43080084Y-123351217D01*
X42923291Y-123445647D01*
X42633439Y-123524875D01*
X42246409Y-123585234D01*
X41798083Y-123623062D01*
X41324342Y-123634690D01*
X40861067Y-123616455D01*
X40667084Y-123597709D01*
X40215148Y-123556486D01*
X39719191Y-123529750D01*
X39280573Y-123522819D01*
X39248918Y-123523318D01*
X38775896Y-123509443D01*
X38288717Y-123442871D01*
X37719832Y-123314167D01*
X37682584Y-123304512D01*
X36977922Y-123100274D01*
X36439170Y-122897080D01*
X36062942Y-122692394D01*
X35845852Y-122483679D01*
X35784514Y-122268400D01*
X35875543Y-122044019D01*
X35922130Y-121985725D01*
X36087696Y-121803672D01*
X36232500Y-121681681D01*
X36395481Y-121607735D01*
X36615581Y-121569818D01*
X36931740Y-121555913D01*
X37321139Y-121553996D01*
X37769318Y-121558940D01*
X38090092Y-121577528D01*
X38325200Y-121615403D01*
X38516381Y-121678202D01*
X38628165Y-121730598D01*
X38854962Y-121833624D01*
X38990846Y-121852156D01*
X39086544Y-121794098D01*
X39135612Y-121711239D01*
X39144888Y-121576218D01*
X39111607Y-121353622D01*
X39033006Y-121008036D01*
X39021558Y-120961330D01*
X38934823Y-120629078D01*
X38855471Y-120360215D01*
X38796390Y-120197156D01*
X38781485Y-120171242D01*
X38677580Y-120125760D01*
X38444206Y-120056525D01*
X38117819Y-119973570D01*
X37798429Y-119900626D01*
X37338063Y-119794526D01*
X36858369Y-119674204D01*
X36431773Y-119558218D01*
X36243251Y-119502134D01*
X35608251Y-119303837D01*
X35583013Y-118825408D01*
X35576212Y-118604239D01*
X35595546Y-118436766D01*
X35661016Y-118316278D01*
X35792624Y-118236067D01*
X36010371Y-118189422D01*
X36334259Y-118169632D01*
X36784290Y-118169989D01*
X37380464Y-118183782D01*
X37486963Y-118186683D01*
X39037251Y-118229169D01*
X39037251Y-117944249D01*
X39054603Y-117748823D01*
X39131593Y-117670919D01*
X39248918Y-117659330D01*
X39387520Y-117678957D01*
G36*
X39387520Y-117678957D02*
G01*
X39447534Y-117770101D01*
X39460584Y-117981159D01*
X39460584Y-117983238D01*
X39503583Y-118268621D01*
X39641836Y-118489417D01*
X39889226Y-118651539D01*
X40259637Y-118760901D01*
X40766952Y-118823417D01*
X41425055Y-118845000D01*
X41484052Y-118845135D01*
X41924851Y-118852324D01*
X42333415Y-118871538D01*
X42663841Y-118899840D01*
X42868418Y-118933782D01*
X43051093Y-118991696D01*
X43145446Y-119067497D01*
X43180659Y-119211360D01*
X43185917Y-119473463D01*
X43185918Y-119479663D01*
X43180902Y-119744434D01*
X43146398Y-119890182D01*
X43053214Y-119967220D01*
X42872163Y-120025858D01*
X42868418Y-120026915D01*
X42523916Y-120100992D01*
X42067401Y-120167729D01*
X41556181Y-120221812D01*
X41047564Y-120257929D01*
X40598857Y-120270767D01*
X40334697Y-120261810D01*
X40027824Y-120246644D01*
X39851698Y-120266245D01*
X39770353Y-120325725D01*
X39762151Y-120343222D01*
X39742298Y-120529174D01*
X39765474Y-120832711D01*
X39826576Y-121209067D01*
X39896528Y-121521403D01*
X39984192Y-121869810D01*
X40971222Y-122172761D01*
X41430462Y-122312772D01*
X41901884Y-122454910D01*
X42322652Y-122580308D01*
X42572084Y-122653440D01*
X42890000Y-122752132D01*
X43076122Y-122832880D01*
X43163682Y-122915695D01*
X43185911Y-123020586D01*
X43185918Y-123023066D01*
X43139868Y-123240473D01*
X43080084Y-123351217D01*
X42923291Y-123445647D01*
X42633439Y-123524875D01*
X42246409Y-123585234D01*
X41798083Y-123623062D01*
X41324342Y-123634690D01*
X40861067Y-123616455D01*
X40667084Y-123597709D01*
X40215148Y-123556486D01*
X39719191Y-123529750D01*
X39280573Y-123522819D01*
X39248918Y-123523318D01*
X38775896Y-123509443D01*
X38288717Y-123442871D01*
X37719832Y-123314167D01*
X37682584Y-123304512D01*
X36977922Y-123100274D01*
X36439170Y-122897080D01*
X36062942Y-122692394D01*
X35845852Y-122483679D01*
X35784514Y-122268400D01*
X35875543Y-122044019D01*
X35922130Y-121985725D01*
X36087696Y-121803672D01*
X36232500Y-121681681D01*
X36395481Y-121607735D01*
X36615581Y-121569818D01*
X36931740Y-121555913D01*
X37321139Y-121553996D01*
X37769318Y-121558940D01*
X38090092Y-121577528D01*
X38325200Y-121615403D01*
X38516381Y-121678202D01*
X38628165Y-121730598D01*
X38854962Y-121833624D01*
X38990846Y-121852156D01*
X39086544Y-121794098D01*
X39135612Y-121711239D01*
X39144888Y-121576218D01*
X39111607Y-121353622D01*
X39033006Y-121008036D01*
X39021558Y-120961330D01*
X38934823Y-120629078D01*
X38855471Y-120360215D01*
X38796390Y-120197156D01*
X38781485Y-120171242D01*
X38677580Y-120125760D01*
X38444206Y-120056525D01*
X38117819Y-119973570D01*
X37798429Y-119900626D01*
X37338063Y-119794526D01*
X36858369Y-119674204D01*
X36431773Y-119558218D01*
X36243251Y-119502134D01*
X35608251Y-119303837D01*
X35583013Y-118825408D01*
X35576212Y-118604239D01*
X35595546Y-118436766D01*
X35661016Y-118316278D01*
X35792624Y-118236067D01*
X36010371Y-118189422D01*
X36334259Y-118169632D01*
X36784290Y-118169989D01*
X37380464Y-118183782D01*
X37486963Y-118186683D01*
X39037251Y-118229169D01*
X39037251Y-117944249D01*
X39054603Y-117748823D01*
X39131593Y-117670919D01*
X39248918Y-117659330D01*
X39387520Y-117678957D01*
G37*
D12*
%TO.C,J5*%
X58056911Y-166914624D02*
X56056911Y-166914624D01*
X56056911Y-166914624D02*
X56056911Y-172114624D01*
X56056911Y-172114624D02*
X58056911Y-172114624D01*
X58056911Y-172114624D02*
X58056911Y-166914624D01*
D10*
X63066911Y-169524624D02*
G75*
G03*
X63066911Y-169524624I-6030000J0D01*
G01*
%TO.C,REF\u002A\u002A*%
X78000000Y-88500000D02*
G75*
G03*
X78000000Y-88500000I-2500000J0D01*
G01*
D12*
%TO.C,D2*%
X55997597Y-125204997D02*
X57917597Y-125204997D01*
X57917597Y-125204997D02*
X57917597Y-122519997D01*
X55997597Y-122519997D02*
X55997597Y-125204997D01*
D10*
%TO.C,REF\u002A\u002A*%
X78000000Y-69000000D02*
G75*
G03*
X78000000Y-69000000I-2500000J0D01*
G01*
D12*
%TO.C,J2*%
X55930686Y-126115373D02*
X57930686Y-126115373D01*
X57930686Y-126115373D02*
X57930686Y-120915373D01*
X57930686Y-120915373D02*
X55930686Y-120915373D01*
X55930686Y-120915373D02*
X55930686Y-126115373D01*
D10*
X62980686Y-123505373D02*
G75*
G03*
X62980686Y-123505373I-6030000J0D01*
G01*
%TO.C,REF\u002A\u002A*%
X79000000Y-181500000D02*
G75*
G03*
X79000000Y-181500000I-2000000J0D01*
G01*
D12*
%TO.C,J4*%
X58026911Y-74904624D02*
X56026911Y-74904624D01*
X56026911Y-74904624D02*
X56026911Y-80104624D01*
X56026911Y-80104624D02*
X58026911Y-80104624D01*
X58026911Y-80104624D02*
X58026911Y-74904624D01*
D10*
X63036911Y-77514624D02*
G75*
G03*
X63036911Y-77514624I-6030000J0D01*
G01*
%TO.C,REF\u002A\u002A*%
X40500000Y-181500000D02*
G75*
G03*
X40500000Y-181500000I-2000000J0D01*
G01*
X42000000Y-69000000D02*
G75*
G03*
X42000000Y-69000000I-2500000J0D01*
G01*
D12*
%TO.C,J1*%
X58026911Y-143904624D02*
X56026911Y-143904624D01*
X56026911Y-143904624D02*
X56026911Y-149104624D01*
X56026911Y-149104624D02*
X58026911Y-149104624D01*
X58026911Y-149104624D02*
X58026911Y-143904624D01*
D10*
X63036911Y-146514624D02*
G75*
G03*
X63036911Y-146514624I-6030000J0D01*
G01*
%TO.C,REF\u002A\u002A*%
X79000000Y-25000000D02*
G75*
G03*
X79000000Y-25000000I-2000000J0D01*
G01*
X40500000Y-25000000D02*
G75*
G03*
X40500000Y-25000000I-2000000J0D01*
G01*
D12*
%TO.C,D4*%
X57960000Y-75815000D02*
X56040000Y-75815000D01*
X56040000Y-75815000D02*
X56040000Y-78500000D01*
X57960000Y-78500000D02*
X57960000Y-75815000D01*
%TO.C,C1*%
X38811252Y-188560000D02*
X38288748Y-188560000D01*
X38811252Y-187090000D02*
X38288748Y-187090000D01*
D10*
%TO.C,J6*%
X33567500Y-26297500D02*
X81167500Y-26297500D01*
X33567500Y-60897500D02*
X33567500Y-26297500D01*
X33567500Y-60897500D02*
X81167500Y-60897500D01*
X81167500Y-60897500D02*
X81167500Y-26297500D01*
D11*
X48467500Y-39447500D02*
X52967500Y-39447500D01*
X52967500Y-39447500D02*
X52967500Y-51447500D01*
X52967500Y-51447500D02*
X48467500Y-51447500D01*
X48467500Y-51447500D02*
X48467500Y-39447500D01*
D12*
%TO.C,D3*%
X57960000Y-98815000D02*
X56040000Y-98815000D01*
X56040000Y-98815000D02*
X56040000Y-101500000D01*
X57960000Y-101500000D02*
X57960000Y-98815000D01*
%TD*%
D15*
%TO.C,REF\u002A\u002A*%
X75500000Y-88500000D03*
%TD*%
%TO.C,REF\u002A\u002A*%
X75500000Y-69000000D03*
%TD*%
D16*
%TO.C,REF\u002A\u002A*%
X77000000Y-181500000D03*
%TD*%
%TO.C,REF\u002A\u002A*%
X38500000Y-181500000D03*
%TD*%
D15*
%TO.C,REF\u002A\u002A*%
X39500000Y-69000000D03*
%TD*%
D16*
%TO.C,REF\u002A\u002A*%
X77000000Y-25000000D03*
%TD*%
%TO.C,REF\u002A\u002A*%
X38500000Y-25000000D03*
%TD*%
M02*
